<svg version="1.1" id="Layer_1" xmlns="http://www.w3.org/2000/svg" xmlns:xlink="http://www.w3.org/1999/xlink" x="0px" y="0px"
	 width="100%" viewBox="0 0 642 716" enable-background="new 0 0 642 716" xml:space="preserve">
<path fill="#FEFFFF" opacity="1.000000" stroke="none" 
	d="
M289.000000,717.000000 
	C193.014954,717.000000 97.029907,717.000000 1.022428,717.000000 
	C1.022428,478.385468 1.022428,239.770920 1.022428,1.078185 
	C214.914520,1.078185 428.829102,1.078185 642.871826,1.078185 
	C642.871826,239.543991 642.871826,478.088074 642.871826,717.000000 
	C526.641113,717.000000 410.281799,717.000000 293.621338,716.694336 
	C299.240570,712.961975 300.441833,709.710144 298.053284,703.140015 
	C296.575989,699.076599 294.841766,695.105347 293.406281,691.028076 
	C285.552795,668.721436 285.160309,645.474976 285.073303,622.239624 
	C285.026123,609.642578 285.483673,597.038269 285.949219,584.445984 
	C286.416046,571.819458 286.966248,559.188965 287.859375,546.587097 
	C289.021729,530.186768 290.171814,513.768799 292.040558,497.440063 
	C293.979340,480.499634 299.831970,465.066559 313.000305,453.384308 
	C317.975586,448.970520 323.395966,445.134430 330.507416,444.776733 
	C334.732117,444.564270 338.937134,443.981995 343.156128,443.626831 
	C346.109955,443.378174 349.259705,442.486603 351.997467,443.174225 
	C361.962158,445.676971 372.007202,448.137878 381.620087,451.699219 
	C396.648895,457.267059 406.970703,468.164398 413.246246,482.857117 
	C414.868469,486.655212 417.248993,489.926239 421.526154,489.724457 
	C427.094513,489.461792 429.701538,491.863892 431.114990,496.905762 
	C432.231964,500.889984 435.653046,503.407166 439.434296,502.520844 
	C442.382263,501.829803 445.127625,499.088470 447.298065,496.663208 
	C448.873199,494.903259 449.236847,492.107727 450.357697,489.883331 
	C453.445007,483.756500 457.876801,483.083496 462.722595,487.975403 
	C465.612762,490.893097 468.998413,491.722717 472.776062,490.309692 
	C476.503784,488.915436 478.015808,485.891663 478.044800,482.043335 
	C478.063599,479.544342 477.870483,477.031799 478.068573,474.549011 
	C478.342773,471.112000 479.825897,468.717957 483.650970,467.950165 
	C492.168396,466.240509 494.947327,463.071472 494.598206,454.108978 
	C494.371094,448.277679 496.853424,445.130219 502.030121,444.102844 
	C511.533600,442.216797 512.793823,434.459412 508.939423,426.848785 
	C506.830566,422.684875 505.745117,417.792969 505.183929,413.111176 
	C504.563995,407.939270 505.780060,403.127289 511.912201,401.342438 
	C513.445374,400.896149 514.792786,399.700134 516.133057,398.721985 
	C523.122620,393.621124 522.415466,387.281860 514.893860,383.144226 
	C512.632446,381.900208 510.525879,379.160309 509.762207,376.671783 
	C508.362427,372.110504 507.984802,367.231140 507.235138,362.475891 
	C506.353210,356.881409 507.565826,354.891693 513.057678,352.728699 
	C521.286072,349.487885 523.081360,342.266418 516.935974,335.764709 
	C512.774353,331.361816 510.809906,326.379150 510.883575,320.434357 
	C510.912476,318.102020 511.007019,315.751556 510.775330,313.439087 
	C510.377960,309.472687 511.578827,307.074371 515.623413,305.442657 
	C521.623291,303.022156 522.990295,297.314636 519.377625,291.882477 
	C518.101807,289.964020 516.450134,288.269806 514.828003,286.612335 
	C510.505463,282.195648 508.907806,276.914032 508.615601,270.786743 
	C508.363495,265.501129 511.734985,263.230194 514.993225,260.344177 
	C519.649780,256.219666 520.020325,251.398148 515.907288,246.716187 
	C509.690948,239.639938 509.057587,231.466354 510.808502,222.878098 
	C511.207153,220.922638 512.900085,218.698074 514.633667,217.638687 
	C522.754272,212.676208 523.916199,208.239777 518.232727,200.661697 
	C515.764099,197.370026 515.167847,194.226196 517.011719,190.490555 
	C519.511353,185.426239 522.086548,180.372360 524.145630,175.124222 
	C526.815674,168.318954 523.751526,161.496155 517.687500,160.271164 
	C514.282410,159.583298 510.783447,159.262924 507.309875,159.033020 
	C501.729950,158.663727 497.723022,161.242661 495.552063,166.460632 
	C494.786713,168.300201 494.288269,170.249344 493.630127,172.135269 
	C491.451813,178.377426 489.364594,179.081116 483.119080,176.853653 
	C480.301636,175.848831 476.850830,175.215759 474.044495,175.893250 
	C469.085266,177.090485 467.388062,181.821518 468.708588,188.143341 
	C470.421997,196.345871 466.638916,201.682312 458.260254,202.002808 
	C454.919312,202.130600 451.292236,201.393890 448.200043,200.090683 
	C440.788269,196.966965 435.476318,199.204849 433.340576,206.967239 
	C432.987915,208.249008 432.727020,209.557449 432.340027,210.828094 
	C428.677979,222.852310 417.067139,226.839859 406.795441,219.748032 
	C405.386322,218.775146 403.428802,218.283447 401.685028,218.166229 
	C396.093109,217.790253 394.057556,221.904175 392.086456,226.115540 
	C388.634338,233.491318 382.567505,237.311462 374.916687,235.805450 
	C371.030609,235.040512 367.221649,232.765045 363.911682,230.419174 
	C356.432556,225.118515 350.969788,225.643707 346.399719,233.323105 
	C341.543152,241.483948 334.113159,243.927261 325.312531,244.163483 
	C321.527008,244.265106 319.196503,243.177307 317.942017,239.143875 
	C315.952850,232.748367 309.975098,230.193207 304.519867,233.638748 
	C292.298553,241.357681 279.420258,239.999329 266.410126,237.091400 
	C264.526764,236.670441 262.466980,234.707443 261.510773,232.913345 
	C258.806915,227.840408 255.192047,225.885422 249.472855,226.212280 
	C245.253174,226.453445 240.901382,226.191010 236.750763,225.403183 
	C230.727753,224.259949 224.763748,222.664352 218.902817,220.847900 
	C212.832733,218.966614 207.555023,215.717514 206.013412,208.972763 
	C204.488434,202.300751 201.879166,199.372406 195.096191,200.154846 
	C185.559921,201.254929 180.699173,195.595261 176.384552,188.798172 
	C174.888596,186.441483 174.160660,183.608521 172.961792,181.049377 
	C171.063904,176.998047 169.453384,172.741196 167.031219,169.020523 
	C161.223602,160.099426 145.087433,160.779129 138.610275,163.870453 
	C134.354767,165.901489 132.177322,171.502609 133.402634,176.282608 
	C133.853348,178.040833 134.780762,179.671036 135.385223,181.396606 
	C139.118607,192.054230 140.516098,202.258011 131.585526,211.538101 
	C129.593216,213.608383 127.921158,218.042526 128.775375,220.432831 
	C132.089020,229.705322 128.843628,236.480347 122.728004,243.059143 
	C117.055260,249.161484 116.685745,255.547562 120.966965,261.177490 
	C127.515800,269.789429 126.986099,280.843109 119.625305,289.174500 
	C116.276443,292.964935 115.976524,298.074677 118.871628,302.014801 
	C123.820190,308.749573 123.411018,313.182556 117.281738,319.239349 
	C111.668015,324.786713 111.531570,329.688568 116.835480,335.272827 
	C122.146156,340.864105 122.277496,344.510468 117.380684,350.405792 
	C111.239265,357.799530 114.125931,366.405396 123.539047,368.765411 
	C132.576736,371.031281 136.673309,376.928345 135.598907,386.125671 
	C134.577194,394.871857 141.348007,401.166748 150.112747,399.619324 
	C160.120010,397.852539 162.579681,399.023621 167.601288,407.920746 
	C168.582870,409.659912 169.486725,411.456482 170.613953,413.097778 
	C184.159866,432.821014 182.345901,452.813751 171.620163,472.907410 
	C168.899185,478.004883 169.738007,482.985992 172.975418,486.958893 
	C176.919006,491.798431 182.128571,495.584900 186.358566,500.221039 
	C188.697357,502.784454 190.855545,505.933716 191.878159,509.199921 
	C195.295975,520.116333 198.169800,531.203247 201.241562,542.227722 
	C202.357010,546.230957 203.443069,550.242432 204.542557,554.250122 
	C203.819901,554.679749 203.097244,555.109314 202.374603,555.538940 
	C199.777725,552.797913 196.134979,550.486145 194.798019,547.228149 
	C191.861664,540.072632 189.413742,532.563538 188.011536,524.968933 
	C186.115097,514.697632 182.678543,506.240936 172.084824,502.115814 
	C167.496719,500.329193 163.477280,497.094666 158.902786,495.256165 
	C155.999985,494.089478 152.528168,493.836761 149.353104,493.997131 
	C146.442963,494.144135 143.630249,495.688141 140.701797,496.104462 
	C132.150742,497.320007 123.466331,497.793365 115.017700,499.477936 
	C106.763611,501.123749 99.270500,498.835175 93.277130,494.386475 
	C79.607841,484.240112 71.002731,470.079010 64.843399,454.256897 
	C61.212334,444.929413 62.919415,434.203339 56.150616,425.610535 
	C52.140366,420.519714 49.885529,414.066010 46.685925,408.311584 
	C42.782684,401.291656 38.315914,394.806915 44.829422,386.449524 
	C48.832348,381.313477 47.012253,376.952759 41.863171,372.600983 
	C38.597694,369.841187 35.459221,366.774231 32.908108,363.363159 
	C29.160286,358.351990 28.463737,352.386322 34.968533,347.942841 
	C44.321018,341.554108 45.932800,336.030212 41.992317,326.613159 
	C38.864727,319.138824 39.603073,312.974823 45.075142,306.899292 
	C50.431637,300.952057 51.285423,293.875244 48.518566,286.341919 
	C47.775543,284.318878 47.256832,282.204834 46.751431,280.104584 
	C44.610493,271.207764 46.706734,263.046997 53.915665,257.762634 
	C63.258118,250.914322 63.288860,242.444641 60.667042,232.905289 
	C59.744286,229.547897 57.498970,226.400894 57.238762,223.050537 
	C56.851669,218.066498 56.901890,212.742279 58.355793,208.056030 
	C59.039879,205.851105 63.299099,204.493851 66.162636,203.283157 
	C71.486809,201.032120 73.679268,196.885406 72.048538,191.282425 
	C71.165802,188.249451 70.166901,185.238297 69.499969,182.156799 
	C67.657326,173.642944 70.952591,166.870560 78.666862,162.956879 
	C85.067307,159.709717 88.687912,153.139389 87.543159,146.051224 
	C86.199287,137.730164 87.760345,129.802307 90.502556,122.077156 
	C91.349464,119.691299 92.925217,116.705048 94.977745,115.766907 
	C101.207397,112.919540 103.760269,107.592285 105.233536,101.782318 
	C106.808716,95.570396 110.635162,91.352196 115.743416,88.478539 
	C121.205055,85.406075 127.019676,82.129890 133.047455,81.107307 
	C140.429123,79.855057 148.233337,80.357109 155.780579,80.988503 
	C167.371262,81.958153 178.914871,83.627220 189.604721,88.735619 
	C195.355698,91.483856 199.642090,95.174049 199.187469,102.412651 
	C198.875900,107.373428 202.087448,110.653755 205.998779,112.669846 
	C212.172958,115.852318 215.553635,120.828743 216.922684,127.318611 
	C217.892212,131.914658 220.671570,134.310471 224.876328,136.029938 
	C237.060516,141.012466 247.507675,147.478546 250.499725,162.053452 
	C252.330093,170.969452 261.792847,172.888321 268.756500,166.910706 
	C270.707428,165.236038 273.641937,164.261566 276.256042,163.892685 
	C282.819916,162.966370 287.177856,166.898132 291.041595,171.545746 
	C297.221558,178.979492 302.515472,179.981216 310.487915,174.767914 
	C314.538055,172.119476 318.640289,171.069672 323.252747,172.452774 
	C327.197937,173.635834 331.168365,174.797775 334.990112,176.315399 
	C341.320526,178.829224 345.256561,178.435776 349.863159,173.433823 
	C357.166779,165.503433 366.354736,163.815872 376.346924,165.033188 
	C385.573944,166.157257 389.393585,163.772720 393.209839,155.126266 
	C394.442474,152.333435 397.528015,149.229279 400.333954,148.522522 
	C404.629639,147.440552 409.529327,147.689423 413.973999,148.484238 
	C423.772888,150.236526 428.874390,147.498688 431.669830,137.926468 
	C432.228699,136.012711 432.247528,133.857834 433.155975,132.156158 
	C433.872742,130.813629 435.700531,128.969009 436.817566,129.106949 
	C446.628479,130.318542 450.334717,124.567230 453.036713,116.452110 
	C456.242889,106.822708 463.755646,102.023445 473.647278,100.956070 
	C478.975708,100.381096 481.694916,97.697220 481.857056,92.235359 
	C481.891663,91.069946 481.809540,89.900665 481.854614,88.736008 
	C482.191956,80.019608 484.705750,77.055061 493.135010,75.619583 
	C499.775574,74.488716 504.369629,71.091667 506.585388,64.514442 
	C507.233795,62.589787 508.415588,60.431324 510.007507,59.306164 
	C519.281860,52.751209 528.910034,46.943752 540.486206,45.146328 
	C552.465881,43.286232 564.727112,42.993546 574.679138,50.063133 
	C587.739380,59.340717 594.372681,73.548172 595.799988,89.303833 
	C596.938538,101.871445 592.623230,113.128242 582.865723,121.987915 
	C575.583130,128.600327 572.816833,135.920288 577.787659,146.002350 
	C580.714111,151.937912 582.733276,159.444199 576.138611,165.881424 
	C572.560120,169.374435 573.660400,175.616348 577.206970,179.563934 
	C582.987305,185.997879 583.031433,196.272568 577.305054,202.402893 
	C571.578308,208.533630 571.437378,214.538376 576.866150,221.098022 
	C583.169922,228.714905 582.737488,238.655945 575.788391,245.875732 
	C570.651123,251.213120 570.541931,257.170563 575.479797,262.714874 
	C582.756042,270.884766 583.216248,275.507599 577.653625,284.766296 
	C575.070374,289.066101 574.970703,293.434296 578.168030,297.302612 
	C585.541809,306.223724 586.998169,316.857819 586.847412,327.748383 
	C586.800964,331.102356 584.240540,334.373871 583.105957,337.774750 
	C582.101074,340.786835 580.059387,344.424225 580.936279,346.921387 
	C584.373291,356.709351 585.280334,366.651215 585.094910,376.867615 
	C584.967285,383.899750 583.311157,389.603241 576.599426,393.630035 
	C569.963379,397.611420 570.258423,405.842438 576.040039,411.030548 
	C577.661499,412.485565 579.285828,415.267120 579.054077,417.220001 
	C578.197998,424.431915 576.929932,431.649414 575.051147,438.659576 
	C574.260071,441.611267 572.061768,444.676941 569.640198,446.609558 
	C561.977722,452.724854 560.931152,457.478699 565.695251,465.975464 
	C567.086914,468.457581 568.521423,471.786224 567.990784,474.319366 
	C566.064209,483.517181 563.301270,492.539185 560.875610,501.633331 
	C559.432739,507.043091 555.601929,509.289307 550.349854,510.021637 
	C539.839844,511.486969 535.695679,516.080872 536.102478,526.633484 
	C536.460144,535.911804 532.080566,542.208069 524.105042,545.480591 
	C513.716492,549.743286 503.412903,554.698608 491.586456,554.103638 
	C486.081573,553.826721 482.349640,558.224854 481.117126,563.595276 
	C479.089630,572.429504 471.779022,578.090881 463.685883,574.030273 
	C457.443329,570.898132 451.140564,567.875183 445.001221,564.551270 
	C439.183655,561.401611 433.408539,561.703552 427.117645,563.010376 
	C423.332611,563.796631 418.685028,563.517151 415.238007,561.939880 
	C412.060364,560.485901 409.618835,556.903137 407.470490,553.826843 
	C402.872253,547.242554 397.104706,542.670471 389.074707,541.193909 
	C385.328918,540.505066 381.546997,539.893921 377.890289,538.861816 
	C367.141937,535.828186 358.868256,541.671936 359.158112,552.775208 
	C359.409424,562.400757 360.427490,572.005066 361.044647,581.622742 
	C361.469818,588.249023 359.589233,594.398315 355.220856,599.204285 
	C347.502838,607.695496 344.944214,617.242126 346.035431,628.580750 
	C346.922333,637.796204 344.810364,647.009827 339.947021,654.934204 
	C335.731750,661.802673 335.523621,668.453552 337.147125,675.955383 
	C337.983154,679.818542 337.822937,684.244080 336.804871,688.067139 
	C335.723236,692.129028 333.295410,695.899963 331.087860,699.577209 
	C328.423889,704.014893 328.522278,708.973999 331.786926,711.929688 
	C335.108917,714.937439 340.875549,714.838501 344.626831,711.611450 
	C345.883423,710.530457 347.310974,709.411621 348.040131,707.991638 
	C353.840454,696.695618 359.753265,685.456360 355.489594,671.947144 
	C354.744873,669.587463 355.317902,666.345825 356.344482,663.970642 
	C361.947601,651.007202 366.212463,637.923279 364.188873,623.434021 
	C363.819489,620.789307 364.681763,617.154114 366.375122,615.171448 
	C378.233368,601.286987 380.895355,585.334656 378.196777,567.876892 
	C377.728516,564.847473 378.130432,561.683472 378.130432,558.573181 
	C388.858002,559.109924 388.616943,559.285706 394.547089,567.417114 
	C402.497009,578.317993 413.459808,584.281250 426.888763,581.656189 
	C433.928741,580.280029 439.334045,581.274780 444.975952,584.825928 
	C447.361816,586.327698 449.990051,587.459656 452.555664,588.657959 
	C460.583771,592.407654 468.811737,594.422058 477.706940,591.948486 
	C486.240021,589.575684 490.391937,582.122620 496.177277,576.537964 
	C497.663422,575.103394 499.316803,573.491272 501.193909,572.872620 
	C509.706665,570.066833 518.461487,567.958801 526.879395,564.909912 
	C542.373596,559.297913 552.837463,549.126221 555.019897,531.933838 
	C555.191528,530.581848 556.574829,528.549683 557.728271,528.284729 
	C570.061096,525.451965 576.248108,516.881165 580.057861,505.626495 
	C584.831421,491.524597 589.750305,477.551483 585.057190,462.325104 
	C584.589294,460.807281 585.596802,458.482483 586.560913,456.930603 
	C595.193848,443.034241 599.169983,427.939880 596.705017,411.784729 
	C595.770752,405.661713 594.818481,400.609772 598.932434,395.141144 
	C601.043518,392.334839 601.588013,387.946411 601.812622,384.211151 
	C602.239441,377.110687 603.237671,369.648956 601.609070,362.915192 
	C599.288330,353.319977 600.424072,344.963715 603.551697,335.745239 
	C607.649963,323.665955 604.548035,311.310791 600.140747,299.644714 
	C597.975403,293.912781 595.781799,288.587158 599.418274,282.697754 
	C600.047791,281.678223 600.125183,280.028412 599.863647,278.795746 
	C598.358154,271.701263 596.597473,264.660797 595.100342,257.564636 
	C594.690125,255.620438 594.127747,253.157425 594.928711,251.595978 
	C601.183716,239.402069 600.888428,227.359177 595.061890,215.157318 
	C594.450317,213.876663 594.193604,211.716919 594.862000,210.643692 
	C602.146973,198.945999 600.901428,186.923660 596.742188,174.669586 
	C596.230713,173.162674 595.559204,171.098267 596.170654,169.918961 
	C601.001587,160.602081 598.274536,151.189819 596.079163,142.137985 
	C594.877686,137.184448 596.114990,134.222137 599.234131,131.178543 
	C605.610779,124.956383 609.573181,117.339516 611.874878,108.852341 
	C616.553162,91.601738 613.861572,75.232147 605.608398,59.604576 
	C591.111755,32.155148 573.662659,24.192240 541.955139,26.950987 
	C526.135437,28.327404 512.757751,35.747734 500.257904,44.794868 
	C496.644928,47.409908 494.188904,51.599796 491.096924,54.970901 
	C489.973572,56.195724 488.677368,57.813892 487.230560,58.102623 
	C475.959351,60.351910 469.352875,67.267021 466.964081,78.214127 
	C466.128754,82.042053 464.214905,84.115326 460.787903,85.808205 
	C450.511810,90.884369 440.900757,96.785957 436.976318,108.639946 
	C436.634338,109.672867 434.811981,110.847382 433.650543,110.876106 
	C425.317200,111.082169 419.896240,115.557594 417.856934,123.066071 
	C416.116821,129.472916 412.811981,130.538086 406.812988,130.277039 
	C395.388580,129.779861 385.650909,133.646484 378.856415,143.614075 
	C377.855347,145.082626 375.050781,145.890060 373.027008,145.998047 
	C362.403381,146.564957 352.063934,148.177933 343.356537,154.749619 
	C340.419922,156.965958 338.071869,157.143417 334.706329,156.282928 
	C324.863129,153.766235 314.940125,151.469925 305.038391,156.520920 
	C304.062683,157.018677 301.753113,156.204453 300.807648,155.256317 
	C291.765137,146.188309 280.873688,144.039154 268.638428,145.867065 
	C266.933014,146.121857 264.076874,145.200226 263.266357,143.888412 
	C256.696350,133.254883 246.676300,126.819138 236.295563,120.697311 
	C234.810608,119.821602 233.527573,118.422195 232.478577,117.020134 
	C228.037537,111.084328 223.698029,105.071884 219.373764,99.049866 
	C218.336243,97.605034 217.055069,96.126762 216.643341,94.475060 
	C214.107269,84.301224 207.498459,77.841637 198.399689,73.293846 
	C180.943954,64.569061 161.991409,63.310574 143.075302,62.232742 
	C129.194931,61.441849 116.903442,67.055634 105.800491,74.571388 
	C99.012100,79.166565 92.456360,84.929314 90.760445,93.785469 
	C89.964981,97.939369 87.599998,100.259941 84.431099,102.723083 
	C81.383217,105.092155 78.656937,108.331650 76.846016,111.748703 
	C71.673355,121.509033 70.222145,132.200302 70.078316,143.150070 
	C70.053314,145.054001 69.418266,148.022980 68.138397,148.671570 
	C55.192436,155.232117 52.111107,167.020599 52.522789,179.732742 
	C52.710239,185.520935 52.070282,189.120621 47.271210,192.609268 
	C40.021980,197.879074 35.132679,218.231995 41.377384,231.369644 
	C44.302258,237.523010 46.223686,243.282593 38.458549,247.425598 
	C37.915806,247.715179 37.559433,248.396805 37.177769,248.939285 
	C28.518629,261.247192 25.309355,274.513550 30.763739,288.994141 
	C32.198982,292.804504 31.525198,295.589783 29.129435,298.554108 
	C21.590384,307.882202 19.863966,318.263641 24.219915,329.453186 
	C25.425745,332.550720 24.143431,334.261292 21.841030,335.630219 
	C16.879541,338.580017 14.644576,343.254364 13.158482,348.530121 
	C10.439363,358.183167 12.868524,366.985535 18.976120,374.269012 
	C23.569805,379.747101 25.520838,384.693420 24.224716,392.036987 
	C22.510513,401.749298 27.821388,409.968445 32.689331,418.041443 
	C35.293789,422.360657 37.235367,427.077911 39.515423,431.595642 
	C40.109142,432.772095 40.914837,433.841492 41.509350,435.017609 
	C42.519855,437.016602 44.008842,438.979980 44.311550,441.099091 
	C47.977978,466.765778 60.232285,487.858032 78.983162,505.211273 
	C88.340103,513.870728 100.088997,518.154419 112.816765,517.592224 
	C123.395920,517.124878 134.250229,516.262817 144.338776,513.347473 
	C152.859512,510.885162 158.968689,513.731567 165.192932,517.823059 
	C167.389389,519.266907 169.163651,522.216553 169.911621,524.827881 
	C171.689331,531.034058 172.286484,537.588013 174.182785,543.748474 
	C177.477478,554.451660 182.746460,563.943787 192.966034,569.818176 
	C200.015427,573.870239 207.139297,573.567261 213.881897,569.711121 
	C219.847931,566.299133 221.740372,560.261597 220.942139,553.752502 
	C220.301743,548.530701 218.945267,543.360413 217.506180,538.280701 
	C214.790375,528.694458 210.499374,519.354553 209.251862,509.606537 
	C207.913116,499.145813 203.237335,491.671722 195.708374,485.116913 
	C188.742996,479.052826 188.837814,478.939392 191.926788,470.383545 
	C192.265808,469.444550 192.725662,468.546356 193.025436,467.596405 
	C197.173782,454.450806 201.076477,440.645142 196.330505,427.494049 
	C191.713516,414.700317 184.444046,402.695831 177.136093,391.103271 
	C172.645248,383.979492 165.385971,379.392975 156.021088,379.782379 
	C155.015793,379.824158 153.345184,377.696564 152.949570,376.301300 
	C150.574081,367.923431 146.625168,360.695251 139.692535,355.127411 
	C138.416214,354.102295 137.580185,351.460541 137.847595,349.771881 
	C138.856812,343.398682 139.289856,337.107483 136.264740,331.230774 
	C134.755203,328.298248 135.180237,326.045715 136.591339,323.325562 
	C140.605637,315.587402 141.015518,307.466736 138.831604,299.061127 
	C138.379211,297.319916 138.658783,295.177948 139.219543,293.417725 
	C143.306335,280.589325 145.253845,267.870056 139.073975,255.026398 
	C138.404663,253.635391 139.099121,250.976730 140.072372,249.511444 
	C144.569702,242.740646 148.374268,235.756531 147.878448,227.339554 
	C147.622650,222.997025 148.744690,219.377777 150.846954,215.562256 
	C152.883728,211.865631 154.019745,207.537155 154.848587,203.347168 
	C155.746231,198.809357 155.831329,194.110809 156.270798,189.482346 
	C158.557373,191.952942 159.677231,194.715149 161.218491,197.217865 
	C167.295990,207.086288 174.606735,215.454407 186.774124,217.917542 
	C188.163971,218.198883 189.525314,219.537766 190.520172,220.708862 
	C198.670364,230.302780 207.826553,237.459305 220.966629,239.965469 
	C231.874817,242.045959 243.797333,242.863541 252.572250,251.515182 
	C253.449158,252.379776 254.951477,252.675171 256.214447,253.073151 
	C271.065582,257.753021 286.053558,259.186554 301.363556,255.292267 
	C303.219940,254.820099 306.079285,254.951508 307.359924,256.074005 
	C319.688843,266.880402 344.091461,261.799377 354.445435,251.728546 
	C356.888489,249.352325 358.620605,249.136887 361.757874,250.531281 
	C373.589844,255.790039 386.045288,256.405182 396.307892,248.236404 
	C403.562714,242.461746 410.599670,240.005554 419.352844,240.866333 
	C419.681946,240.898697 420.023468,240.886215 420.351166,240.838943 
	C431.048157,239.296753 440.455231,235.066284 445.831726,225.374756 
	C448.389587,220.764008 451.010986,219.660004 455.910736,219.799301 
	C468.615295,220.160446 479.609711,216.268341 484.505005,203.383179 
	C486.842346,197.231049 491.022766,195.896042 497.355469,195.343140 
	C497.576050,199.191010 499.330627,203.862167 497.751099,206.631790 
	C489.992493,220.235764 490.826691,233.965714 495.098694,248.155228 
	C495.620087,249.887009 495.872009,252.292023 495.074188,253.736038 
	C488.147858,266.272064 489.068542,278.537811 495.475281,290.914032 
	C496.339325,292.583160 496.727844,295.155853 496.091583,296.839783 
	C491.200897,309.783722 492.455719,322.709808 496.110229,335.528351 
	C496.994232,338.629120 497.002136,340.757172 495.043335,343.254608 
	C491.318726,348.003326 489.235138,353.478912 490.033997,359.554443 
	C491.221802,368.588409 492.824432,377.567291 494.173096,386.581177 
	C494.402069,388.111633 494.901184,390.185028 494.162476,391.187164 
	C486.262146,401.904785 486.459778,413.758850 488.589722,426.053772 
	C488.860596,427.617249 488.156219,430.152252 486.993530,431.025909 
	C481.225769,435.359802 477.820038,440.918457 476.320465,447.926819 
	C475.961945,449.602417 474.453064,451.151642 473.189087,452.490784 
	C469.729889,456.155762 466.235321,459.804840 462.518127,463.201202 
	C460.745331,464.821045 458.562988,466.155731 456.343353,467.090576 
	C451.215363,469.250366 445.772064,470.724762 440.805267,473.181885 
	C437.464203,474.834747 430.262329,474.261597 427.958069,471.172974 
	C423.901062,465.735077 420.107849,460.068665 415.696472,454.934113 
	C408.614929,446.691650 400.972839,439.014221 390.093903,435.733154 
	C378.657440,432.283875 367.312042,428.502930 355.785431,425.390594 
	C343.471313,422.065643 331.500122,426.612305 320.327057,430.076385 
	C304.061890,435.119232 292.829773,447.741638 284.788361,462.690887 
	C276.666504,477.789673 274.439697,494.563965 272.271637,511.209534 
	C271.115173,520.088074 271.262024,529.137207 270.837585,538.110107 
	C269.973663,556.373169 269.067352,574.634583 268.300446,592.901794 
	C268.099670,597.684021 268.401947,602.485352 268.376007,607.277344 
	C268.326630,616.393799 268.122498,625.510315 268.170074,634.625793 
	C268.183807,637.257446 269.295837,639.915771 269.125336,642.510742 
	C267.754272,663.378174 273.353943,683.050171 279.150574,702.702148 
	C280.872711,708.540710 283.365204,713.854126 289.000000,717.000000 
z"/>
<path fill="#6CC2FF" opacity="1.000000" stroke="none" 
	d="
M289.399994,717.000000 
	C283.365204,713.854126 280.872711,708.540710 279.150574,702.702148 
	C273.353943,683.050171 267.754272,663.378174 269.125336,642.510742 
	C269.295837,639.915771 268.183807,637.257446 268.170074,634.625793 
	C268.122498,625.510315 268.326630,616.393799 268.376007,607.277344 
	C268.401947,602.485352 268.099670,597.684021 268.300446,592.901794 
	C269.067352,574.634583 269.973663,556.373169 270.837585,538.110107 
	C271.262024,529.137207 271.115173,520.088074 272.271637,511.209534 
	C274.439697,494.563965 276.666504,477.789673 284.788361,462.690887 
	C292.829773,447.741638 304.061890,435.119232 320.327057,430.076385 
	C331.500122,426.612305 343.471313,422.065643 355.785431,425.390594 
	C367.312042,428.502930 378.657440,432.283875 390.093903,435.733154 
	C400.972839,439.014221 408.614929,446.691650 415.696472,454.934113 
	C420.107849,460.068665 423.901062,465.735077 427.958069,471.172974 
	C430.262329,474.261597 437.464203,474.834747 440.805267,473.181885 
	C445.772064,470.724762 451.215363,469.250366 456.343353,467.090576 
	C458.562988,466.155731 460.745331,464.821045 462.518127,463.201202 
	C466.235321,459.804840 469.729889,456.155762 473.189087,452.490784 
	C474.453064,451.151642 475.961945,449.602417 476.320465,447.926819 
	C477.820038,440.918457 481.225769,435.359802 486.993530,431.025909 
	C488.156219,430.152252 488.860596,427.617249 488.589722,426.053772 
	C486.459778,413.758850 486.262146,401.904785 494.162476,391.187164 
	C494.901184,390.185028 494.402069,388.111633 494.173096,386.581177 
	C492.824432,377.567291 491.221802,368.588409 490.033997,359.554443 
	C489.235138,353.478912 491.318726,348.003326 495.043335,343.254608 
	C497.002136,340.757172 496.994232,338.629120 496.110229,335.528351 
	C492.455719,322.709808 491.200897,309.783722 496.091583,296.839783 
	C496.727844,295.155853 496.339325,292.583160 495.475281,290.914032 
	C489.068542,278.537811 488.147858,266.272064 495.074188,253.736038 
	C495.872009,252.292023 495.620087,249.887009 495.098694,248.155228 
	C490.826691,233.965714 489.992493,220.235764 497.751099,206.631790 
	C499.330627,203.862167 497.576050,199.191010 497.355469,195.343140 
	C491.022766,195.896042 486.842346,197.231049 484.505005,203.383179 
	C479.609711,216.268341 468.615295,220.160446 455.910736,219.799301 
	C451.010986,219.660004 448.389587,220.764008 445.831726,225.374756 
	C440.455231,235.066284 431.048157,239.296753 420.351166,240.838943 
	C420.023468,240.886215 419.681946,240.898697 419.352844,240.866333 
	C410.599670,240.005554 403.562714,242.461746 396.307892,248.236404 
	C386.045288,256.405182 373.589844,255.790039 361.757874,250.531281 
	C358.620605,249.136887 356.888489,249.352325 354.445435,251.728546 
	C344.091461,261.799377 319.688843,266.880402 307.359924,256.074005 
	C306.079285,254.951508 303.219940,254.820099 301.363556,255.292267 
	C286.053558,259.186554 271.065582,257.753021 256.214447,253.073151 
	C254.951477,252.675171 253.449158,252.379776 252.572250,251.515182 
	C243.797333,242.863541 231.874817,242.045959 220.966629,239.965469 
	C207.826553,237.459305 198.670364,230.302780 190.520172,220.708862 
	C189.525314,219.537766 188.163971,218.198883 186.774124,217.917542 
	C174.606735,215.454407 167.295990,207.086288 161.218491,197.217865 
	C159.677231,194.715149 158.557373,191.952942 156.270798,189.482346 
	C155.831329,194.110809 155.746231,198.809357 154.848587,203.347168 
	C154.019745,207.537155 152.883728,211.865631 150.846954,215.562256 
	C148.744690,219.377777 147.622650,222.997025 147.878448,227.339554 
	C148.374268,235.756531 144.569702,242.740646 140.072372,249.511444 
	C139.099121,250.976730 138.404663,253.635391 139.073975,255.026398 
	C145.253845,267.870056 143.306335,280.589325 139.219543,293.417725 
	C138.658783,295.177948 138.379211,297.319916 138.831604,299.061127 
	C141.015518,307.466736 140.605637,315.587402 136.591339,323.325562 
	C135.180237,326.045715 134.755203,328.298248 136.264740,331.230774 
	C139.289856,337.107483 138.856812,343.398682 137.847595,349.771881 
	C137.580185,351.460541 138.416214,354.102295 139.692535,355.127411 
	C146.625168,360.695251 150.574081,367.923431 152.949570,376.301300 
	C153.345184,377.696564 155.015793,379.824158 156.021088,379.782379 
	C165.385971,379.392975 172.645248,383.979492 177.136093,391.103271 
	C184.444046,402.695831 191.713516,414.700317 196.330505,427.494049 
	C201.076477,440.645142 197.173782,454.450806 193.025436,467.596405 
	C192.725662,468.546356 192.265808,469.444550 191.926788,470.383545 
	C188.837814,478.939392 188.742996,479.052826 195.708374,485.116913 
	C203.237335,491.671722 207.913116,499.145813 209.251862,509.606537 
	C210.499374,519.354553 214.790375,528.694458 217.506180,538.280701 
	C218.945267,543.360413 220.301743,548.530701 220.942139,553.752502 
	C221.740372,560.261597 219.847931,566.299133 213.881897,569.711121 
	C207.139297,573.567261 200.015427,573.870239 192.966034,569.818176 
	C182.746460,563.943787 177.477478,554.451660 174.182785,543.748474 
	C172.286484,537.588013 171.689331,531.034058 169.911621,524.827881 
	C169.163651,522.216553 167.389389,519.266907 165.192932,517.823059 
	C158.968689,513.731567 152.859512,510.885162 144.338776,513.347473 
	C134.250229,516.262817 123.395920,517.124878 112.816765,517.592224 
	C100.088997,518.154419 88.340103,513.870728 78.983162,505.211273 
	C60.232285,487.858032 47.977978,466.765778 44.311550,441.099091 
	C44.008842,438.979980 42.519855,437.016602 41.509350,435.017609 
	C40.914837,433.841492 40.109142,432.772095 39.515423,431.595642 
	C37.235367,427.077911 35.293789,422.360657 32.689331,418.041443 
	C27.821388,409.968445 22.510513,401.749298 24.224716,392.036987 
	C25.520838,384.693420 23.569805,379.747101 18.976120,374.269012 
	C12.868524,366.985535 10.439363,358.183167 13.158482,348.530121 
	C14.644576,343.254364 16.879541,338.580017 21.841030,335.630219 
	C24.143431,334.261292 25.425745,332.550720 24.219915,329.453186 
	C19.863966,318.263641 21.590384,307.882202 29.129435,298.554108 
	C31.525198,295.589783 32.198982,292.804504 30.763739,288.994141 
	C25.309355,274.513550 28.518629,261.247192 37.177769,248.939285 
	C37.559433,248.396805 37.915806,247.715179 38.458549,247.425598 
	C46.223686,243.282593 44.302258,237.523010 41.377384,231.369644 
	C35.132679,218.231995 40.021980,197.879074 47.271210,192.609268 
	C52.070282,189.120621 52.710239,185.520935 52.522789,179.732742 
	C52.111107,167.020599 55.192436,155.232117 68.138397,148.671570 
	C69.418266,148.022980 70.053314,145.054001 70.078316,143.150070 
	C70.222145,132.200302 71.673355,121.509033 76.846016,111.748703 
	C78.656937,108.331650 81.383217,105.092155 84.431099,102.723083 
	C87.599998,100.259941 89.964981,97.939369 90.760445,93.785469 
	C92.456360,84.929314 99.012100,79.166565 105.800491,74.571388 
	C116.903442,67.055634 129.194931,61.441849 143.075302,62.232742 
	C161.991409,63.310574 180.943954,64.569061 198.399689,73.293846 
	C207.498459,77.841637 214.107269,84.301224 216.643341,94.475060 
	C217.055069,96.126762 218.336243,97.605034 219.373764,99.049866 
	C223.698029,105.071884 228.037537,111.084328 232.478577,117.020134 
	C233.527573,118.422195 234.810608,119.821602 236.295563,120.697311 
	C246.676300,126.819138 256.696350,133.254883 263.266357,143.888412 
	C264.076874,145.200226 266.933014,146.121857 268.638428,145.867065 
	C280.873688,144.039154 291.765137,146.188309 300.807648,155.256317 
	C301.753113,156.204453 304.062683,157.018677 305.038391,156.520920 
	C314.940125,151.469925 324.863129,153.766235 334.706329,156.282928 
	C338.071869,157.143417 340.419922,156.965958 343.356537,154.749619 
	C352.063934,148.177933 362.403381,146.564957 373.027008,145.998047 
	C375.050781,145.890060 377.855347,145.082626 378.856415,143.614075 
	C385.650909,133.646484 395.388580,129.779861 406.812988,130.277039 
	C412.811981,130.538086 416.116821,129.472916 417.856934,123.066071 
	C419.896240,115.557594 425.317200,111.082169 433.650543,110.876106 
	C434.811981,110.847382 436.634338,109.672867 436.976318,108.639946 
	C440.900757,96.785957 450.511810,90.884369 460.787903,85.808205 
	C464.214905,84.115326 466.128754,82.042053 466.964081,78.214127 
	C469.352875,67.267021 475.959351,60.351910 487.230560,58.102623 
	C488.677368,57.813892 489.973572,56.195724 491.096924,54.970901 
	C494.188904,51.599796 496.644928,47.409908 500.257904,44.794868 
	C512.757751,35.747734 526.135437,28.327404 541.955139,26.950987 
	C573.662659,24.192240 591.111755,32.155148 605.608398,59.604576 
	C613.861572,75.232147 616.553162,91.601738 611.874878,108.852341 
	C609.573181,117.339516 605.610779,124.956383 599.234131,131.178543 
	C596.114990,134.222137 594.877686,137.184448 596.079163,142.137985 
	C598.274536,151.189819 601.001587,160.602081 596.170654,169.918961 
	C595.559204,171.098267 596.230713,173.162674 596.742188,174.669586 
	C600.901428,186.923660 602.146973,198.945999 594.862000,210.643692 
	C594.193604,211.716919 594.450317,213.876663 595.061890,215.157318 
	C600.888428,227.359177 601.183716,239.402069 594.928711,251.595978 
	C594.127747,253.157425 594.690125,255.620438 595.100342,257.564636 
	C596.597473,264.660797 598.358154,271.701263 599.863647,278.795746 
	C600.125183,280.028412 600.047791,281.678223 599.418274,282.697754 
	C595.781799,288.587158 597.975403,293.912781 600.140747,299.644714 
	C604.548035,311.310791 607.649963,323.665955 603.551697,335.745239 
	C600.424072,344.963715 599.288330,353.319977 601.609070,362.915192 
	C603.237671,369.648956 602.239441,377.110687 601.812622,384.211151 
	C601.588013,387.946411 601.043518,392.334839 598.932434,395.141144 
	C594.818481,400.609772 595.770752,405.661713 596.705017,411.784729 
	C599.169983,427.939880 595.193848,443.034241 586.560913,456.930603 
	C585.596802,458.482483 584.589294,460.807281 585.057190,462.325104 
	C589.750305,477.551483 584.831421,491.524597 580.057861,505.626495 
	C576.248108,516.881165 570.061096,525.451965 557.728271,528.284729 
	C556.574829,528.549683 555.191528,530.581848 555.019897,531.933838 
	C552.837463,549.126221 542.373596,559.297913 526.879395,564.909912 
	C518.461487,567.958801 509.706665,570.066833 501.193909,572.872620 
	C499.316803,573.491272 497.663422,575.103394 496.177277,576.537964 
	C490.391937,582.122620 486.240021,589.575684 477.706940,591.948486 
	C468.811737,594.422058 460.583771,592.407654 452.555664,588.657959 
	C449.990051,587.459656 447.361816,586.327698 444.975952,584.825928 
	C439.334045,581.274780 433.928741,580.280029 426.888763,581.656189 
	C413.459808,584.281250 402.497009,578.317993 394.547089,567.417114 
	C388.616943,559.285706 388.858002,559.109924 378.130432,558.573181 
	C378.130432,561.683472 377.728516,564.847473 378.196777,567.876892 
	C380.895355,585.334656 378.233368,601.286987 366.375122,615.171448 
	C364.681763,617.154114 363.819489,620.789307 364.188873,623.434021 
	C366.212463,637.923279 361.947601,651.007202 356.344482,663.970642 
	C355.317902,666.345825 354.744873,669.587463 355.489594,671.947144 
	C359.753265,685.456360 353.840454,696.695618 348.040131,707.991638 
	C347.310974,709.411621 345.883423,710.530457 344.626831,711.611450 
	C340.875549,714.838501 335.108917,714.937439 331.786926,711.929688 
	C328.522278,708.973999 328.423889,704.014893 331.087860,699.577209 
	C333.295410,695.899963 335.723236,692.129028 336.804871,688.067139 
	C337.822937,684.244080 337.983154,679.818542 337.147125,675.955383 
	C335.523621,668.453552 335.731750,661.802673 339.947021,654.934204 
	C344.810364,647.009827 346.922333,637.796204 346.035431,628.580750 
	C344.944214,617.242126 347.502838,607.695496 355.220856,599.204285 
	C359.589233,594.398315 361.469818,588.249023 361.044647,581.622742 
	C360.427490,572.005066 359.409424,562.400757 359.158112,552.775208 
	C358.868256,541.671936 367.141937,535.828186 377.890289,538.861816 
	C381.546997,539.893921 385.328918,540.505066 389.074707,541.193909 
	C397.104706,542.670471 402.872253,547.242554 407.470490,553.826843 
	C409.618835,556.903137 412.060364,560.485901 415.238007,561.939880 
	C418.685028,563.517151 423.332611,563.796631 427.117645,563.010376 
	C433.408539,561.703552 439.183655,561.401611 445.001221,564.551270 
	C451.140564,567.875183 457.443329,570.898132 463.685883,574.030273 
	C471.779022,578.090881 479.089630,572.429504 481.117126,563.595276 
	C482.349640,558.224854 486.081573,553.826721 491.586456,554.103638 
	C503.412903,554.698608 513.716492,549.743286 524.105042,545.480591 
	C532.080566,542.208069 536.460144,535.911804 536.102478,526.633484 
	C535.695679,516.080872 539.839844,511.486969 550.349854,510.021637 
	C555.601929,509.289307 559.432739,507.043091 560.875610,501.633331 
	C563.301270,492.539185 566.064209,483.517181 567.990784,474.319366 
	C568.521423,471.786224 567.086914,468.457581 565.695251,465.975464 
	C560.931152,457.478699 561.977722,452.724854 569.640198,446.609558 
	C572.061768,444.676941 574.260071,441.611267 575.051147,438.659576 
	C576.929932,431.649414 578.197998,424.431915 579.054077,417.220001 
	C579.285828,415.267120 577.661499,412.485565 576.040039,411.030548 
	C570.258423,405.842438 569.963379,397.611420 576.599426,393.630035 
	C583.311157,389.603241 584.967285,383.899750 585.094910,376.867615 
	C585.280334,366.651215 584.373291,356.709351 580.936279,346.921387 
	C580.059387,344.424225 582.101074,340.786835 583.105957,337.774750 
	C584.240540,334.373871 586.800964,331.102356 586.847412,327.748383 
	C586.998169,316.857819 585.541809,306.223724 578.168030,297.302612 
	C574.970703,293.434296 575.070374,289.066101 577.653625,284.766296 
	C583.216248,275.507599 582.756042,270.884766 575.479797,262.714874 
	C570.541931,257.170563 570.651123,251.213120 575.788391,245.875732 
	C582.737488,238.655945 583.169922,228.714905 576.866150,221.098022 
	C571.437378,214.538376 571.578308,208.533630 577.305054,202.402893 
	C583.031433,196.272568 582.987305,185.997879 577.206970,179.563934 
	C573.660400,175.616348 572.560120,169.374435 576.138611,165.881424 
	C582.733276,159.444199 580.714111,151.937912 577.787659,146.002350 
	C572.816833,135.920288 575.583130,128.600327 582.865723,121.987915 
	C592.623230,113.128242 596.938538,101.871445 595.799988,89.303833 
	C594.372681,73.548172 587.739380,59.340717 574.679138,50.063133 
	C564.727112,42.993546 552.465881,43.286232 540.486206,45.146328 
	C528.910034,46.943752 519.281860,52.751209 510.007507,59.306164 
	C508.415588,60.431324 507.233795,62.589787 506.585388,64.514442 
	C504.369629,71.091667 499.775574,74.488716 493.135010,75.619583 
	C484.705750,77.055061 482.191956,80.019608 481.854614,88.736008 
	C481.809540,89.900665 481.891663,91.069946 481.857056,92.235359 
	C481.694916,97.697220 478.975708,100.381096 473.647278,100.956070 
	C463.755646,102.023445 456.242889,106.822708 453.036713,116.452110 
	C450.334717,124.567230 446.628479,130.318542 436.817566,129.106949 
	C435.700531,128.969009 433.872742,130.813629 433.155975,132.156158 
	C432.247528,133.857834 432.228699,136.012711 431.669830,137.926468 
	C428.874390,147.498688 423.772888,150.236526 413.973999,148.484238 
	C409.529327,147.689423 404.629639,147.440552 400.333954,148.522522 
	C397.528015,149.229279 394.442474,152.333435 393.209839,155.126266 
	C389.393585,163.772720 385.573944,166.157257 376.346924,165.033188 
	C366.354736,163.815872 357.166779,165.503433 349.863159,173.433823 
	C345.256561,178.435776 341.320526,178.829224 334.990112,176.315399 
	C331.168365,174.797775 327.197937,173.635834 323.252747,172.452774 
	C318.640289,171.069672 314.538055,172.119476 310.487915,174.767914 
	C302.515472,179.981216 297.221558,178.979492 291.041595,171.545746 
	C287.177856,166.898132 282.819916,162.966370 276.256042,163.892685 
	C273.641937,164.261566 270.707428,165.236038 268.756500,166.910706 
	C261.792847,172.888321 252.330093,170.969452 250.499725,162.053452 
	C247.507675,147.478546 237.060516,141.012466 224.876328,136.029938 
	C220.671570,134.310471 217.892212,131.914658 216.922684,127.318611 
	C215.553635,120.828743 212.172958,115.852318 205.998779,112.669846 
	C202.087448,110.653755 198.875900,107.373428 199.187469,102.412651 
	C199.642090,95.174049 195.355698,91.483856 189.604721,88.735619 
	C178.914871,83.627220 167.371262,81.958153 155.780579,80.988503 
	C148.233337,80.357109 140.429123,79.855057 133.047455,81.107307 
	C127.019676,82.129890 121.205055,85.406075 115.743416,88.478539 
	C110.635162,91.352196 106.808716,95.570396 105.233536,101.782318 
	C103.760269,107.592285 101.207397,112.919540 94.977745,115.766907 
	C92.925217,116.705048 91.349464,119.691299 90.502556,122.077156 
	C87.760345,129.802307 86.199287,137.730164 87.543159,146.051224 
	C88.687912,153.139389 85.067307,159.709717 78.666862,162.956879 
	C70.952591,166.870560 67.657326,173.642944 69.499969,182.156799 
	C70.166901,185.238297 71.165802,188.249451 72.048538,191.282425 
	C73.679268,196.885406 71.486809,201.032120 66.162636,203.283157 
	C63.299099,204.493851 59.039879,205.851105 58.355793,208.056030 
	C56.901890,212.742279 56.851669,218.066498 57.238762,223.050537 
	C57.498970,226.400894 59.744286,229.547897 60.667042,232.905289 
	C63.288860,242.444641 63.258118,250.914322 53.915665,257.762634 
	C46.706734,263.046997 44.610493,271.207764 46.751431,280.104584 
	C47.256832,282.204834 47.775543,284.318878 48.518566,286.341919 
	C51.285423,293.875244 50.431637,300.952057 45.075142,306.899292 
	C39.603073,312.974823 38.864727,319.138824 41.992317,326.613159 
	C45.932800,336.030212 44.321018,341.554108 34.968533,347.942841 
	C28.463737,352.386322 29.160286,358.351990 32.908108,363.363159 
	C35.459221,366.774231 38.597694,369.841187 41.863171,372.600983 
	C47.012253,376.952759 48.832348,381.313477 44.829422,386.449524 
	C38.315914,394.806915 42.782684,401.291656 46.685925,408.311584 
	C49.885529,414.066010 52.140366,420.519714 56.150616,425.610535 
	C62.919415,434.203339 61.212334,444.929413 64.843399,454.256897 
	C71.002731,470.079010 79.607841,484.240112 93.277130,494.386475 
	C99.270500,498.835175 106.763611,501.123749 115.017700,499.477936 
	C123.466331,497.793365 132.150742,497.320007 140.701797,496.104462 
	C143.630249,495.688141 146.442963,494.144135 149.353104,493.997131 
	C152.528168,493.836761 155.999985,494.089478 158.902786,495.256165 
	C163.477280,497.094666 167.496719,500.329193 172.084824,502.115814 
	C182.678543,506.240936 186.115097,514.697632 188.011536,524.968933 
	C189.413742,532.563538 191.861664,540.072632 194.798019,547.228149 
	C196.134979,550.486145 199.777725,552.797913 202.374603,555.538940 
	C203.097244,555.109314 203.819901,554.679749 204.542557,554.250122 
	C203.443069,550.242432 202.357010,546.230957 201.241562,542.227722 
	C198.169800,531.203247 195.295975,520.116333 191.878159,509.199921 
	C190.855545,505.933716 188.697357,502.784454 186.358566,500.221039 
	C182.128571,495.584900 176.919006,491.798431 172.975418,486.958893 
	C169.738007,482.985992 168.899185,478.004883 171.620163,472.907410 
	C182.345901,452.813751 184.159866,432.821014 170.613953,413.097778 
	C169.486725,411.456482 168.582870,409.659912 167.601288,407.920746 
	C162.579681,399.023621 160.120010,397.852539 150.112747,399.619324 
	C141.348007,401.166748 134.577194,394.871857 135.598907,386.125671 
	C136.673309,376.928345 132.576736,371.031281 123.539047,368.765411 
	C114.125931,366.405396 111.239265,357.799530 117.380684,350.405792 
	C122.277496,344.510468 122.146156,340.864105 116.835480,335.272827 
	C111.531570,329.688568 111.668015,324.786713 117.281738,319.239349 
	C123.411018,313.182556 123.820190,308.749573 118.871628,302.014801 
	C115.976524,298.074677 116.276443,292.964935 119.625305,289.174500 
	C126.986099,280.843109 127.515800,269.789429 120.966965,261.177490 
	C116.685745,255.547562 117.055260,249.161484 122.728004,243.059143 
	C128.843628,236.480347 132.089020,229.705322 128.775375,220.432831 
	C127.921158,218.042526 129.593216,213.608383 131.585526,211.538101 
	C140.516098,202.258011 139.118607,192.054230 135.385223,181.396606 
	C134.780762,179.671036 133.853348,178.040833 133.402634,176.282608 
	C132.177322,171.502609 134.354767,165.901489 138.610275,163.870453 
	C145.087433,160.779129 161.223602,160.099426 167.031219,169.020523 
	C169.453384,172.741196 171.063904,176.998047 172.961792,181.049377 
	C174.160660,183.608521 174.888596,186.441483 176.384552,188.798172 
	C180.699173,195.595261 185.559921,201.254929 195.096191,200.154846 
	C201.879166,199.372406 204.488434,202.300751 206.013412,208.972763 
	C207.555023,215.717514 212.832733,218.966614 218.902817,220.847900 
	C224.763748,222.664352 230.727753,224.259949 236.750763,225.403183 
	C240.901382,226.191010 245.253174,226.453445 249.472855,226.212280 
	C255.192047,225.885422 258.806915,227.840408 261.510773,232.913345 
	C262.466980,234.707443 264.526764,236.670441 266.410126,237.091400 
	C279.420258,239.999329 292.298553,241.357681 304.519867,233.638748 
	C309.975098,230.193207 315.952850,232.748367 317.942017,239.143875 
	C319.196503,243.177307 321.527008,244.265106 325.312531,244.163483 
	C334.113159,243.927261 341.543152,241.483948 346.399719,233.323105 
	C350.969788,225.643707 356.432556,225.118515 363.911682,230.419174 
	C367.221649,232.765045 371.030609,235.040512 374.916687,235.805450 
	C382.567505,237.311462 388.634338,233.491318 392.086456,226.115540 
	C394.057556,221.904175 396.093109,217.790253 401.685028,218.166229 
	C403.428802,218.283447 405.386322,218.775146 406.795441,219.748032 
	C417.067139,226.839859 428.677979,222.852310 432.340027,210.828094 
	C432.727020,209.557449 432.987915,208.249008 433.340576,206.967239 
	C435.476318,199.204849 440.788269,196.966965 448.200043,200.090683 
	C451.292236,201.393890 454.919312,202.130600 458.260254,202.002808 
	C466.638916,201.682312 470.421997,196.345871 468.708588,188.143341 
	C467.388062,181.821518 469.085266,177.090485 474.044495,175.893250 
	C476.850830,175.215759 480.301636,175.848831 483.119080,176.853653 
	C489.364594,179.081116 491.451813,178.377426 493.630127,172.135269 
	C494.288269,170.249344 494.786713,168.300201 495.552063,166.460632 
	C497.723022,161.242661 501.729950,158.663727 507.309875,159.033020 
	C510.783447,159.262924 514.282410,159.583298 517.687500,160.271164 
	C523.751526,161.496155 526.815674,168.318954 524.145630,175.124222 
	C522.086548,180.372360 519.511353,185.426239 517.011719,190.490555 
	C515.167847,194.226196 515.764099,197.370026 518.232727,200.661697 
	C523.916199,208.239777 522.754272,212.676208 514.633667,217.638687 
	C512.900085,218.698074 511.207153,220.922638 510.808502,222.878098 
	C509.057587,231.466354 509.690948,239.639938 515.907288,246.716187 
	C520.020325,251.398148 519.649780,256.219666 514.993225,260.344177 
	C511.734985,263.230194 508.363495,265.501129 508.615601,270.786743 
	C508.907806,276.914032 510.505463,282.195648 514.828003,286.612335 
	C516.450134,288.269806 518.101807,289.964020 519.377625,291.882477 
	C522.990295,297.314636 521.623291,303.022156 515.623413,305.442657 
	C511.578827,307.074371 510.377960,309.472687 510.775330,313.439087 
	C511.007019,315.751556 510.912476,318.102020 510.883575,320.434357 
	C510.809906,326.379150 512.774353,331.361816 516.935974,335.764709 
	C523.081360,342.266418 521.286072,349.487885 513.057678,352.728699 
	C507.565826,354.891693 506.353210,356.881409 507.235138,362.475891 
	C507.984802,367.231140 508.362427,372.110504 509.762207,376.671783 
	C510.525879,379.160309 512.632446,381.900208 514.893860,383.144226 
	C522.415466,387.281860 523.122620,393.621124 516.133057,398.721985 
	C514.792786,399.700134 513.445374,400.896149 511.912201,401.342438 
	C505.780060,403.127289 504.563995,407.939270 505.183929,413.111176 
	C505.745117,417.792969 506.830566,422.684875 508.939423,426.848785 
	C512.793823,434.459412 511.533600,442.216797 502.030121,444.102844 
	C496.853424,445.130219 494.371094,448.277679 494.598206,454.108978 
	C494.947327,463.071472 492.168396,466.240509 483.650970,467.950165 
	C479.825897,468.717957 478.342773,471.112000 478.068573,474.549011 
	C477.870483,477.031799 478.063599,479.544342 478.044800,482.043335 
	C478.015808,485.891663 476.503784,488.915436 472.776062,490.309692 
	C468.998413,491.722717 465.612762,490.893097 462.722595,487.975403 
	C457.876801,483.083496 453.445007,483.756500 450.357697,489.883331 
	C449.236847,492.107727 448.873199,494.903259 447.298065,496.663208 
	C445.127625,499.088470 442.382263,501.829803 439.434296,502.520844 
	C435.653046,503.407166 432.231964,500.889984 431.114990,496.905762 
	C429.701538,491.863892 427.094513,489.461792 421.526154,489.724457 
	C417.248993,489.926239 414.868469,486.655212 413.246246,482.857117 
	C406.970703,468.164398 396.648895,457.267059 381.620087,451.699219 
	C372.007202,448.137878 361.962158,445.676971 351.997467,443.174225 
	C349.259705,442.486603 346.109955,443.378174 343.156128,443.626831 
	C338.937134,443.981995 334.732117,444.564270 330.507416,444.776733 
	C323.395966,445.134430 317.975586,448.970520 313.000305,453.384308 
	C299.831970,465.066559 293.979340,480.499634 292.040558,497.440063 
	C290.171814,513.768799 289.021729,530.186768 287.859375,546.587097 
	C286.966248,559.188965 286.416046,571.819458 285.949219,584.445984 
	C285.483673,597.038269 285.026123,609.642578 285.073303,622.239624 
	C285.160309,645.474976 285.552795,668.721436 293.406281,691.028076 
	C294.841766,695.105347 296.575989,699.076599 298.053284,703.140015 
	C300.441833,709.710144 299.240570,712.961975 293.160095,716.694336 
	C291.933319,717.000000 290.866669,717.000000 289.399994,717.000000 
z"/>
</svg>