<svg version="1.1" id="Layer_1" xmlns="http://www.w3.org/2000/svg" xmlns:xlink="http://www.w3.org/1999/xlink" x="0px" y="0px"
	 width="100%" viewBox="0 0 658 691" enable-background="new 0 0 658 691" xml:space="preserve">
<path fill="#FEFFFF" opacity="1.000000" stroke="none" 
	d="
M659.000000,263.000000 
	C659.000000,406.333313 659.000000,549.166626 659.000000,692.000000 
	C439.666718,692.000000 220.333420,692.000000 1.000097,692.000000 
	C1.000065,461.666748 1.000065,231.333481 1.000032,1.000159 
	C220.333237,1.000106 439.666473,1.000106 658.999878,1.000053 
	C659.000000,88.166664 659.000000,175.333328 659.000000,263.000000 
M486.090729,626.569458 
	C486.402863,638.880615 486.650330,651.193848 487.057861,663.501831 
	C487.229187,668.677185 490.861267,672.661133 495.828827,673.597046 
	C500.057434,674.393738 504.789795,671.876221 506.629181,667.335022 
	C507.534698,665.099487 507.920929,662.511169 507.934326,660.079163 
	C508.042450,640.464111 507.916016,620.847656 508.061493,601.233093 
	C508.113281,594.254211 509.017456,587.278931 509.006531,580.302917 
	C508.985504,566.866638 509.295593,553.371521 508.171906,540.009888 
	C506.740662,522.990417 503.928925,506.090454 501.891602,489.117432 
	C500.330780,476.114136 494.361389,464.735229 488.826019,453.239227 
	C486.690887,448.804962 482.200134,447.104248 477.328552,448.263641 
	C472.890015,449.319916 469.870331,452.454620 469.766785,457.071869 
	C469.687775,460.594940 470.613525,464.204865 471.511353,467.667542 
	C472.424255,471.188232 474.091553,474.513794 474.997559,478.035706 
	C476.522644,483.964203 477.826477,489.956970 479.001129,495.966125 
	C480.174164,501.967163 482.352448,508.146240 481.779022,514.021729 
	C481.018097,521.818970 478.741119,529.685852 475.828796,537.011169 
	C469.329346,553.359253 458.575836,566.139587 443.140411,575.323181 
	C425.092010,586.061462 406.112885,594.153687 385.845154,599.422424 
	C378.932434,601.219360 372.174805,603.842773 365.166534,604.994629 
	C350.934570,607.333679 336.617340,609.313416 322.263611,610.698730 
	C311.864746,611.702393 301.352448,611.605896 290.887024,611.818726 
	C283.759796,611.963623 276.622803,611.925110 269.496277,611.736877 
	C258.894897,611.457031 248.126007,612.028809 237.740616,610.329712 
	C221.702881,607.705994 205.740784,604.133606 190.103363,599.704163 
	C177.761826,596.208130 164.138443,594.135742 156.524689,581.481506 
	C156.048462,580.690002 154.996170,580.225647 154.173904,579.664673 
	C145.954971,574.058411 137.515930,568.746826 129.562439,562.786987 
	C121.466309,556.720215 112.792847,550.934998 106.237411,543.403137 
	C92.733444,527.887512 83.016144,509.771149 74.720741,490.962982 
	C68.619217,477.129059 62.587284,463.263824 56.638496,449.363708 
	C55.741417,447.267578 55.413868,444.916565 54.919804,442.662201 
	C54.424618,440.402771 54.205364,438.074402 53.596355,435.849823 
	C51.241440,427.247803 48.315918,418.773438 46.469398,410.067719 
	C43.927380,398.083008 42.074371,385.947296 40.120113,373.844940 
	C39.194622,368.113525 37.877350,362.259460 38.217136,356.548981 
	C38.896275,345.135468 40.362526,333.750641 41.921906,322.411438 
	C45.073807,299.492126 50.522549,276.951447 57.515408,255.038162 
	C62.047768,240.835251 70.155083,227.608917 77.762840,214.589096 
	C90.006691,193.635117 103.081238,173.484940 123.278122,158.502090 
	C137.604782,147.874008 151.784592,137.788422 169.205765,133.318878 
	C177.872253,131.095428 186.742523,129.676132 195.496704,127.782578 
	C219.540207,122.581909 243.691360,123.023323 267.839203,126.651573 
	C280.587219,128.566986 293.717590,130.613327 305.746460,125.960533 
	C317.812866,121.293228 330.038818,117.770554 342.598938,115.601868 
	C358.166229,112.913963 373.549286,112.117905 388.748505,119.689568 
	C395.306091,122.956314 403.932739,122.163773 411.643005,122.997589 
	C420.298492,123.933632 428.431580,122.336121 436.068298,117.891312 
	C449.433685,110.112183 462.870178,102.449432 476.397400,94.955505 
	C494.054901,85.173431 512.189819,76.362534 531.954407,71.692314 
	C559.963989,65.073883 587.852539,58.140793 614.810852,47.848026 
	C620.019104,45.859489 625.724243,45.192547 631.170715,43.800808 
	C635.005554,42.820866 639.063049,42.178349 642.521729,40.409031 
	C646.007324,38.625923 648.333923,35.297943 647.253601,30.892006 
	C646.148987,26.386761 643.143921,23.493885 638.547363,23.156591 
	C628.493835,22.418875 618.753235,23.983408 609.071045,27.009731 
	C585.608826,34.343212 562.012329,41.248489 538.452820,48.268906 
	C525.886108,52.013630 512.561584,54.108574 500.847443,59.636032 
	C476.198456,71.266960 452.386139,84.670921 428.229645,97.345695 
	C416.417542,103.543411 404.728363,102.917702 393.027100,96.912033 
	C389.964081,95.339951 386.702423,93.472046 383.401672,93.171661 
	C372.656860,92.193810 361.605011,90.179283 351.126770,91.700653 
	C334.789490,94.072693 318.866852,99.203285 302.684021,102.782921 
	C295.818237,104.301620 288.573456,106.331032 281.786285,105.573059 
	C259.492065,103.083290 237.307663,99.105171 214.800537,102.323372 
	C199.199280,104.554123 183.504425,106.620117 168.179153,110.173363 
	C146.678406,115.158409 127.770554,125.390068 110.652634,139.742950 
	C97.036217,151.159927 83.981506,162.638031 74.539986,177.897293 
	C67.279716,189.631256 58.839142,200.669250 52.076881,212.666855 
	C45.982975,223.478653 40.212250,234.785324 36.532616,246.571106 
	C31.153019,263.801788 27.335423,281.564972 23.637848,299.265381 
	C18.197746,325.307312 12.980762,351.448090 18.221766,378.284302 
	C19.491680,384.786804 20.061144,391.425446 21.309460,397.933044 
	C23.683064,410.306976 26.318052,422.630707 28.823353,434.979584 
	C28.919249,435.452271 28.681494,435.996796 28.792597,436.461578 
	C29.547628,439.620056 29.903063,442.972076 31.228745,445.877838 
	C35.361557,454.936584 40.371086,463.619720 44.123516,472.822449 
	C51.659492,491.304199 58.532738,509.980896 68.601273,527.406189 
	C80.956856,548.789490 96.011147,567.265259 116.698509,581.183655 
	C126.110275,587.515869 134.432175,595.466370 143.263687,602.664124 
	C144.802567,603.918274 146.262207,605.413513 148.021713,606.230225 
	C161.140640,612.319275 174.149399,618.675598 188.509689,621.567932 
	C196.648727,623.207214 204.672165,625.412231 212.774261,627.244934 
	C228.481750,630.797852 244.052475,635.265442 260.471985,633.887756 
	C266.762756,633.359863 273.089905,633.118713 279.403961,633.044067 
	C294.514771,632.865356 309.689850,633.691467 324.722839,632.563782 
	C340.734314,631.362854 356.876556,629.519897 372.483459,625.896973 
	C393.484009,621.022034 414.217285,614.934204 433.774384,605.237061 
	C452.425537,595.989075 470.290833,586.023071 483.187866,569.069763 
	C484.715881,567.061157 486.322083,565.112000 487.891998,563.135254 
	C488.242920,563.280212 488.593872,563.425110 488.944794,563.570068 
	C487.999207,584.244690 487.053650,604.919312 486.090729,626.569458 
M321.858551,245.667542 
	C307.059540,226.691055 286.130463,223.053131 264.107849,223.647430 
	C253.403519,223.936295 242.706543,226.351913 232.109894,228.353577 
	C215.016144,231.582535 199.611893,238.216660 188.464035,252.348907 
	C184.452118,257.434814 180.796005,262.801697 176.776306,267.881104 
	C162.050720,286.488800 154.841293,307.708496 153.049088,331.300842 
	C151.374695,353.342834 156.017960,374.597565 159.217850,396.065399 
	C163.862915,427.228638 179.150177,452.928741 200.902481,474.988312 
	C207.277924,481.453796 215.287659,486.275421 222.001266,492.445709 
	C242.921494,511.672943 268.350952,517.561279 295.655304,517.610718 
	C307.936279,517.632935 320.249664,516.829651 332.486206,515.717346 
	C337.273895,515.282166 342.127808,513.469177 346.519989,511.377441 
	C350.975037,509.255829 354.750305,505.755219 359.078461,503.310333 
	C378.188904,492.515320 394.674530,478.775452 406.825623,460.357819 
	C412.864349,451.204773 418.435455,441.713684 423.710938,432.097290 
	C427.046936,426.016296 429.888733,419.576080 432.176575,413.026093 
	C437.243439,398.519897 445.069000,385.984619 457.407288,376.718353 
	C462.770081,372.690765 468.608978,369.061981 474.713318,366.327271 
	C480.106628,363.911133 486.206329,363.111115 491.925507,361.372009 
	C497.726044,359.608124 503.311401,359.353729 508.880219,362.223541 
	C516.715576,366.261383 524.477051,370.495392 532.541992,374.024078 
	C548.476440,380.996033 557.197327,394.271576 563.945190,409.223633 
	C567.147583,416.319550 568.621216,424.293671 572.411377,431.003876 
	C578.456421,441.706299 583.044556,452.773743 585.560547,464.750519 
	C586.854980,470.912537 587.958984,477.118896 589.418274,483.241028 
	C591.883240,493.582123 594.816650,503.816315 597.097046,514.195679 
	C601.550720,534.467468 605.822266,554.781738 609.919312,575.128723 
	C613.555420,593.186279 616.800049,611.322388 620.326172,629.402588 
	C621.751282,636.710083 623.122803,644.059326 625.168396,651.203552 
	C626.526245,655.945801 631.592102,659.140076 635.355652,658.481934 
	C640.255371,657.625244 643.585449,654.976807 644.135010,649.687927 
	C644.374634,647.382080 644.965027,645.016174 644.680908,642.767944 
	C642.726379,627.298157 640.895813,611.801331 638.388794,596.416870 
	C636.735779,586.273315 633.970642,576.313721 631.793823,566.252197 
	C627.333923,545.638000 623.136902,524.964355 618.432861,504.406494 
	C615.728455,492.587463 612.203430,480.957489 609.121521,469.223083 
	C606.473328,459.140045 604.689636,448.754272 601.155151,438.998169 
	C596.309509,425.622681 590.420654,412.602112 584.526794,399.634888 
	C575.962708,380.793060 564.460632,364.408417 545.039795,355.080322 
	C541.563721,353.410736 538.292358,351.314880 534.926514,349.415894 
	C535.053223,348.979767 535.179932,348.543671 535.306641,348.107544 
	C536.856934,348.022186 538.418152,347.775055 539.955811,347.878113 
	C548.907104,348.478149 557.857544,349.745789 566.799438,349.674866 
	C579.561951,349.573578 592.327393,348.668213 605.071350,347.806549 
	C613.831848,347.214172 622.574951,346.251160 631.291992,345.178864 
	C635.382568,344.675629 639.569153,343.991364 643.397522,342.552094 
	C648.610962,340.592133 651.370178,335.478241 650.383057,331.198944 
	C649.217773,326.147034 645.234619,323.084351 639.235596,323.205139 
	C633.758484,323.315369 628.281067,323.790588 622.820557,324.289062 
	C603.178894,326.082123 583.622314,329.216370 563.773315,327.171478 
	C553.196228,326.081757 542.282532,326.715424 532.026733,324.364288 
	C508.722900,319.021912 485.651215,312.594727 462.670471,305.966064 
	C456.927887,304.309662 451.290497,300.938538 446.651001,297.093170 
	C437.442688,289.461090 428.714600,281.197937 420.258270,272.726196 
	C413.259277,265.714417 404.888519,264.201263 395.598389,264.276611 
	C388.837952,264.331482 381.949768,264.420319 375.336426,263.256104 
	C364.389465,261.329041 353.537903,258.701233 342.800568,255.797546 
	C335.502502,253.823944 327.719788,252.447815 321.858551,245.667542 
z"/>
<path fill="#6CC1FF" opacity="1.000000" stroke="none" 
	d="
M486.099396,626.081665 
	C487.053650,604.919312 487.999207,584.244690 488.944794,563.570068 
	C488.593872,563.425110 488.242920,563.280212 487.891998,563.135254 
	C486.322083,565.112000 484.715881,567.061157 483.187866,569.069763 
	C470.290833,586.023071 452.425537,595.989075 433.774384,605.237061 
	C414.217285,614.934204 393.484009,621.022034 372.483459,625.896973 
	C356.876556,629.519897 340.734314,631.362854 324.722839,632.563782 
	C309.689850,633.691467 294.514771,632.865356 279.403961,633.044067 
	C273.089905,633.118713 266.762756,633.359863 260.471985,633.887756 
	C244.052475,635.265442 228.481750,630.797852 212.774261,627.244934 
	C204.672165,625.412231 196.648727,623.207214 188.509689,621.567932 
	C174.149399,618.675598 161.140640,612.319275 148.021713,606.230225 
	C146.262207,605.413513 144.802567,603.918274 143.263687,602.664124 
	C134.432175,595.466370 126.110275,587.515869 116.698509,581.183655 
	C96.011147,567.265259 80.956856,548.789490 68.601273,527.406189 
	C58.532738,509.980896 51.659492,491.304199 44.123516,472.822449 
	C40.371086,463.619720 35.361557,454.936584 31.228745,445.877838 
	C29.903063,442.972076 29.547628,439.620056 28.792597,436.461578 
	C28.681494,435.996796 28.919249,435.452271 28.823353,434.979584 
	C26.318052,422.630707 23.683064,410.306976 21.309460,397.933044 
	C20.061144,391.425446 19.491680,384.786804 18.221766,378.284302 
	C12.980762,351.448090 18.197746,325.307312 23.637848,299.265381 
	C27.335423,281.564972 31.153019,263.801788 36.532616,246.571106 
	C40.212250,234.785324 45.982975,223.478653 52.076881,212.666855 
	C58.839142,200.669250 67.279716,189.631256 74.539986,177.897293 
	C83.981506,162.638031 97.036217,151.159927 110.652634,139.742950 
	C127.770554,125.390068 146.678406,115.158409 168.179153,110.173363 
	C183.504425,106.620117 199.199280,104.554123 214.800537,102.323372 
	C237.307663,99.105171 259.492065,103.083290 281.786285,105.573059 
	C288.573456,106.331032 295.818237,104.301620 302.684021,102.782921 
	C318.866852,99.203285 334.789490,94.072693 351.126770,91.700653 
	C361.605011,90.179283 372.656860,92.193810 383.401672,93.171661 
	C386.702423,93.472046 389.964081,95.339951 393.027100,96.912033 
	C404.728363,102.917702 416.417542,103.543411 428.229645,97.345695 
	C452.386139,84.670921 476.198456,71.266960 500.847443,59.636032 
	C512.561584,54.108574 525.886108,52.013630 538.452820,48.268906 
	C562.012329,41.248489 585.608826,34.343212 609.071045,27.009731 
	C618.753235,23.983408 628.493835,22.418875 638.547363,23.156591 
	C643.143921,23.493885 646.148987,26.386761 647.253601,30.892006 
	C648.333923,35.297943 646.007324,38.625923 642.521729,40.409031 
	C639.063049,42.178349 635.005554,42.820866 631.170715,43.800808 
	C625.724243,45.192547 620.019104,45.859489 614.810852,47.848026 
	C587.852539,58.140793 559.963989,65.073883 531.954407,71.692314 
	C512.189819,76.362534 494.054901,85.173431 476.397400,94.955505 
	C462.870178,102.449432 449.433685,110.112183 436.068298,117.891312 
	C428.431580,122.336121 420.298492,123.933632 411.643005,122.997589 
	C403.932739,122.163773 395.306091,122.956314 388.748505,119.689568 
	C373.549286,112.117905 358.166229,112.913963 342.598938,115.601868 
	C330.038818,117.770554 317.812866,121.293228 305.746460,125.960533 
	C293.717590,130.613327 280.587219,128.566986 267.839203,126.651573 
	C243.691360,123.023323 219.540207,122.581909 195.496704,127.782578 
	C186.742523,129.676132 177.872253,131.095428 169.205765,133.318878 
	C151.784592,137.788422 137.604782,147.874008 123.278122,158.502090 
	C103.081238,173.484940 90.006691,193.635117 77.762840,214.589096 
	C70.155083,227.608917 62.047768,240.835251 57.515408,255.038162 
	C50.522549,276.951447 45.073807,299.492126 41.921906,322.411438 
	C40.362526,333.750641 38.896275,345.135468 38.217136,356.548981 
	C37.877350,362.259460 39.194622,368.113525 40.120113,373.844940 
	C42.074371,385.947296 43.927380,398.083008 46.469398,410.067719 
	C48.315918,418.773438 51.241440,427.247803 53.596355,435.849823 
	C54.205364,438.074402 54.424618,440.402771 54.919804,442.662201 
	C55.413868,444.916565 55.741417,447.267578 56.638496,449.363708 
	C62.587284,463.263824 68.619217,477.129059 74.720741,490.962982 
	C83.016144,509.771149 92.733444,527.887512 106.237411,543.403137 
	C112.792847,550.934998 121.466309,556.720215 129.562439,562.786987 
	C137.515930,568.746826 145.954971,574.058411 154.173904,579.664673 
	C154.996170,580.225647 156.048462,580.690002 156.524689,581.481506 
	C164.138443,594.135742 177.761826,596.208130 190.103363,599.704163 
	C205.740784,604.133606 221.702881,607.705994 237.740616,610.329712 
	C248.126007,612.028809 258.894897,611.457031 269.496277,611.736877 
	C276.622803,611.925110 283.759796,611.963623 290.887024,611.818726 
	C301.352448,611.605896 311.864746,611.702393 322.263611,610.698730 
	C336.617340,609.313416 350.934570,607.333679 365.166534,604.994629 
	C372.174805,603.842773 378.932434,601.219360 385.845154,599.422424 
	C406.112885,594.153687 425.092010,586.061462 443.140411,575.323181 
	C458.575836,566.139587 469.329346,553.359253 475.828796,537.011169 
	C478.741119,529.685852 481.018097,521.818970 481.779022,514.021729 
	C482.352448,508.146240 480.174164,501.967163 479.001129,495.966125 
	C477.826477,489.956970 476.522644,483.964203 474.997559,478.035706 
	C474.091553,474.513794 472.424255,471.188232 471.511353,467.667542 
	C470.613525,464.204865 469.687775,460.594940 469.766785,457.071869 
	C469.870331,452.454620 472.890015,449.319916 477.328552,448.263641 
	C482.200134,447.104248 486.690887,448.804962 488.826019,453.239227 
	C494.361389,464.735229 500.330780,476.114136 501.891602,489.117432 
	C503.928925,506.090454 506.740662,522.990417 508.171906,540.009888 
	C509.295593,553.371521 508.985504,566.866638 509.006531,580.302917 
	C509.017456,587.278931 508.113281,594.254211 508.061493,601.233093 
	C507.916016,620.847656 508.042450,640.464111 507.934326,660.079163 
	C507.920929,662.511169 507.534698,665.099487 506.629181,667.335022 
	C504.789795,671.876221 500.057434,674.393738 495.828827,673.597046 
	C490.861267,672.661133 487.229187,668.677185 487.057861,663.501831 
	C486.650330,651.193848 486.402863,638.880615 486.099396,626.081665 
z"/>
<path fill="#6BC1FF" opacity="1.000000" stroke="none" 
	d="
M322.105225,245.926117 
	C327.719788,252.447815 335.502502,253.823944 342.800568,255.797546 
	C353.537903,258.701233 364.389465,261.329041 375.336426,263.256104 
	C381.949768,264.420319 388.837952,264.331482 395.598389,264.276611 
	C404.888519,264.201263 413.259277,265.714417 420.258270,272.726196 
	C428.714600,281.197937 437.442688,289.461090 446.651001,297.093170 
	C451.290497,300.938538 456.927887,304.309662 462.670471,305.966064 
	C485.651215,312.594727 508.722900,319.021912 532.026733,324.364288 
	C542.282532,326.715424 553.196228,326.081757 563.773315,327.171478 
	C583.622314,329.216370 603.178894,326.082123 622.820557,324.289062 
	C628.281067,323.790588 633.758484,323.315369 639.235596,323.205139 
	C645.234619,323.084351 649.217773,326.147034 650.383057,331.198944 
	C651.370178,335.478241 648.610962,340.592133 643.397522,342.552094 
	C639.569153,343.991364 635.382568,344.675629 631.291992,345.178864 
	C622.574951,346.251160 613.831848,347.214172 605.071350,347.806549 
	C592.327393,348.668213 579.561951,349.573578 566.799438,349.674866 
	C557.857544,349.745789 548.907104,348.478149 539.955811,347.878113 
	C538.418152,347.775055 536.856934,348.022186 535.306641,348.107544 
	C535.179932,348.543671 535.053223,348.979767 534.926514,349.415894 
	C538.292358,351.314880 541.563721,353.410736 545.039795,355.080322 
	C564.460632,364.408417 575.962708,380.793060 584.526794,399.634888 
	C590.420654,412.602112 596.309509,425.622681 601.155151,438.998169 
	C604.689636,448.754272 606.473328,459.140045 609.121521,469.223083 
	C612.203430,480.957489 615.728455,492.587463 618.432861,504.406494 
	C623.136902,524.964355 627.333923,545.638000 631.793823,566.252197 
	C633.970642,576.313721 636.735779,586.273315 638.388794,596.416870 
	C640.895813,611.801331 642.726379,627.298157 644.680908,642.767944 
	C644.965027,645.016174 644.374634,647.382080 644.135010,649.687927 
	C643.585449,654.976807 640.255371,657.625244 635.355652,658.481934 
	C631.592102,659.140076 626.526245,655.945801 625.168396,651.203552 
	C623.122803,644.059326 621.751282,636.710083 620.326172,629.402588 
	C616.800049,611.322388 613.555420,593.186279 609.919312,575.128723 
	C605.822266,554.781738 601.550720,534.467468 597.097046,514.195679 
	C594.816650,503.816315 591.883240,493.582123 589.418274,483.241028 
	C587.958984,477.118896 586.854980,470.912537 585.560547,464.750519 
	C583.044556,452.773743 578.456421,441.706299 572.411377,431.003876 
	C568.621216,424.293671 567.147583,416.319550 563.945190,409.223633 
	C557.197327,394.271576 548.476440,380.996033 532.541992,374.024078 
	C524.477051,370.495392 516.715576,366.261383 508.880219,362.223541 
	C503.311401,359.353729 497.726044,359.608124 491.925507,361.372009 
	C486.206329,363.111115 480.106628,363.911133 474.713318,366.327271 
	C468.608978,369.061981 462.770081,372.690765 457.407288,376.718353 
	C445.069000,385.984619 437.243439,398.519897 432.176575,413.026093 
	C429.888733,419.576080 427.046936,426.016296 423.710938,432.097290 
	C418.435455,441.713684 412.864349,451.204773 406.825623,460.357819 
	C394.674530,478.775452 378.188904,492.515320 359.078461,503.310333 
	C354.750305,505.755219 350.975037,509.255829 346.519989,511.377441 
	C342.127808,513.469177 337.273895,515.282166 332.486206,515.717346 
	C320.249664,516.829651 307.936279,517.632935 295.655304,517.610718 
	C268.350952,517.561279 242.921494,511.672943 222.001266,492.445709 
	C215.287659,486.275421 207.277924,481.453796 200.902481,474.988312 
	C179.150177,452.928741 163.862915,427.228638 159.217850,396.065399 
	C156.017960,374.597565 151.374695,353.342834 153.049088,331.300842 
	C154.841293,307.708496 162.050720,286.488800 176.776306,267.881104 
	C180.796005,262.801697 184.452118,257.434814 188.464035,252.348907 
	C199.611893,238.216660 215.016144,231.582535 232.109894,228.353577 
	C242.706543,226.351913 253.403519,223.936295 264.107849,223.647430 
	C286.130463,223.053131 307.059540,226.691055 322.105225,245.926117 
M424.231049,378.770508 
	C430.500305,372.109131 436.447845,365.103088 443.120728,358.874115 
	C451.363068,351.180054 460.836945,345.567505 472.350494,343.686371 
	C477.700958,342.812225 482.819061,340.516052 488.042511,338.864471 
	C487.962708,338.388336 487.882904,337.912201 487.803101,337.436066 
	C486.286255,336.926392 484.780182,336.381500 483.250824,335.912659 
	C473.550293,332.939148 463.600983,330.589966 454.217804,326.827606 
	C446.739868,323.829163 439.307281,319.930176 433.006561,314.968140 
	C423.623871,307.578888 415.413788,298.718201 406.350555,290.893890 
	C403.952759,288.823853 400.336151,287.484497 397.141327,287.157745 
	C390.047211,286.432220 382.709717,287.421173 375.752686,286.159882 
	C361.547058,283.584412 347.451447,280.282104 333.452911,276.719574 
	C320.863831,273.515747 309.055115,268.629578 301.467773,257.052826 
	C300.857635,256.121826 299.729431,255.535385 298.859741,254.768677 
	C291.935852,248.664658 283.453369,247.406509 274.694702,246.918762 
	C260.072906,246.104538 245.924072,249.373016 231.781738,252.196579 
	C221.448334,254.259689 212.323090,259.095825 205.698410,267.691681 
	C202.046387,272.430389 198.632660,277.351868 195.039902,282.137207 
	C187.175644,292.611969 180.376007,303.577942 178.719467,316.951813 
	C177.965637,323.037811 177.149918,329.119934 176.579468,335.224121 
	C175.220367,349.767731 175.449310,364.134613 182.125015,377.636963 
	C184.021011,381.471802 184.224792,385.136719 182.025711,389.053040 
	C181.133118,390.642670 180.871124,392.934418 181.150711,394.781281 
	C184.669937,418.028442 196.665710,437.163635 211.817642,454.243866 
	C219.014984,462.357178 228.128159,468.873962 236.828796,475.517670 
	C243.660110,480.733948 250.634262,486.605896 258.530914,489.402313 
	C273.284058,494.626740 288.784271,496.937103 304.687439,494.399506 
	C310.887360,493.410217 317.397552,492.779724 323.561523,493.574615 
	C330.405365,494.457214 335.179840,492.789215 340.049500,487.956696 
	C343.509735,484.522827 348.549286,482.610107 353.028748,480.299164 
	C355.871033,478.832855 359.445007,478.485870 361.891083,476.599701 
	C376.315460,465.477234 387.826721,451.872101 395.941681,435.450684 
	C400.783295,425.653168 405.999725,416.041351 410.883575,406.264099 
	C415.328888,397.364807 419.552521,388.354767 424.231049,378.770508 
z"/>
<path fill="#FEFFFF" opacity="1.000000" stroke="none" 
	d="
M424.052460,379.082031 
	C419.552521,388.354767 415.328888,397.364807 410.883575,406.264099 
	C405.999725,416.041351 400.783295,425.653168 395.941681,435.450684 
	C387.826721,451.872101 376.315460,465.477234 361.891083,476.599701 
	C359.445007,478.485870 355.871033,478.832855 353.028748,480.299164 
	C348.549286,482.610107 343.509735,484.522827 340.049500,487.956696 
	C335.179840,492.789215 330.405365,494.457214 323.561523,493.574615 
	C317.397552,492.779724 310.887360,493.410217 304.687439,494.399506 
	C288.784271,496.937103 273.284058,494.626740 258.530914,489.402313 
	C250.634262,486.605896 243.660110,480.733948 236.828796,475.517670 
	C228.128159,468.873962 219.014984,462.357178 211.817642,454.243866 
	C196.665710,437.163635 184.669937,418.028442 181.150711,394.781281 
	C180.871124,392.934418 181.133118,390.642670 182.025711,389.053040 
	C184.224792,385.136719 184.021011,381.471802 182.125015,377.636963 
	C175.449310,364.134613 175.220367,349.767731 176.579468,335.224121 
	C177.149918,329.119934 177.965637,323.037811 178.719467,316.951813 
	C180.376007,303.577942 187.175644,292.611969 195.039902,282.137207 
	C198.632660,277.351868 202.046387,272.430389 205.698410,267.691681 
	C212.323090,259.095825 221.448334,254.259689 231.781738,252.196579 
	C245.924072,249.373016 260.072906,246.104538 274.694702,246.918762 
	C283.453369,247.406509 291.935852,248.664658 298.859741,254.768677 
	C299.729431,255.535385 300.857635,256.121826 301.467773,257.052826 
	C309.055115,268.629578 320.863831,273.515747 333.452911,276.719574 
	C347.451447,280.282104 361.547058,283.584412 375.752686,286.159882 
	C382.709717,287.421173 390.047211,286.432220 397.141327,287.157745 
	C400.336151,287.484497 403.952759,288.823853 406.350555,290.893890 
	C415.413788,298.718201 423.623871,307.578888 433.006561,314.968140 
	C439.307281,319.930176 446.739868,323.829163 454.217804,326.827606 
	C463.600983,330.589966 473.550293,332.939148 483.250824,335.912659 
	C484.780182,336.381500 486.286255,336.926392 487.803101,337.436066 
	C487.882904,337.912201 487.962708,338.388336 488.042511,338.864471 
	C482.819061,340.516052 477.700958,342.812225 472.350494,343.686371 
	C460.836945,345.567505 451.363068,351.180054 443.120728,358.874115 
	C436.447845,365.103088 430.500305,372.109131 424.052460,379.082031 
z"/>
</svg>