<svg version="1.1" id="Layer_1" xmlns="http://www.w3.org/2000/svg" xmlns:xlink="http://www.w3.org/1999/xlink" x="0px" y="0px"
	 width="100%" viewBox="0 0 752 809" enable-background="new 0 0 752 809" xml:space="preserve">
<path fill="#FEFFFF" opacity="1.000000" stroke="none" 
	d="
M480.000000,810.000000 
	C422.645233,810.000000 365.290466,810.000000 307.393768,809.593140 
	C305.179321,796.692017 302.990051,784.239868 301.968170,771.692505 
	C300.754486,756.790161 300.353210,741.811096 299.946289,726.855896 
	C299.372467,705.767517 298.986511,684.671875 298.754333,663.576782 
	C298.382263,629.769714 298.192261,595.960632 297.948517,562.152222 
	C297.894745,554.696594 298.093628,547.236511 297.910370,539.784973 
	C296.936554,500.190033 295.832367,460.598267 294.868011,421.003082 
	C294.373383,400.694855 294.130493,380.380615 293.667419,360.071533 
	C293.428497,349.592682 293.247894,339.099182 292.530853,328.647308 
	C290.953094,305.649261 291.284790,282.724457 295.425751,260.027924 
	C297.208038,250.259140 300.435486,240.761139 302.811462,231.092209 
	C308.634155,207.396942 314.869995,183.929459 332.489624,165.551834 
	C333.724304,164.264053 335.060852,161.337189 334.447723,160.326202 
	C332.224487,156.660431 330.874817,152.115204 325.676910,150.810165 
	C320.958374,149.625473 317.106842,151.015579 314.496429,154.394547 
	C308.727234,161.862350 302.502930,169.246674 298.271393,177.582428 
	C286.972504,199.840271 282.063232,224.396179 275.766907,248.275223 
	C270.356995,268.792542 268.957977,290.276398 269.219055,311.600464 
	C269.597504,342.509430 271.024933,373.410217 271.098846,404.316650 
	C271.147491,424.645538 272.403534,444.834045 273.822876,465.084686 
	C275.124786,483.659241 274.907288,502.351379 275.044403,520.994019 
	C275.269653,551.613037 275.273285,582.233887 275.305542,612.854065 
	C275.324005,630.351501 275.273895,647.849609 275.129517,665.346375 
	C275.080200,671.323059 274.201263,677.317078 274.472809,683.267944 
	C275.487915,705.513306 277.331573,727.731384 277.886902,749.984070 
	C278.389587,770.126953 279.180481,790.172485 283.000000,810.000000 
	C189.025589,810.000000 95.051186,810.000000 1.038391,810.000000 
	C1.038391,540.432373 1.038391,270.864716 1.038391,1.000000 
	C170.354645,1.000000 339.709473,1.000000 509.929840,1.226587 
	C509.587982,12.909657 513.437866,22.835468 520.144897,32.228489 
	C520.434692,32.656593 520.600586,32.790237 520.745728,33.226875 
	C522.581970,35.049458 524.439026,36.569054 526.514038,38.316765 
	C526.918152,38.642681 527.104309,38.740486 527.318481,39.159794 
	C528.984863,40.412823 530.623230,41.344349 532.457397,42.474068 
	C532.822998,42.747425 532.992798,42.822598 533.177490,43.180614 
	C533.822205,43.769444 534.451904,44.075428 535.294067,44.640575 
	C536.071289,45.255646 536.636108,45.611553 537.292969,46.267643 
	C538.680542,47.442436 539.976135,48.317051 541.427979,49.424065 
	C542.017212,49.996292 542.450256,50.336121 542.923584,50.953339 
	C543.411987,51.511818 543.860046,51.792908 544.500061,52.393299 
	C545.043457,53.061649 545.394958,53.410698 545.665771,54.037453 
	C546.120605,54.758457 546.656250,55.201748 547.354492,55.948677 
	C547.673157,56.420834 547.829163,56.589355 547.876465,57.059330 
	C548.476074,58.618061 549.184387,59.875343 549.881958,61.484192 
	C549.899780,62.538471 549.928467,63.241192 549.658325,64.074600 
	C546.298767,68.173058 543.237915,72.140831 539.912537,76.237213 
	C539.511902,76.507019 539.375793,76.648224 538.965454,76.697433 
	C538.228760,77.127670 537.766235,77.649887 537.017578,78.306610 
	C536.575684,78.583099 536.419922,78.725082 535.976807,78.764709 
	C535.022827,79.356934 534.356262,80.051514 533.507690,80.828011 
	C533.325745,80.909927 533.074768,81.220230 532.755859,81.185646 
	C531.746338,81.825600 531.055603,82.500145 530.070129,83.350327 
	C527.927124,84.960403 526.078857,86.394836 523.909485,87.727631 
	C522.001892,89.170959 520.415405,90.715919 518.618530,92.487350 
	C518.325073,92.902527 518.242188,93.091248 517.853699,93.329651 
	C517.084961,95.244148 516.621704,97.108963 516.069946,99.375587 
	C516.070251,100.863434 516.159119,101.949471 516.033447,103.251404 
	C517.256470,106.238029 518.694031,109.008759 520.274414,112.051147 
	C520.565247,112.464050 520.713318,112.605301 520.772949,113.051193 
	C523.180786,115.802414 525.677002,118.248978 528.315369,121.066612 
	C528.722656,121.895729 528.987732,122.353775 529.080688,123.039864 
	C529.252197,123.870522 529.595764,124.473152 529.932617,125.446640 
	C529.960205,126.558388 529.994629,127.299286 529.737915,128.161270 
	C528.375549,130.509476 527.304382,132.736572 526.097229,135.370026 
	C526.021301,137.190353 526.081299,138.604355 525.944702,140.159454 
	C526.139221,140.901001 526.530396,141.501450 527.017334,142.411438 
	C527.367859,143.067322 527.622559,143.413651 527.798889,144.213348 
	C527.766479,146.197205 527.812439,147.727692 527.640015,149.469360 
	C527.321960,149.856873 527.222290,150.033203 526.795166,150.253021 
	C522.557129,156.682846 520.490112,163.451355 522.106689,171.425598 
	C522.103149,173.580246 522.169373,175.307190 522.018066,177.267151 
	C522.168884,179.039154 522.537292,180.578171 522.911987,182.447556 
	C523.039612,183.199600 523.160828,183.621262 523.070801,184.265869 
	C523.553162,186.684387 524.246643,188.879929 524.934692,191.407074 
	C525.023926,192.169159 525.118591,192.599655 524.997314,193.356354 
	C523.767944,199.535980 522.754578,205.389374 521.499512,211.471252 
	C520.894409,212.254944 520.531128,212.810135 519.877869,213.366486 
	C519.313110,213.995193 519.038269,214.622726 518.498230,215.493912 
	C517.232300,216.769119 516.231628,217.800674 514.888062,218.737152 
	C501.963776,225.239395 488.651672,228.065659 474.435211,226.785614 
	C471.969482,226.563599 469.399597,227.497940 466.454926,227.864929 
	C464.344086,227.960922 462.656189,228.090179 460.698364,228.003632 
	C457.011047,228.363220 453.536011,228.714462 450.191589,229.573990 
	C446.494263,230.524246 442.916626,231.940002 438.953247,233.274780 
	C437.825989,233.902618 437.032349,234.408691 435.974304,234.799988 
	C435.209930,235.166489 434.709991,235.647720 433.936829,236.237335 
	C433.518738,236.477722 433.373932,236.609741 432.917847,236.655914 
	C431.513885,237.441223 430.421204,238.312393 429.029633,239.321671 
	C428.567566,239.606537 428.404358,239.753296 427.979980,239.790726 
	C427.274200,240.181091 426.829529,240.680756 426.089417,241.339630 
	C425.276428,241.921188 424.758911,242.343552 423.928558,242.689316 
	C419.408844,245.232468 417.509979,249.169601 417.034607,254.347672 
	C416.992615,255.486786 417.046906,256.252411 416.862152,257.343475 
	C416.294067,278.785156 422.283386,298.979065 426.062347,319.462524 
	C427.000702,324.548706 431.330048,329.009277 434.269958,334.050354 
	C434.909393,334.823730 435.379608,335.304199 435.777588,336.090393 
	C437.841553,338.502686 439.977783,340.609253 442.298157,343.004089 
	C444.581940,345.458191 446.681519,347.624054 448.722351,350.101318 
	C451.847961,353.352814 455.032379,356.292877 458.408203,359.510010 
	C459.463379,360.497284 460.327118,361.207489 461.237366,362.243195 
	C463.928528,364.781677 466.573212,366.994690 469.415161,369.434723 
	C469.794861,369.744995 469.977295,369.828247 470.201660,370.217468 
	C471.236053,371.077759 472.228516,371.632141 473.419525,372.451355 
	C474.142548,373.116913 474.666992,373.517609 475.215851,374.228760 
	C476.228729,375.123505 477.217163,375.707764 478.417267,376.549011 
	C479.187683,377.162964 479.746399,377.519958 480.349854,378.194855 
	C486.789368,380.544617 493.060059,383.257812 499.607697,384.450104 
	C509.669830,386.282349 519.902771,387.292297 530.104126,388.183350 
	C533.828003,388.508606 537.736572,386.839630 541.443115,387.222015 
	C551.487549,388.258209 561.478699,389.840424 571.473328,391.324860 
	C594.667236,394.769775 617.793091,398.555450 639.810852,407.083496 
	C645.655151,409.347137 651.401917,411.862213 657.412231,414.468872 
	C657.818115,414.748932 658.005249,414.821930 658.237610,415.177979 
	C658.923706,415.704468 659.564514,415.947906 660.417603,416.413696 
	C660.815125,416.723877 661.000305,416.811707 661.234253,417.218536 
	C662.535095,418.328552 663.787231,419.119598 665.216064,420.185577 
	C667.033630,421.933105 668.674316,423.405731 670.344971,425.202698 
	C672.625977,427.573364 674.877136,429.619659 677.323364,431.949158 
	C679.258179,434.088135 680.997986,435.943848 682.679443,438.094543 
	C683.457520,439.148865 684.294006,439.908264 685.305054,440.962860 
	C686.552429,442.441986 687.625244,443.625916 688.634399,445.088074 
	C689.091309,445.825470 689.611877,446.284698 690.291260,447.039307 
	C690.614746,447.485962 690.779419,447.637207 690.853271,448.072845 
	C691.542297,449.176208 692.322266,449.995148 693.236328,451.093170 
	C693.521729,451.512665 693.673035,451.653107 693.746399,452.105835 
	C698.049805,458.838531 703.342407,464.825378 706.642090,471.760406 
	C716.588867,492.665619 720.087036,515.506592 724.620911,537.935425 
	C728.859497,558.903015 730.268921,580.414185 738.627869,600.539001 
	C743.135010,611.390259 746.208862,622.836914 749.912842,634.456909 
	C750.220032,635.356140 750.543884,635.813354 750.671082,636.304321 
	C750.627563,636.921204 750.780640,637.504456 750.869263,638.478271 
	C751.039795,639.579407 751.274780,640.289978 751.405273,641.275879 
	C751.867188,644.034119 752.433594,646.517090 753.000000,649.000000 
	C753.000000,702.589111 753.000000,756.178223 753.000000,810.000000 
	C706.312134,810.000000 659.623901,810.000000 612.056152,809.699585 
	C611.146118,803.250122 611.269348,797.094299 610.997559,790.955994 
	C610.908752,788.949585 609.792175,786.988708 609.145630,785.007019 
	C608.356750,785.002319 607.567871,784.997559 606.778931,784.992798 
	C606.152954,787.452942 605.187683,789.883301 604.969055,792.379150 
	C604.456055,798.236084 604.300354,804.124390 604.000000,810.000000 
	C570.978577,810.000000 537.957153,810.000000 504.321167,809.628235 
	C503.509216,808.620789 503.258392,807.996277 503.122040,807.347778 
	C498.600128,785.840698 487.495056,768.048279 472.463104,752.364563 
	C462.447357,741.914429 449.813904,735.620300 437.176544,729.257996 
	C430.286713,725.789246 423.224762,724.617432 415.443817,726.068054 
	C396.689026,729.564697 379.994995,737.046875 365.733063,749.843079 
	C362.577972,752.673950 359.081696,755.124573 354.823608,758.472839 
	C354.823608,755.580566 354.842743,753.830505 354.820648,752.080933 
	C354.538818,729.774292 354.251678,707.467773 353.964813,685.161194 
	C353.562714,653.899414 353.287628,622.635315 352.707428,591.376831 
	C352.377289,573.590210 351.273865,555.816956 351.000824,538.030334 
	C350.451202,502.226959 350.206848,466.418823 349.886230,430.612213 
	C349.734070,413.617035 350.071869,396.608734 349.523468,379.627838 
	C348.562958,349.884796 346.533539,320.166290 346.107666,290.420959 
	C345.938324,278.593903 348.281128,266.616089 350.498474,254.899567 
	C353.107086,241.115524 361.131683,229.557007 367.693085,217.422333 
	C371.398529,210.569443 376.148438,204.889664 382.180603,199.912552 
	C387.790192,195.284134 392.705353,189.784561 397.721313,184.474915 
	C402.326691,179.599945 402.743134,173.056702 399.038757,169.117996 
	C395.439606,165.291153 389.952545,165.173187 384.473145,168.996994 
	C382.164856,170.607819 379.866516,172.336227 377.933472,174.363770 
	C368.919098,183.818741 357.042877,190.583557 351.001892,202.833481 
	C344.025787,216.979721 335.274109,230.567291 330.535095,245.431000 
	C321.799103,272.831177 322.458954,301.575256 323.440399,330.046173 
	C324.345093,356.290344 326.319000,382.502441 326.960388,408.749695 
	C327.790283,442.711334 327.610016,476.696381 328.157959,510.666626 
	C328.587250,537.280457 329.537323,563.885681 330.083282,590.498230 
	C330.209106,596.632996 329.282440,602.791931 329.452820,608.922668 
	C329.725006,618.718384 330.737793,628.492981 331.027985,638.288696 
	C331.535614,655.425781 331.830627,672.570801 332.029602,689.714722 
	C332.197815,704.208862 331.858032,718.711670 332.191986,733.200317 
	C332.559601,749.148010 333.348297,765.088440 334.147644,781.022339 
	C334.420929,786.469666 338.358490,789.275391 343.070251,790.571350 
	C346.530762,791.523132 350.255615,791.550110 353.871948,791.890198 
	C358.576752,792.332581 361.639526,790.252991 363.866730,786.035889 
	C366.168884,781.676941 368.443573,776.931763 371.943115,773.648010 
	C381.668884,764.521973 392.435608,756.761719 405.216278,752.171814 
	C415.474091,748.487854 425.425201,746.842346 435.101471,753.830017 
	C441.398376,758.377441 448.435974,762.022095 454.244293,767.098022 
	C467.343048,778.545288 475.798889,793.066284 480.000000,810.000000 
M351.880951,160.344193 
	C350.787201,159.264374 349.693451,158.184555 348.599701,157.104736 
	C347.737335,158.446976 346.400818,159.713364 346.169891,161.156631 
	C345.999847,162.219193 347.275208,163.513031 347.906525,164.703812 
	C349.194183,163.506454 350.481842,162.309097 351.880951,160.344193 
z"/>
<path fill="#FEFFFF" opacity="1.000000" stroke="none" 
	d="
M515.000000,1.000000 
	C594.293396,1.000000 673.586792,1.000000 753.000000,1.000000 
	C753.000000,206.356628 753.000000,411.713287 752.697510,617.905945 
	C751.593445,617.610840 750.489746,616.588074 750.039124,615.331177 
	C746.905762,606.590515 743.758545,597.849426 740.912048,589.013000 
	C738.444458,581.352783 736.366882,573.566956 734.125122,565.515015 
	C734.018982,564.782410 733.904663,564.371460 733.990967,563.718994 
	C733.835022,561.929382 733.478455,560.381348 733.153931,558.444580 
	C733.067993,557.026917 732.950195,555.997864 733.043091,554.760559 
	C732.878601,553.309387 732.503418,552.066528 732.142578,550.506104 
	C732.047058,549.781494 731.937134,549.374512 732.030273,548.697449 
	C731.540466,545.547974 730.847534,542.668640 730.171936,539.481201 
	C730.089417,538.776306 729.989563,538.379517 730.096191,537.692139 
	C726.024231,519.055969 722.093384,500.618286 717.278503,482.414459 
	C715.597351,476.058746 711.736084,470.279755 708.771851,463.942505 
	C708.532715,463.495361 708.392090,463.343079 708.340576,462.916016 
	C707.917542,462.158997 707.405457,461.676819 706.768555,460.910889 
	C706.495300,460.483521 706.346680,460.339905 706.286133,459.929321 
	C705.875916,459.204468 705.377686,458.746613 704.728760,457.984497 
	C704.114929,457.190796 703.651733,456.701416 703.255493,455.921997 
	C702.500061,454.880951 701.677551,454.129944 700.676636,453.081360 
	C699.732910,451.922272 698.967651,451.060791 698.286987,449.931641 
	C697.863037,449.211121 697.354431,448.758179 696.695374,447.998077 
	C696.382812,447.530609 696.220581,447.370361 696.153931,446.927185 
	C695.459106,445.839050 694.668762,445.033936 693.729980,443.940308 
	C693.423218,443.504456 693.264893,443.357117 693.193237,442.924255 
	C692.476746,441.868011 691.673645,441.097321 690.692627,440.032593 
	C689.431152,438.559479 688.347656,437.380432 687.323730,435.896729 
	C686.214600,434.498047 685.045898,433.403961 683.701721,432.015015 
	C678.908447,427.188324 674.290649,422.656494 669.661011,417.806335 
	C668.364136,416.564026 667.079041,415.640015 665.573730,414.461090 
	C664.783997,413.850250 664.214478,413.494293 663.628052,412.860657 
	C663.004517,412.350403 662.397888,412.117798 661.545654,411.655365 
	C661.094238,411.336243 660.888489,411.246948 660.619812,410.846741 
	C659.901184,410.038513 659.296997,409.446564 658.582336,409.057800 
	C641.434570,399.730621 622.747742,394.990936 603.886536,390.791290 
	C603.328003,390.666901 602.657471,391.045868 601.736816,391.076477 
	C601.006592,390.938873 600.578674,390.915009 600.036377,390.637695 
	C598.621460,390.282104 597.320984,390.179962 595.705078,389.957581 
	C594.350159,389.524597 593.310730,389.211823 592.595581,388.760620 
	C594.889038,388.224304 596.887512,387.384705 598.821472,387.513580 
	C604.024353,387.860291 609.199768,388.620453 614.386047,389.216492 
	C614.507019,388.560944 614.627991,387.905426 614.748962,387.249908 
	C613.666382,386.836609 612.610168,386.326050 611.497314,386.024475 
	C592.355469,380.837219 572.478516,382.895905 553.079041,380.190552 
	C552.398132,380.095551 551.559692,381.130432 550.539856,381.626160 
	C549.865173,381.785248 549.445251,381.956909 548.777222,381.993439 
	C548.160217,381.794220 547.791443,381.730133 547.258911,381.373779 
	C545.786255,380.909546 544.477417,380.737549 542.958191,380.191528 
	C538.776245,378.803223 534.780518,377.686523 531.904541,382.492310 
	C531.109619,382.819977 530.544739,382.967468 529.647949,382.901062 
	C523.222473,382.182373 517.129028,381.677551 510.672424,381.072083 
	C509.558990,380.967346 508.808624,380.963226 507.873108,380.668182 
	C499.724243,378.542206 491.760468,376.707184 483.550720,374.645386 
	C483.099823,374.330688 482.894867,374.242676 482.659180,373.851990 
	C481.677155,373.006683 480.725830,372.464111 479.557556,371.678223 
	C479.150513,371.329498 478.960388,371.224152 478.735291,370.800262 
	C477.395447,369.583252 476.090637,368.684784 474.583099,367.563843 
	C474.197723,367.258392 474.015106,367.175323 473.789246,366.786377 
	C472.757812,365.918945 471.769562,365.357422 470.566711,364.518127 
	C468.501831,362.528687 466.651581,360.817108 464.760376,358.783081 
	C463.075623,357.206848 461.431854,355.953003 459.578644,354.411072 
	C457.632721,352.486572 455.896240,350.850189 454.233459,348.908386 
	C451.826904,346.182831 449.346680,343.762726 446.698944,341.051025 
	C445.006104,339.177887 443.480743,337.596283 441.933807,335.674225 
	C440.236176,333.628540 438.560150,331.923340 436.730072,329.929932 
	C436.415253,329.494720 436.254486,329.347687 436.169983,328.862671 
	C434.007965,322.513306 431.155334,316.648163 429.680817,310.454895 
	C427.659302,301.964355 426.802246,293.202850 425.206573,284.601868 
	C424.469147,280.626892 423.164734,276.757111 422.144226,272.525848 
	C422.083405,271.803223 421.995728,271.394348 422.138123,270.657959 
	C422.507874,264.885437 422.647583,259.440460 422.870087,253.676788 
	C422.980042,252.920609 423.007233,252.483093 423.329285,251.914185 
	C424.994293,249.804123 426.364441,247.825485 428.019592,245.707245 
	C428.454163,245.417984 428.603699,245.268326 429.018921,245.211349 
	C429.732117,244.802216 430.179626,244.300415 430.934814,243.653046 
	C431.415436,243.360535 431.588348,243.213593 432.021973,243.180191 
	C432.761169,242.808136 433.239655,242.322540 434.006195,241.706696 
	C434.450409,241.434921 434.606598,241.293396 435.069366,241.242661 
	C436.457947,240.487076 437.539917,239.640671 438.931580,238.660645 
	C439.415894,238.385300 439.590485,238.243607 440.115845,238.191772 
	C443.034363,237.234665 445.602142,236.187683 448.534058,235.138885 
	C449.611603,235.002197 450.325012,234.867310 451.208191,234.940491 
	C452.304352,234.809174 453.230713,234.469772 454.478149,234.125061 
	C455.210083,234.005142 455.620911,233.890533 456.243195,233.977112 
	C457.656372,233.801224 458.858093,233.424149 460.396149,233.046692 
	C461.167725,232.943604 461.602997,232.840927 462.348053,232.960297 
	C465.819397,232.828079 468.980957,232.473831 472.591614,232.143402 
	C476.648010,232.149139 480.255310,232.131042 484.006836,232.377914 
	C485.795990,232.451797 487.440887,232.260712 489.498352,232.101379 
	C491.282898,232.026123 492.654816,231.919128 494.265503,232.029282 
	C500.229553,230.110413 505.954865,227.974396 512.011963,225.710205 
	C513.152649,225.094116 513.961548,224.606201 515.078247,224.231964 
	C516.547729,223.536545 517.709473,222.727432 519.155396,221.776535 
	C520.245911,220.659439 521.052246,219.684113 522.150269,218.689850 
	C522.726746,218.033630 523.011536,217.396332 523.537354,216.541321 
	C524.138306,215.785431 524.498291,215.247223 525.150330,214.694397 
	C525.693237,214.036621 525.944092,213.393478 526.398315,212.510452 
	C526.674988,212.074051 526.748169,211.877548 527.137573,211.618286 
	C528.226379,208.383240 528.998901,205.210938 529.881592,201.724884 
	C530.018372,200.970505 530.044983,200.529892 530.325562,199.972733 
	C530.410889,198.540970 530.242065,197.225739 530.104004,195.541321 
	C530.035706,194.440689 529.936646,193.709244 530.041138,192.761871 
	C529.869507,191.315475 529.494446,190.084976 529.119141,188.531738 
	C529.007507,187.795593 528.896118,187.382172 528.988037,186.730331 
	C528.484375,184.298752 527.777344,182.105606 527.081787,179.519440 
	C526.983826,178.085602 526.874390,177.044800 526.997803,175.710159 
	C527.083496,172.952942 526.936279,170.489548 526.854370,167.620850 
	C526.977783,165.848831 527.036011,164.482132 527.385010,162.962967 
	C528.314941,160.230423 528.954102,157.650360 529.779480,154.785141 
	C530.591492,153.554474 531.217285,152.608978 532.168579,151.625488 
	C534.733032,148.025330 535.405273,144.568008 531.686829,141.089279 
	C531.267517,140.188690 530.973511,139.594925 530.899048,138.733673 
	C531.466614,136.888504 531.814575,135.310852 532.380005,133.523041 
	C532.687378,133.132507 532.777344,132.952118 533.202881,132.707916 
	C533.955566,129.354736 535.192932,125.912987 534.616333,122.808151 
	C533.471313,116.642914 528.840515,112.667717 523.714355,108.876694 
	C522.953186,107.417824 522.343018,106.308754 521.883667,104.838730 
	C520.197632,99.984734 522.489136,96.409508 524.937622,92.668900 
	C525.418518,92.397400 525.592346,92.257919 526.068848,92.230759 
	C527.452087,91.501907 528.532593,90.660728 529.900269,89.638992 
	C531.377686,88.415489 532.567932,87.372551 534.037964,86.413757 
	C534.847839,85.993263 535.377930,85.488640 536.060547,84.884750 
	C536.213013,84.785477 536.105652,84.437744 536.419800,84.295624 
	C537.078491,83.851624 537.422913,83.549759 538.046875,83.348007 
	C538.829224,82.930946 539.332214,82.413757 540.098877,81.782166 
	C540.496887,81.530922 540.631104,81.394081 541.045105,81.340347 
	C541.798157,80.899597 542.271423,80.375740 543.023499,79.705872 
	C543.451538,79.412209 543.600708,79.264565 544.057129,79.214211 
	C546.952148,76.118332 549.539856,72.925171 552.347900,69.504173 
	C552.656372,69.084404 552.744629,68.892464 553.161011,68.637939 
	C556.552551,62.571774 555.623108,57.161594 550.709839,52.814339 
	C550.599609,52.590183 550.218262,52.267467 550.299072,51.953133 
	C547.221497,48.669186 544.063171,45.699581 540.725708,42.488564 
	C540.363647,42.165108 540.180786,42.083054 539.883118,41.697029 
	C537.745850,40.247723 535.723450,39.102390 533.467163,37.725334 
	C533.039246,37.390961 532.845276,37.288315 532.640991,36.895836 
	C531.999817,36.375057 531.368896,36.144108 530.495728,35.686020 
	C530.055176,35.360390 529.856873,35.261902 529.636597,34.837143 
	C519.822815,25.486391 517.007385,13.419395 515.000000,1.000000 
z"/>
<path fill="#6BC1FF" opacity="1.000000" stroke="none" 
	d="
M480.468628,810.000000 
	C475.798889,793.066284 467.343048,778.545288 454.244293,767.098022 
	C448.435974,762.022095 441.398376,758.377441 435.101471,753.830017 
	C425.425201,746.842346 415.474091,748.487854 405.216278,752.171814 
	C392.435608,756.761719 381.668884,764.521973 371.943115,773.648010 
	C368.443573,776.931763 366.168884,781.676941 363.866730,786.035889 
	C361.639526,790.252991 358.576752,792.332581 353.871948,791.890198 
	C350.255615,791.550110 346.530762,791.523132 343.070251,790.571350 
	C338.358490,789.275391 334.420929,786.469666 334.147644,781.022339 
	C333.348297,765.088440 332.559601,749.148010 332.191986,733.200317 
	C331.858032,718.711670 332.197815,704.208862 332.029602,689.714722 
	C331.830627,672.570801 331.535614,655.425781 331.027985,638.288696 
	C330.737793,628.492981 329.725006,618.718384 329.452820,608.922668 
	C329.282440,602.791931 330.209106,596.632996 330.083282,590.498230 
	C329.537323,563.885681 328.587250,537.280457 328.157959,510.666626 
	C327.610016,476.696381 327.790283,442.711334 326.960388,408.749695 
	C326.319000,382.502441 324.345093,356.290344 323.440399,330.046173 
	C322.458954,301.575256 321.799103,272.831177 330.535095,245.431000 
	C335.274109,230.567291 344.025787,216.979721 351.001892,202.833481 
	C357.042877,190.583557 368.919098,183.818741 377.933472,174.363770 
	C379.866516,172.336227 382.164856,170.607819 384.473145,168.996994 
	C389.952545,165.173187 395.439606,165.291153 399.038757,169.117996 
	C402.743134,173.056702 402.326691,179.599945 397.721313,184.474915 
	C392.705353,189.784561 387.790192,195.284134 382.180603,199.912552 
	C376.148438,204.889664 371.398529,210.569443 367.693085,217.422333 
	C361.131683,229.557007 353.107086,241.115524 350.498474,254.899567 
	C348.281128,266.616089 345.938324,278.593903 346.107666,290.420959 
	C346.533539,320.166290 348.562958,349.884796 349.523468,379.627838 
	C350.071869,396.608734 349.734070,413.617035 349.886230,430.612213 
	C350.206848,466.418823 350.451202,502.226959 351.000824,538.030334 
	C351.273865,555.816956 352.377289,573.590210 352.707428,591.376831 
	C353.287628,622.635315 353.562714,653.899414 353.964813,685.161194 
	C354.251678,707.467773 354.538818,729.774292 354.820648,752.080933 
	C354.842743,753.830505 354.823608,755.580566 354.823608,758.472839 
	C359.081696,755.124573 362.577972,752.673950 365.733063,749.843079 
	C379.994995,737.046875 396.689026,729.564697 415.443817,726.068054 
	C423.224762,724.617432 430.286713,725.789246 437.176544,729.257996 
	C449.813904,735.620300 462.447357,741.914429 472.463104,752.364563 
	C487.495056,768.048279 498.600128,785.840698 503.122040,807.347778 
	C503.258392,807.996277 503.509216,808.620789 503.853333,809.628235 
	C496.312408,810.000000 488.624847,810.000000 480.468628,810.000000 
z"/>
<path fill="#6BC1FF" opacity="1.000000" stroke="none" 
	d="
M283.468628,810.000000 
	C279.180481,790.172485 278.389587,770.126953 277.886902,749.984070 
	C277.331573,727.731384 275.487915,705.513306 274.472809,683.267944 
	C274.201263,677.317078 275.080200,671.323059 275.129517,665.346375 
	C275.273895,647.849609 275.324005,630.351501 275.305542,612.854065 
	C275.273285,582.233887 275.269653,551.613037 275.044403,520.994019 
	C274.907288,502.351379 275.124786,483.659241 273.822876,465.084686 
	C272.403534,444.834045 271.147491,424.645538 271.098846,404.316650 
	C271.024933,373.410217 269.597504,342.509430 269.219055,311.600464 
	C268.957977,290.276398 270.356995,268.792542 275.766907,248.275223 
	C282.063232,224.396179 286.972504,199.840271 298.271393,177.582428 
	C302.502930,169.246674 308.727234,161.862350 314.496429,154.394547 
	C317.106842,151.015579 320.958374,149.625473 325.676910,150.810165 
	C330.874817,152.115204 332.224487,156.660431 334.447723,160.326202 
	C335.060852,161.337189 333.724304,164.264053 332.489624,165.551834 
	C314.869995,183.929459 308.634155,207.396942 302.811462,231.092209 
	C300.435486,240.761139 297.208038,250.259140 295.425751,260.027924 
	C291.284790,282.724457 290.953094,305.649261 292.530853,328.647308 
	C293.247894,339.099182 293.428497,349.592682 293.667419,360.071533 
	C294.130493,380.380615 294.373383,400.694855 294.868011,421.003082 
	C295.832367,460.598267 296.936554,500.190033 297.910370,539.784973 
	C298.093628,547.236511 297.894745,554.696594 297.948517,562.152222 
	C298.192261,595.960632 298.382263,629.769714 298.754333,663.576782 
	C298.986511,684.671875 299.372467,705.767517 299.946289,726.855896 
	C300.353210,741.811096 300.754486,756.790161 301.968170,771.692505 
	C302.990051,784.239868 305.179321,796.692017 306.925903,809.593140 
	C299.312408,810.000000 291.624847,810.000000 283.468628,810.000000 
z"/>
<path fill="#3B3B3B" opacity="1.000000" stroke="none" 
	d="
M731.827209,548.967529 
	C731.937134,549.374512 732.047058,549.781494 732.024902,550.867737 
	C732.205994,552.687622 732.519165,553.828247 732.832397,554.968872 
	C732.950195,555.997864 733.067993,557.026917 733.027954,558.823242 
	C733.176819,561.047180 733.483582,562.503906 733.790405,563.960571 
	C733.904663,564.371460 734.018982,564.782410 734.014893,565.930420 
	C734.525757,569.907654 734.852722,573.242676 735.834778,576.372192 
	C741.139099,593.276245 746.605652,610.129333 752.027344,627.330383 
	C752.359009,628.440491 752.679504,629.220276 753.000000,630.000000 
	C753.000000,633.361877 753.000000,636.723694 752.750366,640.570679 
	C752.170471,641.037354 751.840088,641.018982 751.509766,641.000610 
	C751.274780,640.289978 751.039795,639.579407 750.981812,638.256226 
	C751.179077,637.479797 751.249329,637.302429 751.209229,637.155090 
	C751.126648,636.851746 750.984985,636.564514 750.867676,636.270630 
	C750.543884,635.813354 750.220032,635.356140 750.179199,634.226562 
	C750.302185,632.286255 750.341492,630.953064 749.951416,629.760254 
	C745.926514,617.451782 742.161011,605.044739 737.681519,592.901855 
	C730.653137,573.849365 729.658325,553.678955 726.359009,533.998291 
	C727.130676,533.998535 727.571594,533.998413 728.244995,534.228516 
	C728.948181,535.633362 729.419006,536.807983 729.889771,537.982666 
	C729.989563,538.379517 730.089417,538.776306 730.049805,539.887451 
	C730.549255,543.390442 731.188232,546.178955 731.827209,548.967529 
z"/>
<path fill="#323232" opacity="1.000000" stroke="none" 
	d="
M604.444153,810.000000 
	C604.300354,804.124390 604.456055,798.236084 604.969055,792.379150 
	C605.187683,789.883301 606.152954,787.452942 606.778931,784.992798 
	C607.567871,784.997559 608.356750,785.002319 609.145630,785.007019 
	C609.792175,786.988708 610.908752,788.949585 610.997559,790.955994 
	C611.269348,797.094299 611.146118,803.250122 611.588318,809.699585 
	C609.629456,810.000000 607.258850,810.000000 604.444153,810.000000 
z"/>
<path fill="#6F6F6F" opacity="1.000000" stroke="none" 
	d="
M514.583374,1.000000 
	C517.007385,13.419395 519.822815,25.486391 529.340576,34.886616 
	C528.678894,35.158356 528.291382,35.054348 527.662109,34.733131 
	C520.487061,27.096720 517.513794,17.812975 514.964233,8.300759 
	C514.544373,6.734195 513.526794,5.327828 512.785461,3.847423 
	C512.262939,4.058194 511.740387,4.268965 511.217865,4.479736 
	C511.337311,5.710875 511.221466,7.023265 511.614044,8.160097 
	C514.357422,16.105078 517.206055,24.013741 520.020935,31.934032 
	C513.437866,22.835468 509.587982,12.909657 510.397705,1.226587 
	C511.388885,1.000000 512.777771,1.000000 514.583374,1.000000 
z"/>
<path fill="#6F6F6F" opacity="1.000000" stroke="none" 
	d="
M752.016235,627.000000 
	C746.605652,610.129333 741.139099,593.276245 735.834778,576.372192 
	C734.852722,573.242676 734.525757,569.907654 734.006714,566.252075 
	C736.366882,573.566956 738.444458,581.352783 740.912048,589.013000 
	C743.758545,597.849426 746.905762,606.590515 750.039124,615.331177 
	C750.489746,616.588074 751.593445,617.610840 752.697510,618.370972 
	C753.000000,618.444458 753.000000,618.888916 752.627136,619.552856 
	C752.502808,620.181519 752.751404,620.590759 753.000000,621.000000 
	C753.000000,622.714355 753.000000,624.428711 752.754028,626.571533 
	C752.508118,627.000000 752.016235,627.000000 752.016235,627.000000 
z"/>
<path fill="#6F6F6F" opacity="1.000000" stroke="none" 
	d="
M751.405273,641.275879 
	C751.840088,641.018982 752.170471,641.037354 752.750366,641.027893 
	C753.000000,643.370544 753.000000,645.741150 753.000000,648.555847 
	C752.433594,646.517090 751.867188,644.034119 751.405273,641.275879 
z"/>
<path fill="#6F6F6F" opacity="1.000000" stroke="none" 
	d="
M752.027344,627.330383 
	C752.016235,627.000000 752.508118,627.000000 752.754028,627.000000 
	C753.000000,627.750000 753.000000,628.500000 753.000000,629.625000 
	C752.679504,629.220276 752.359009,628.440491 752.027344,627.330383 
z"/>
<path fill="#FEFFFF" opacity="1.000000" stroke="none" 
	d="
M753.000000,620.750000 
	C752.751404,620.590759 752.502808,620.181519 752.627136,619.886108 
	C753.000000,620.000000 753.000000,620.500000 753.000000,620.750000 
z"/>
<path fill="#393939" opacity="1.000000" stroke="none" 
	d="
M728.012573,533.998291 
	C727.571594,533.998413 727.130676,533.998535 726.276978,533.606689 
	C721.611145,516.474426 717.740051,499.624542 712.977051,483.030670 
	C709.526245,471.008301 703.780762,460.012604 693.824402,451.793549 
	C693.673035,451.653107 693.521729,451.512665 693.257812,450.802429 
	C692.411438,449.417877 691.677734,448.603149 690.944092,447.788422 
	C690.779419,447.637207 690.614746,447.485962 690.308350,446.767944 
	C689.677124,445.737396 689.187622,445.273621 688.698120,444.809875 
	C687.625244,443.625916 686.552429,442.441986 685.305176,440.671997 
	C684.333008,439.323822 683.535400,438.561707 682.737793,437.799591 
	C680.997986,435.943848 679.258179,434.088135 677.303589,431.618744 
	C674.830872,428.962830 672.572998,426.920563 670.315063,424.878326 
	C668.674316,423.405731 667.033630,421.933105 665.136597,419.867981 
	C663.648804,418.483490 662.417175,417.691498 661.185547,416.899536 
	C661.000305,416.811707 660.815125,416.723877 660.343384,416.155151 
	C659.435364,415.414459 658.813843,415.154724 658.192322,414.894958 
	C658.005249,414.821930 657.818115,414.748932 657.297852,414.170410 
	C650.644104,410.763763 644.475220,407.455048 637.974792,405.037750 
	C618.282349,397.714813 597.723450,393.903595 577.020325,390.830658 
	C565.079285,389.058319 553.139282,387.223328 541.146240,385.888672 
	C537.285645,385.459045 533.246643,386.952911 529.307556,386.852081 
	C512.523621,386.422363 496.107361,383.770355 480.305145,377.876953 
	C479.746399,377.519958 479.187683,377.162964 478.354736,376.259399 
	C477.117462,375.114685 476.154449,374.516510 475.191406,373.918335 
	C474.666992,373.517609 474.142548,373.116913 473.352173,372.165039 
	C472.110718,371.046417 471.135223,370.478973 470.159729,369.911530 
	C469.977295,369.828247 469.794861,369.744995 469.343597,369.136536 
	C466.446777,366.380127 463.818787,364.148926 461.190826,361.917725 
	C460.327118,361.207489 459.463379,360.497284 458.339935,359.209198 
	C454.980530,355.684174 451.880829,352.737030 448.781128,349.789886 
	C446.681519,347.624054 444.581940,345.458191 442.283569,342.673523 
	C440.006470,339.964661 437.928162,337.874664 435.849823,335.784668 
	C435.379608,335.304199 434.909393,334.823730 434.258118,333.705383 
	C431.292755,326.740662 427.197784,320.655701 425.976959,314.040344 
	C422.686890,296.212097 420.631042,278.156433 418.049408,260.196198 
	C417.893799,259.113739 417.424530,258.076385 417.101227,257.018036 
	C417.046906,256.252411 416.992615,255.486786 417.286072,254.194855 
	C418.112854,252.863831 418.591858,252.059128 419.288635,251.473053 
	C420.332092,252.424316 421.157745,253.156937 421.957489,254.318817 
	C421.923737,260.160553 421.915863,265.573029 421.908020,270.985504 
	C421.995728,271.394348 422.083405,271.803223 422.023499,272.943481 
	C421.933533,274.665619 421.891205,275.674225 422.064087,276.644440 
	C424.033539,287.699768 425.521698,298.876740 428.218842,309.753326 
	C429.885315,316.473480 433.405640,322.733856 436.093719,329.200653 
	C436.254486,329.347687 436.415253,329.494720 436.736359,330.264954 
	C438.582947,332.597015 440.269165,334.305878 441.955414,336.014709 
	C443.480743,337.596283 445.006104,339.177887 446.716492,341.381256 
	C449.320953,344.406647 451.740387,346.810211 454.159790,349.213806 
	C455.896240,350.850189 457.632721,352.486572 459.634583,354.715057 
	C461.533752,356.573273 463.167542,357.839386 464.801331,359.105499 
	C466.651581,360.817108 468.501831,362.528687 470.632263,364.806091 
	C471.885803,365.945343 472.859131,366.518799 473.832458,367.092285 
	C474.015106,367.175323 474.197723,367.258392 474.654236,367.853638 
	C476.208832,369.283478 477.489563,370.201111 478.770294,371.118774 
	C478.960388,371.224152 479.150513,371.329498 479.628479,371.949646 
	C480.840912,373.027863 481.765442,373.591278 482.689941,374.154694 
	C482.894867,374.242676 483.099823,374.330688 483.688477,374.942688 
	C492.067535,377.297516 500.062897,379.128326 508.058258,380.959106 
	C508.808624,380.963226 509.558990,380.967346 510.921234,381.357971 
	C513.587341,382.203339 515.626770,382.953827 517.699036,383.059235 
	C521.783020,383.266998 525.885193,383.117004 529.979858,383.114960 
	C530.544739,382.967468 531.109619,382.819977 532.245544,382.596680 
	C536.074463,382.222534 539.332336,381.924225 543.062866,381.760132 
	C544.831299,381.818237 546.126953,381.742157 547.422668,381.666046 
	C547.791443,381.730133 548.160217,381.794220 548.937744,382.278198 
	C549.968323,382.741364 550.590271,382.784637 551.581543,382.861755 
	C553.641174,383.311890 555.331421,383.728180 557.230652,384.410553 
	C558.085815,384.663910 558.731873,384.651154 559.747192,384.663208 
	C561.087341,384.858490 562.058228,385.028961 563.184082,385.434631 
	C564.197571,385.611694 565.056091,385.553528 566.283142,385.476349 
	C568.113464,385.717560 569.575317,385.977814 571.265503,386.489380 
	C572.140320,386.672638 572.786865,386.604553 573.820740,386.554749 
	C575.482300,386.789459 576.756470,387.005920 578.135193,387.438171 
	C578.797363,387.609802 579.355042,387.565735 580.313843,387.516083 
	C581.755859,387.735413 582.796692,387.960327 584.053162,388.419312 
	C585.306335,388.652740 586.343933,388.652130 587.705322,388.632111 
	C588.668823,388.588379 589.308472,388.564026 590.298767,388.759216 
	C591.190002,388.952179 591.730652,388.925598 592.271240,388.899048 
	C593.310730,389.211823 594.350159,389.524597 595.929932,390.255859 
	C597.697083,390.746613 598.923950,390.818878 600.150757,390.891144 
	C600.578674,390.915009 601.006592,390.938873 601.981323,391.364655 
	C615.558350,395.466370 628.678833,398.882507 641.581238,402.984283 
	C648.150635,405.072723 654.328125,408.393799 660.682800,411.157684 
	C660.888489,411.246948 661.094238,411.336243 661.613525,411.896301 
	C662.499634,412.624207 663.072327,412.881256 663.644958,413.138336 
	C664.214478,413.494293 664.783997,413.850250 665.637878,414.752686 
	C667.172424,416.240997 668.422607,417.182831 669.672791,418.124634 
	C674.290649,422.656494 678.908447,427.188324 683.708313,432.323090 
	C685.014893,434.017792 686.139526,435.109558 687.264099,436.201355 
	C688.347656,437.380432 689.431152,438.559479 690.686584,440.315796 
	C691.607849,441.665283 692.357239,442.437531 693.106567,443.209778 
	C693.264893,443.357117 693.423218,443.504456 693.714172,444.228699 
	C694.583984,445.607086 695.321228,446.408630 696.058411,447.210144 
	C696.220581,447.370361 696.382812,447.530609 696.675049,448.260132 
	C697.270874,449.286041 697.736572,449.742676 698.202332,450.199280 
	C698.967651,451.060791 699.732910,451.922272 700.674805,453.367462 
	C701.630493,454.704803 702.409485,455.458405 703.188477,456.212036 
	C703.651733,456.701416 704.114929,457.190796 704.701843,458.244690 
	C705.283020,459.271576 705.740540,459.733948 706.197998,460.196320 
	C706.346680,460.339905 706.495300,460.483521 706.739990,461.182343 
	C707.307922,462.221985 707.779663,462.706421 708.251465,463.190826 
	C708.392090,463.343079 708.532715,463.495361 708.762268,464.298462 
	C712.355957,474.088043 716.404968,483.062897 719.219116,492.409576 
	C722.307678,502.667725 724.340759,513.250305 726.656555,523.730591 
	C727.398682,527.089050 727.576538,530.572205 728.012573,533.998291 
z"/>
<path fill="#2B2B2B" opacity="1.000000" stroke="none" 
	d="
M421.983398,253.889557 
	C421.157745,253.156937 420.332092,252.424316 419.368774,251.115540 
	C420.901215,247.948212 422.571320,245.357071 424.241394,242.765930 
	C424.758911,242.343552 425.276428,241.921188 426.343567,241.380127 
	C427.342468,240.807632 427.791809,240.353836 428.241119,239.900040 
	C428.404358,239.753296 428.567566,239.606537 429.341431,239.347443 
	C431.044403,238.403976 432.136780,237.572876 433.229156,236.741760 
	C433.373932,236.609741 433.518738,236.477722 434.201111,236.294556 
	C435.238678,235.800552 435.738708,235.357666 436.238708,234.914764 
	C437.032349,234.408691 437.825989,233.902618 439.333344,233.327515 
	C447.020782,231.578796 453.994537,229.899124 460.968262,228.219437 
	C462.656189,228.090179 464.344086,227.960922 466.911133,228.022781 
	C475.061096,228.196304 482.379059,228.693024 489.590973,228.032242 
	C498.813385,227.187241 507.563538,224.346588 515.230896,218.832230 
	C516.231628,217.800674 517.232300,216.769119 518.762512,215.448761 
	C519.583923,214.561752 519.875854,213.963531 520.167786,213.365326 
	C520.531128,212.810135 520.894409,212.254944 521.818604,211.363342 
	C525.645935,205.393600 527.464478,199.532303 525.213257,193.030151 
	C525.118591,192.599655 525.023926,192.169159 525.060913,191.032654 
	C524.555725,188.232056 523.918884,186.137482 523.282043,184.042923 
	C523.160828,183.621262 523.039612,183.199600 523.041260,182.074875 
	C522.854675,179.925919 522.545105,178.480042 522.235596,177.034149 
	C522.169373,175.307190 522.103149,173.580246 522.496582,171.421814 
	C523.628723,171.763702 524.344299,172.504395 524.961853,173.319397 
	C525.611755,174.177216 526.167847,175.106125 526.764954,176.003983 
	C526.874390,177.044800 526.983826,178.085602 526.956909,179.891602 
	C527.475220,182.760757 528.130005,184.864761 528.784729,186.968750 
	C528.896118,187.382172 529.007507,187.795593 528.985840,188.888519 
	C529.181030,190.704620 529.509338,191.841202 529.837646,192.977783 
	C529.936646,193.709244 530.035706,194.440689 529.953491,195.943222 
	C529.872070,197.839279 529.971802,198.964279 530.071533,200.089264 
	C530.044983,200.529892 530.018372,200.970505 529.592896,201.945999 
	C528.403137,205.547592 527.612183,208.614319 526.821289,211.681061 
	C526.748169,211.877548 526.674988,212.074051 526.134399,212.567841 
	C525.397522,213.479752 525.127869,214.094376 524.858215,214.709015 
	C524.498291,215.247223 524.138306,215.785431 523.264404,216.587814 
	C522.453247,217.470932 522.155945,218.089859 521.858582,218.708801 
	C521.052246,219.684113 520.245911,220.659439 518.842224,221.738678 
	C517.086731,222.601166 515.928650,223.359726 514.770508,224.118286 
	C513.961548,224.606201 513.152649,225.094116 511.648651,225.687271 
	C505.311340,227.799042 499.669037,229.805588 494.026764,231.812134 
	C492.654816,231.919128 491.282898,232.026123 489.079102,231.953323 
	C486.785706,231.886673 485.324158,231.999802 483.862610,232.112946 
	C480.255310,232.131042 476.648010,232.149139 472.159790,231.985809 
	C468.198639,232.115662 465.118439,232.426941 462.038239,232.738235 
	C461.602997,232.840927 461.167725,232.943604 460.046387,232.918884 
	C458.250763,233.119629 457.141235,233.447784 456.031738,233.775940 
	C455.620911,233.890533 455.210083,234.005142 454.152405,233.991425 
	C452.683167,234.152893 451.860779,234.442688 451.038391,234.732452 
	C450.325012,234.867310 449.611603,235.002197 448.163513,235.023438 
	C444.874237,235.973846 442.319641,237.037888 439.765045,238.101913 
	C439.590485,238.243607 439.415894,238.385300 438.626099,238.633972 
	C436.928223,239.544586 435.845490,240.348206 434.762756,241.151840 
	C434.606598,241.293396 434.450409,241.434921 433.747253,241.656494 
	C432.720581,242.179916 432.240936,242.623276 431.761292,243.066620 
	C431.588348,243.213593 431.415436,243.360535 430.675018,243.613983 
	C429.656067,244.186539 429.204651,244.652603 428.753235,245.118668 
	C428.603699,245.268326 428.454163,245.417984 427.670532,245.704269 
	C425.702454,247.909119 424.368408,249.977341 423.034424,252.045593 
	C423.007233,252.483093 422.980042,252.920609 422.675903,253.598907 
	C422.398895,253.839722 421.983398,253.889557 421.983398,253.889557 
z"/>
<path fill="#2B2B2B" opacity="1.000000" stroke="none" 
	d="
M530.679504,139.001160 
	C530.973511,139.594925 531.267517,140.188690 531.680420,141.464661 
	C531.813843,145.319061 531.828491,148.491272 531.843140,151.663483 
	C531.217285,152.608978 530.591492,153.554474 529.496582,154.949280 
	C528.382996,157.970856 527.738647,160.543152 527.094299,163.115448 
	C527.036011,164.482132 526.977783,165.848831 526.505005,167.774384 
	C523.338806,170.181656 522.708313,168.292267 523.133728,166.271698 
	C524.269592,160.876862 525.768127,155.558365 527.122559,150.209534 
	C527.222290,150.033203 527.321960,149.856873 527.948120,149.337494 
	C528.275574,147.249619 528.076416,145.504807 527.877319,143.759995 
	C527.622559,143.413651 527.367859,143.067322 527.106140,142.106903 
	C526.779846,141.001328 526.460632,140.509842 526.141357,140.018341 
	C526.081299,138.604355 526.021301,137.190353 526.389648,135.218964 
	C527.888367,132.454437 528.958679,130.247299 530.029053,128.040161 
	C529.994629,127.299286 529.960205,126.558388 530.058228,125.202667 
	C529.878052,123.995842 529.565491,123.403831 529.252869,122.811829 
	C528.987732,122.353775 528.722656,121.895729 528.325867,120.726425 
	C525.749939,117.592293 523.305664,115.169418 520.861328,112.746552 
	C520.713318,112.605301 520.565247,112.464050 520.293945,111.697342 
	C518.863098,108.393089 517.555542,105.714302 516.247986,103.035522 
	C516.159119,101.949471 516.070251,100.863434 516.354126,99.181808 
	C517.204346,96.817467 517.681763,95.048714 518.159241,93.279961 
	C518.242188,93.091248 518.325073,92.902527 518.910522,92.421303 
	C521.018982,90.695618 522.624817,89.262451 524.230652,87.829269 
	C526.078857,86.394836 527.927124,84.960403 530.375244,83.374100 
	C531.675049,82.554893 532.374878,81.887566 533.074768,81.220230 
	C533.074768,81.220230 533.325745,80.909927 533.809875,80.908890 
	C534.950684,80.227585 535.607422,79.547325 536.264099,78.867073 
	C536.419922,78.725082 536.575684,78.583099 537.287659,78.346497 
	C538.309143,77.764404 538.774414,77.276917 539.239685,76.789429 
	C539.375793,76.648224 539.511902,76.507019 540.263428,76.256180 
	C545.354187,73.157166 548.945374,69.510025 549.957092,63.943913 
	C549.928467,63.241192 549.899780,62.538471 549.997192,61.168686 
	C549.410583,59.253704 548.697937,58.005791 547.985229,56.757881 
	C547.829163,56.589355 547.673157,56.420834 547.386292,55.677368 
	C546.752441,54.654861 546.249451,54.207302 545.746460,53.759743 
	C545.394958,53.410698 545.043457,53.061649 544.920898,52.348190 
	C545.676941,51.383217 546.203979,50.782650 547.013794,50.429184 
	C548.270508,51.206680 549.244385,51.737080 550.218262,52.267475 
	C550.218262,52.267467 550.599609,52.590183 550.486145,53.012497 
	C553.641052,58.128822 554.831970,63.157627 552.832825,68.700523 
	C552.744629,68.892464 552.656372,69.084404 552.043457,69.577309 
	C548.929199,72.957825 546.339478,76.037376 543.749817,79.116920 
	C543.600708,79.264565 543.451538,79.412209 542.747620,79.665512 
	C541.716980,80.266533 541.241089,80.761887 540.765259,81.257240 
	C540.631104,81.394081 540.496887,81.530922 539.820068,81.730713 
	C538.774170,82.278412 538.270752,82.763161 537.767395,83.247894 
	C537.422913,83.549759 537.078491,83.851624 536.397583,83.973030 
	C535.614807,83.447670 535.168396,83.102776 534.722046,82.757889 
	C534.536438,83.522827 534.350830,84.287766 534.039917,85.248009 
	C533.712097,85.712196 533.659973,86.007622 533.758179,86.329613 
	C532.567932,87.372551 531.377686,88.415489 529.599365,89.617584 
	C527.929565,90.557289 526.847839,91.337852 525.766113,92.118423 
	C525.592346,92.257919 525.418518,92.397400 524.582886,92.683838 
	C519.548950,97.236824 519.051758,100.047333 521.732788,105.199692 
	C522.343018,106.308754 522.953186,107.417824 523.702637,109.220062 
	C525.146362,111.407791 526.309265,113.061501 527.780151,114.368752 
	C533.479736,119.434204 535.337524,125.485428 532.867310,132.771713 
	C532.777344,132.952118 532.687378,133.132507 532.074646,133.603378 
	C528.318909,137.342560 528.318909,137.342560 530.679504,139.001160 
z"/>
<path fill="#6F6F6F" opacity="1.000000" stroke="none" 
	d="
M693.746399,452.105835 
	C703.780762,460.012604 709.526245,471.008301 712.977051,483.030670 
	C717.740051,499.624542 721.611145,516.474426 725.946289,533.606262 
	C729.658325,553.678955 730.653137,573.849365 737.681519,592.901855 
	C742.161011,605.044739 745.926514,617.451782 749.951416,629.760254 
	C750.341492,630.953064 750.302185,632.286255 750.195801,633.784668 
	C746.208862,622.836914 743.135010,611.390259 738.627869,600.539001 
	C730.268921,580.414185 728.859497,558.903015 724.620911,537.935425 
	C720.087036,515.506592 716.588867,492.665619 706.642090,471.760406 
	C703.342407,464.825378 698.049805,458.838531 693.746399,452.105835 
z"/>
<path fill="#6F6F6F" opacity="1.000000" stroke="none" 
	d="
M480.349854,378.194855 
	C496.107361,383.770355 512.523621,386.422363 529.307556,386.852081 
	C533.246643,386.952911 537.285645,385.459045 541.146240,385.888672 
	C553.139282,387.223328 565.079285,389.058319 577.020325,390.830658 
	C597.723450,393.903595 618.282349,397.714813 637.974792,405.037750 
	C644.475220,407.455048 650.644104,410.763763 657.079041,413.963379 
	C651.401917,411.862213 645.655151,409.347137 639.810852,407.083496 
	C617.793091,398.555450 594.667236,394.769775 571.473328,391.324860 
	C561.478699,389.840424 551.487549,388.258209 541.443115,387.222015 
	C537.736572,386.839630 533.828003,388.508606 530.104126,388.183350 
	C519.902771,387.292297 509.669830,386.282349 499.607697,384.450104 
	C493.060059,383.257812 486.789368,380.544617 480.349854,378.194855 
z"/>
<path fill="#6F6F6F" opacity="1.000000" stroke="none" 
	d="
M416.862152,257.343475 
	C417.424530,258.076385 417.893799,259.113739 418.049408,260.196198 
	C420.631042,278.156433 422.686890,296.212097 425.976959,314.040344 
	C427.197784,320.655701 431.292755,326.740662 434.088867,333.412476 
	C431.330048,329.009277 427.000702,324.548706 426.062347,319.462524 
	C422.283386,298.979065 416.294067,278.785156 416.862152,257.343475 
z"/>
<path fill="#5E5E5E" opacity="1.000000" stroke="none" 
	d="
M520.144897,32.228493 
	C517.206055,24.013741 514.357422,16.105078 511.614044,8.160097 
	C511.221466,7.023265 511.337311,5.710875 511.217865,4.479736 
	C511.740387,4.268965 512.262939,4.058194 512.785461,3.847423 
	C513.526794,5.327828 514.544373,6.734195 514.964233,8.300759 
	C517.513794,17.812975 520.487061,27.096720 527.627319,35.034508 
	C527.278137,36.053051 526.722046,36.553013 525.859619,36.922058 
	C523.957642,35.502060 522.362061,34.212978 520.766479,32.923889 
	C520.600586,32.790237 520.434692,32.656593 520.144897,32.228493 
z"/>
<path fill="#6F6F6F" opacity="1.000000" stroke="none" 
	d="
M514.888062,218.737152 
	C507.563538,224.346588 498.813385,227.187241 489.590973,228.032242 
	C482.379059,228.693024 475.061096,228.196304 467.334045,228.056046 
	C469.399597,227.497940 471.969482,226.563599 474.435211,226.785614 
	C488.651672,228.065659 501.963776,225.239395 514.888062,218.737152 
z"/>
<path fill="#6F6F6F" opacity="1.000000" stroke="none" 
	d="
M526.795166,150.253021 
	C525.768127,155.558365 524.269592,160.876862 523.133728,166.271698 
	C522.708313,168.292267 523.338806,170.181656 526.439758,168.179703 
	C526.936279,170.489548 527.083496,172.952942 526.997803,175.710159 
	C526.167847,175.106125 525.611755,174.177216 524.961853,173.319397 
	C524.344299,172.504395 523.628723,171.763702 522.566406,170.994141 
	C520.490112,163.451355 522.557129,156.682846 526.795166,150.253021 
z"/>
<path fill="#C0E5FF" opacity="1.000000" stroke="none" 
	d="
M351.825226,160.727966 
	C350.481842,162.309097 349.194183,163.506454 347.906525,164.703812 
	C347.275208,163.513031 345.999847,162.219193 346.169891,161.156631 
	C346.400818,159.713364 347.737335,158.446976 348.599701,157.104736 
	C349.693451,158.184555 350.787201,159.264374 351.825226,160.727966 
z"/>
<path fill="#6F6F6F" opacity="1.000000" stroke="none" 
	d="
M460.698364,228.003632 
	C453.994537,229.899124 447.020782,231.578796 439.666931,233.205750 
	C442.916626,231.940002 446.494263,230.524246 450.191589,229.573990 
	C453.536011,228.714462 457.011047,228.363220 460.698364,228.003632 
z"/>
<path fill="#2B2B2B" opacity="1.000000" stroke="none" 
	d="
M526.165955,37.052963 
	C526.722046,36.553013 527.278137,36.053051 527.869019,35.251717 
	C528.291382,35.054348 528.678894,35.158356 529.362488,35.212883 
	C529.856873,35.261902 530.055176,35.360390 530.552246,35.941471 
	C531.451111,36.677933 532.051208,36.931801 532.651245,37.185669 
	C532.845276,37.288315 533.039246,37.390961 533.477905,37.988953 
	C534.196533,38.971981 534.670532,39.459667 535.147339,40.345478 
	C535.105713,41.538067 535.061218,42.332527 534.716553,43.018150 
	C533.998413,42.905464 533.580505,42.901615 533.162598,42.897766 
	C532.992798,42.822598 532.822998,42.747425 532.423584,42.156570 
	C530.559570,40.706692 528.925049,39.772491 527.290527,38.838295 
	C527.104309,38.740486 526.918152,38.642681 526.556396,38.141075 
	C526.316040,37.507027 526.244385,37.278923 526.165955,37.052963 
z"/>
<path fill="#6F6F6F" opacity="1.000000" stroke="none" 
	d="
M524.997314,193.356354 
	C527.464478,199.532303 525.645935,205.393600 522.060303,211.134842 
	C522.754578,205.389374 523.767944,199.535980 524.997314,193.356354 
z"/>
<path fill="#6F6F6F" opacity="1.000000" stroke="none" 
	d="
M549.658325,64.074600 
	C548.945374,69.510025 545.354187,73.157166 540.528015,76.127563 
	C543.237915,72.140831 546.298767,68.173058 549.658325,64.074600 
z"/>
<path fill="#6F6F6F" opacity="1.000000" stroke="none" 
	d="
M448.722351,350.101318 
	C451.880829,352.737030 454.980530,355.684174 458.148499,358.932129 
	C455.032379,356.292877 451.847961,353.352814 448.722351,350.101318 
z"/>
<path fill="#6F6F6F" opacity="1.000000" stroke="none" 
	d="
M423.928558,242.689331 
	C422.571320,245.357071 420.901215,247.948212 419.151001,250.896881 
	C418.591858,252.059128 418.112854,252.863831 417.382385,253.821350 
	C417.509979,249.169601 419.408844,245.232468 423.928558,242.689331 
z"/>
<path fill="#5E5E5E" opacity="1.000000" stroke="none" 
	d="
M535.016724,43.126987 
	C535.061218,42.332527 535.105713,41.538067 535.473877,40.402702 
	C537.197632,40.708199 538.597778,41.354595 539.997925,42.000996 
	C540.180786,42.083054 540.363647,42.165108 540.736816,42.706322 
	C540.967834,43.454906 540.986755,43.745735 540.682983,44.198105 
	C540.049683,44.946815 539.717346,45.535397 539.118591,46.091194 
	C538.301697,46.028095 537.751282,45.997776 537.200867,45.967461 
	C536.636108,45.611553 536.071289,45.255646 535.285156,44.431000 
	C535.019958,43.685417 535.004272,43.406994 535.016724,43.126987 
z"/>
<path fill="#6F6F6F" opacity="1.000000" stroke="none" 
	d="
M520.772949,113.051193 
	C523.305664,115.169418 525.749939,117.592293 528.183716,120.355354 
	C525.677002,118.248978 523.180786,115.802414 520.772949,113.051193 
z"/>
<path fill="#6F6F6F" opacity="1.000000" stroke="none" 
	d="
M461.237366,362.243195 
	C463.818787,364.148926 466.446777,366.380127 469.146301,368.909515 
	C466.573212,366.994690 463.928528,364.781677 461.237366,362.243195 
z"/>
<path fill="#6F6F6F" opacity="1.000000" stroke="none" 
	d="
M435.777588,336.090393 
	C437.928162,337.874664 440.006470,339.964661 442.099396,342.385254 
	C439.977783,340.609253 437.841553,338.502686 435.777588,336.090393 
z"/>
<path fill="#6F6F6F" opacity="1.000000" stroke="none" 
	d="
M670.344971,425.202698 
	C672.572998,426.920563 674.830872,428.962830 677.108521,431.335510 
	C674.877136,429.619659 672.625977,427.573364 670.344971,425.202698 
z"/>
<path fill="#5E5E5E" opacity="1.000000" stroke="none" 
	d="
M546.731018,50.182083 
	C546.203979,50.782650 545.676941,51.383217 544.729004,52.028893 
	C543.860046,51.792908 543.411987,51.511818 542.901123,50.596291 
	C542.573792,48.305771 542.309265,46.649693 542.335022,45.133713 
	C543.993835,46.909901 545.362427,48.545994 546.731018,50.182083 
z"/>
<path fill="#6F6F6F" opacity="1.000000" stroke="none" 
	d="
M516.033447,103.251411 
	C517.555542,105.714302 518.863098,108.393089 520.151123,111.425674 
	C518.694031,109.008759 517.256470,106.238029 516.033447,103.251411 
z"/>
<path fill="#6F6F6F" opacity="1.000000" stroke="none" 
	d="
M525.859619,36.922050 
	C526.244385,37.278923 526.316040,37.507027 526.338440,37.912960 
	C524.439026,36.569054 522.581970,35.049458 520.745728,33.226883 
	C522.362061,34.212978 523.957642,35.502060 525.859619,36.922050 
z"/>
<path fill="#6F6F6F" opacity="1.000000" stroke="none" 
	d="
M529.737915,128.161255 
	C528.958679,130.247299 527.888367,132.454437 526.525635,134.812622 
	C527.304382,132.736572 528.375549,130.509476 529.737915,128.161255 
z"/>
<path fill="#6F6F6F" opacity="1.000000" stroke="none" 
	d="
M523.909485,87.727646 
	C522.624817,89.262451 521.018982,90.695618 519.121033,92.194839 
	C520.415405,90.715919 522.001892,89.170959 523.909485,87.727646 
z"/>
<path fill="#2B2B2B" opacity="1.000000" stroke="none" 
	d="
M542.044800,44.993614 
	C542.309265,46.649693 542.573792,48.305771 542.860779,50.318901 
	C542.450256,50.336121 542.017212,49.996292 541.387146,49.126308 
	C540.588379,47.772095 539.986694,46.948040 539.385071,46.123981 
	C539.717346,45.535397 540.049683,44.946815 540.883545,44.329216 
	C541.639099,44.498905 541.859009,44.730042 542.044800,44.993614 
z"/>
<path fill="#6F6F6F" opacity="1.000000" stroke="none" 
	d="
M523.070801,184.265869 
	C523.918884,186.137482 524.555725,188.232056 525.066345,190.701050 
	C524.246643,188.879929 523.553162,186.684387 523.070801,184.265869 
z"/>
<path fill="#6F6F6F" opacity="1.000000" stroke="none" 
	d="
M517.853699,93.329651 
	C517.681763,95.048714 517.204346,96.817467 516.442688,98.779999 
	C516.621704,97.108963 517.084961,95.244148 517.853699,93.329651 
z"/>
<path fill="#6F6F6F" opacity="1.000000" stroke="none" 
	d="
M527.318481,39.159790 
	C528.925049,39.772491 530.559570,40.706692 532.227844,41.958385 
	C530.623230,41.344349 528.984863,40.412823 527.318481,39.159790 
z"/>
<path fill="#6F6F6F" opacity="1.000000" stroke="none" 
	d="
M539.118591,46.091198 
	C539.986694,46.948040 540.588379,47.772095 541.230835,48.893906 
	C539.976135,48.317051 538.680542,47.442436 537.292969,46.267643 
	C537.751282,45.997776 538.301697,46.028095 539.118591,46.091198 
z"/>
<path fill="#6F6F6F" opacity="1.000000" stroke="none" 
	d="
M527.798950,144.213348 
	C528.076416,145.504807 528.275574,147.249619 528.166626,149.126312 
	C527.812439,147.727692 527.766479,146.197205 527.798950,144.213348 
z"/>
<path fill="#6F6F6F" opacity="1.000000" stroke="none" 
	d="
M522.018066,177.267151 
	C522.545105,178.480042 522.854675,179.925919 523.034912,181.744492 
	C522.537292,180.578171 522.168884,179.039154 522.018066,177.267151 
z"/>
<path fill="#6F6F6F" opacity="1.000000" stroke="none" 
	d="
M661.234253,417.218506 
	C662.417175,417.691498 663.648804,418.483490 664.959839,419.593048 
	C663.787231,419.119598 662.535095,418.328552 661.234253,417.218506 
z"/>
<path fill="#6F6F6F" opacity="1.000000" stroke="none" 
	d="
M432.917847,236.655914 
	C432.136780,237.572876 431.044403,238.403976 429.640259,239.209320 
	C430.421204,238.312393 431.513885,237.441223 432.917847,236.655914 
z"/>
<path fill="#6F6F6F" opacity="1.000000" stroke="none" 
	d="
M547.876465,57.059326 
	C548.697937,58.005791 549.410583,59.253704 550.007996,60.817123 
	C549.184387,59.875343 548.476074,58.618061 547.876465,57.059326 
z"/>
<path fill="#6F6F6F" opacity="1.000000" stroke="none" 
	d="
M690.853271,448.072845 
	C691.677734,448.603149 692.411438,449.417877 693.123657,450.523346 
	C692.322266,449.995148 691.542297,449.176208 690.853271,448.072845 
z"/>
<path fill="#6F6F6F" opacity="1.000000" stroke="none" 
	d="
M682.679443,438.094543 
	C683.535400,438.561707 684.333008,439.323822 685.130615,440.376770 
	C684.294006,439.908264 683.457520,439.148865 682.679443,438.094543 
z"/>
<path fill="#6F6F6F" opacity="1.000000" stroke="none" 
	d="
M470.201660,370.217468 
	C471.135223,370.478973 472.110718,371.046417 473.153564,371.900208 
	C472.228516,371.632141 471.236053,371.077759 470.201660,370.217468 
z"/>
<path fill="#6F6F6F" opacity="1.000000" stroke="none" 
	d="
M475.215851,374.228760 
	C476.154449,374.516510 477.117462,375.114685 478.143066,376.002441 
	C477.217163,375.707764 476.228729,375.123505 475.215851,374.228760 
z"/>
<path fill="#6F6F6F" opacity="1.000000" stroke="none" 
	d="
M535.976807,78.764709 
	C535.607422,79.547325 534.950684,80.227585 533.991821,80.826965 
	C534.356262,80.051514 535.022827,79.356934 535.976807,78.764709 
z"/>
<path fill="#6F6F6F" opacity="1.000000" stroke="none" 
	d="
M532.755859,81.185654 
	C532.374878,81.887566 531.675049,82.554893 530.670044,83.198456 
	C531.055603,82.500145 531.746338,81.825600 532.755859,81.185654 
z"/>
<path fill="#6F6F6F" opacity="1.000000" stroke="none" 
	d="
M750.671082,636.304321 
	C750.984985,636.564514 751.126648,636.851746 751.209229,637.155090 
	C751.249329,637.302429 751.179077,637.479797 751.046265,637.865601 
	C750.780640,637.504456 750.627563,636.921204 750.671082,636.304321 
z"/>
<path fill="#6F6F6F" opacity="1.000000" stroke="none" 
	d="
M538.965454,76.697441 
	C538.774414,77.276917 538.309143,77.764404 537.573730,78.211998 
	C537.766235,77.649887 538.228760,77.127670 538.965454,76.697441 
z"/>
<path fill="#6F6F6F" opacity="1.000000" stroke="none" 
	d="
M435.974304,234.800018 
	C435.738708,235.357666 435.238678,235.800552 434.474365,236.186188 
	C434.709991,235.647720 435.209930,235.166489 435.974304,234.800018 
z"/>
<path fill="#6F6F6F" opacity="1.000000" stroke="none" 
	d="
M545.665771,54.037457 
	C546.249451,54.207302 546.752441,54.654861 547.223633,55.373726 
	C546.656250,55.201748 546.120605,54.758457 545.665771,54.037457 
z"/>
<path fill="#6F6F6F" opacity="1.000000" stroke="none" 
	d="
M529.080688,123.039856 
	C529.565491,123.403831 529.878052,123.995842 530.065063,124.831818 
	C529.595764,124.473152 529.252197,123.870522 529.080688,123.039856 
z"/>
<path fill="#6F6F6F" opacity="1.000000" stroke="none" 
	d="
M427.979980,239.790726 
	C427.791809,240.353836 427.342468,240.807632 426.639008,241.220917 
	C426.829529,240.680756 427.274200,240.181091 427.979980,239.790726 
z"/>
<path fill="#6F6F6F" opacity="1.000000" stroke="none" 
	d="
M519.877869,213.366486 
	C519.875854,213.963531 519.583923,214.561752 519.027710,215.205109 
	C519.038269,214.622726 519.313110,213.995193 519.877869,213.366486 
z"/>
<path fill="#6F6F6F" opacity="1.000000" stroke="none" 
	d="
M525.944702,140.159454 
	C526.460632,140.509842 526.779846,141.001328 527.010376,141.797363 
	C526.530396,141.501450 526.139221,140.901001 525.944702,140.159454 
z"/>
<path fill="#6F6F6F" opacity="1.000000" stroke="none" 
	d="
M688.634399,445.088043 
	C689.187622,445.273621 689.677124,445.737396 690.149536,446.472565 
	C689.611877,446.284698 689.091309,445.825470 688.634399,445.088043 
z"/>
<path fill="#6F6F6F" opacity="1.000000" stroke="none" 
	d="
M534.716553,43.018150 
	C535.004272,43.406994 535.019958,43.685417 535.072754,44.171837 
	C534.451904,44.075428 533.822205,43.769444 533.177490,43.180611 
	C533.580505,42.901615 533.998413,42.905464 534.716553,43.018150 
z"/>
<path fill="#6F6F6F" opacity="1.000000" stroke="none" 
	d="
M658.237610,415.177979 
	C658.813843,415.154724 659.435364,415.414459 660.131104,415.932800 
	C659.564514,415.947906 658.923706,415.704468 658.237610,415.177979 
z"/>
<path fill="#E6E6E6" opacity="1.000000" stroke="none" 
	d="
M578.030640,387.222412 
	C576.756470,387.005920 575.482300,386.789459 573.677673,386.356873 
	C572.443848,386.173218 571.740540,386.205658 571.037170,386.238098 
	C569.575317,385.977814 568.113464,385.717560 566.132019,385.235931 
	C564.751343,385.076202 563.890259,385.137817 563.029175,385.199432 
	C562.058228,385.028961 561.087341,384.858490 559.628052,384.444946 
	C558.433716,384.182739 557.727661,384.163605 557.021606,384.144470 
	C555.331421,383.728180 553.641174,383.311890 551.549316,382.650177 
	C550.951233,382.185730 550.833557,381.930389 550.794678,381.638733 
	C551.559692,381.130432 552.398132,380.095551 553.079041,380.190552 
	C572.478516,382.895905 592.355469,380.837219 611.497314,386.024475 
	C612.610168,386.326050 613.666382,386.836609 614.748962,387.249908 
	C614.627991,387.905426 614.507019,388.560944 614.386047,389.216492 
	C609.199768,388.620453 604.024353,387.860291 598.821472,387.513580 
	C596.887512,387.384705 594.889038,388.224304 592.595581,388.760620 
	C591.730652,388.925598 591.190002,388.952179 590.270142,388.398315 
	C588.623474,384.020874 586.749207,387.450409 584.941650,387.549866 
	C584.424377,387.847504 584.130981,388.016357 583.837585,388.185242 
	C582.796692,387.960327 581.755859,387.735413 580.215210,387.292297 
	C579.153809,387.123535 578.592224,387.172974 578.030640,387.222412 
z"/>
<path fill="#6F6F6F" opacity="1.000000" stroke="none" 
	d="
M728.244995,534.228516 
	C727.576538,530.572205 727.398682,527.089050 726.656555,523.730591 
	C724.340759,513.250305 722.307678,502.667725 719.219116,492.409576 
	C716.404968,483.062897 712.355957,474.088043 708.860840,464.593323 
	C711.736084,470.279755 715.597351,476.058746 717.278503,482.414459 
	C722.093384,500.618286 726.024231,519.055969 730.096191,537.692139 
	C729.419006,536.807983 728.948181,535.633362 728.244995,534.228516 
z"/>
<path fill="#6F6F6F" opacity="1.000000" stroke="none" 
	d="
M660.619812,410.846741 
	C654.328125,408.393799 648.150635,405.072723 641.581238,402.984283 
	C628.678833,398.882507 615.558350,395.466370 602.283630,391.478394 
	C602.657471,391.045868 603.328003,390.666901 603.886536,390.791290 
	C622.747742,394.990936 641.434570,399.730621 658.582336,409.057800 
	C659.296997,409.446564 659.901184,410.038513 660.619812,410.846741 
z"/>
<path fill="#6F6F6F" opacity="1.000000" stroke="none" 
	d="
M436.169983,328.862671 
	C433.405640,322.733856 429.885315,316.473480 428.218842,309.753326 
	C425.521698,298.876740 424.033539,287.699768 422.064087,276.644440 
	C421.891205,275.674225 421.933533,274.665619 421.996643,273.257263 
	C423.164734,276.757111 424.469147,280.626892 425.206573,284.601868 
	C426.802246,293.202850 427.659302,301.964355 429.680817,310.454895 
	C431.155334,316.648163 434.007965,322.513306 436.169983,328.862671 
z"/>
<path fill="#6F6F6F" opacity="1.000000" stroke="none" 
	d="
M533.202881,132.707916 
	C535.337524,125.485428 533.479736,119.434204 527.780151,114.368752 
	C526.309265,113.061501 525.146362,111.407791 523.853638,109.569870 
	C528.840515,112.667717 533.471313,116.642914 534.616333,122.808151 
	C535.192932,125.912987 533.955566,129.354736 533.202881,132.707916 
z"/>
<path fill="#6F6F6F" opacity="1.000000" stroke="none" 
	d="
M507.873108,380.668182 
	C500.062897,379.128326 492.067535,377.297516 483.934448,375.169434 
	C491.760468,376.707184 499.724243,378.542206 507.873108,380.668182 
z"/>
<path fill="#6F6F6F" opacity="1.000000" stroke="none" 
	d="
M529.647949,382.901062 
	C525.885193,383.117004 521.783020,383.266998 517.699036,383.059235 
	C515.626770,382.953827 513.587341,382.203339 511.284302,381.458618 
	C517.129028,381.677551 523.222473,382.182373 529.647949,382.901062 
z"/>
<path fill="#6F6F6F" opacity="1.000000" stroke="none" 
	d="
M421.957489,254.318817 
	C421.983398,253.889557 422.398895,253.839722 422.593079,253.917587 
	C422.647583,259.440460 422.507874,264.885437 422.138092,270.657959 
	C421.915863,265.573029 421.923737,260.160553 421.957489,254.318817 
z"/>
<path fill="#6F6F6F" opacity="1.000000" stroke="none" 
	d="
M553.161011,68.637939 
	C554.831970,63.157627 553.641052,58.128822 550.596375,53.236656 
	C555.623108,57.161594 556.552551,62.571774 553.161011,68.637939 
z"/>
<path fill="#6F6F6F" opacity="1.000000" stroke="none" 
	d="
M542.335022,45.133713 
	C541.859009,44.730042 541.639099,44.498905 541.184570,44.169090 
	C540.986755,43.745735 540.967834,43.454906 540.916016,42.947731 
	C544.063171,45.699581 547.221497,48.669186 550.299072,51.953140 
	C549.244385,51.737080 548.270508,51.206680 547.013794,50.429184 
	C545.362427,48.545994 543.993835,46.909901 542.335022,45.133713 
z"/>
<path fill="#6F6F6F" opacity="1.000000" stroke="none" 
	d="
M494.265503,232.029282 
	C499.669037,229.805588 505.311340,227.799042 511.316895,225.815430 
	C505.954865,227.974396 500.229553,230.110413 494.265503,232.029282 
z"/>
<path fill="#E6E6E6" opacity="1.000000" stroke="none" 
	d="
M542.590210,381.625946 
	C539.332336,381.924225 536.074463,382.222534 532.475586,382.416504 
	C534.780518,377.686523 538.776245,378.803223 542.875366,380.377686 
	C542.767395,381.108459 542.629822,381.337830 542.590210,381.625946 
z"/>
<path fill="#6F6F6F" opacity="1.000000" stroke="none" 
	d="
M544.057129,79.214211 
	C546.339478,76.037376 548.929199,72.957825 551.823242,69.805138 
	C549.539856,72.925171 546.952148,76.118332 544.057129,79.214211 
z"/>
<path fill="#6F6F6F" opacity="1.000000" stroke="none" 
	d="
M521.883667,104.838737 
	C519.051758,100.047333 519.548950,97.236824 524.275757,92.815849 
	C522.489136,96.409508 520.197632,99.984734 521.883667,104.838737 
z"/>
<path fill="#6F6F6F" opacity="1.000000" stroke="none" 
	d="
M454.233459,348.908386 
	C451.740387,346.810211 449.320953,344.406647 446.884003,341.672821 
	C449.346680,343.762726 451.826904,346.182831 454.233459,348.908386 
z"/>
<path fill="#6F6F6F" opacity="1.000000" stroke="none" 
	d="
M462.348053,232.960297 
	C465.118439,232.426941 468.198639,232.115662 471.710663,231.961975 
	C468.980957,232.473831 465.819397,232.828079 462.348053,232.960297 
z"/>
<path fill="#6F6F6F" opacity="1.000000" stroke="none" 
	d="
M532.168579,151.625488 
	C531.828491,148.491272 531.813843,145.319061 531.805664,141.771484 
	C535.405273,144.568008 534.733032,148.025330 532.168579,151.625488 
z"/>
<path fill="#6F6F6F" opacity="1.000000" stroke="none" 
	d="
M527.137573,211.618286 
	C527.612183,208.614319 528.403137,205.547592 529.482727,202.259766 
	C528.998901,205.210938 528.226379,208.383240 527.137573,211.618286 
z"/>
<path fill="#6F6F6F" opacity="1.000000" stroke="none" 
	d="
M732.030273,548.697449 
	C731.188232,546.178955 730.549255,543.390442 730.032471,540.195557 
	C730.847534,542.668640 731.540466,545.547974 732.030273,548.697449 
z"/>
<path fill="#6F6F6F" opacity="1.000000" stroke="none" 
	d="
M527.385010,162.962967 
	C527.738647,160.543152 528.382996,157.970856 529.310303,155.234436 
	C528.954102,157.650360 528.314941,160.230423 527.385010,162.962967 
z"/>
<path fill="#6F6F6F" opacity="1.000000" stroke="none" 
	d="
M440.115845,238.191772 
	C442.319641,237.037888 444.874237,235.973846 447.799377,235.025269 
	C445.602142,236.187683 443.034363,237.234665 440.115845,238.191772 
z"/>
<path fill="#6F6F6F" opacity="1.000000" stroke="none" 
	d="
M539.883118,41.697021 
	C538.597778,41.354595 537.197632,40.708199 535.471008,40.004578 
	C534.670532,39.459667 534.196533,38.971981 533.711792,38.220680 
	C535.723450,39.102390 537.745850,40.247723 539.883118,41.697021 
z"/>
<path fill="#6F6F6F" opacity="1.000000" stroke="none" 
	d="
M423.329285,251.914185 
	C424.368408,249.977341 425.702454,247.909119 427.385559,245.843857 
	C426.364441,247.825485 424.994293,249.804123 423.329285,251.914185 
z"/>
<path fill="#6F6F6F" opacity="1.000000" stroke="none" 
	d="
M441.933807,335.674225 
	C440.269165,334.305878 438.582947,332.597015 436.890411,330.553162 
	C438.560150,331.923340 440.236176,333.628540 441.933807,335.674225 
z"/>
<path fill="#6F6F6F" opacity="1.000000" stroke="none" 
	d="
M530.899048,138.733673 
	C528.318909,137.342560 528.318909,137.342560 531.857239,133.813522 
	C531.814575,135.310852 531.466614,136.888504 530.899048,138.733673 
z"/>
<path fill="#6F6F6F" opacity="1.000000" stroke="none" 
	d="
M464.760376,358.783081 
	C463.167542,357.839386 461.533752,356.573273 459.844025,355.003174 
	C461.431854,355.953003 463.075623,357.206848 464.760376,358.783081 
z"/>
<path fill="#6F6F6F" opacity="1.000000" stroke="none" 
	d="
M528.988037,186.730331 
	C528.130005,184.864761 527.475220,182.760757 526.945374,180.284607 
	C527.777344,182.105606 528.484375,184.298752 528.988037,186.730331 
z"/>
<path fill="#6F6F6F" opacity="1.000000" stroke="none" 
	d="
M484.006836,232.377914 
	C485.324158,231.999802 486.785706,231.886673 488.666504,231.921570 
	C487.440887,232.260712 485.795990,232.451797 484.006836,232.377914 
z"/>
<path fill="#6F6F6F" opacity="1.000000" stroke="none" 
	d="
M733.990967,563.718994 
	C733.483582,562.503906 733.176819,561.047180 732.995972,559.211914 
	C733.478455,560.381348 733.835022,561.929382 733.990967,563.718994 
z"/>
<path fill="#6F6F6F" opacity="1.000000" stroke="none" 
	d="
M478.735291,370.800262 
	C477.489563,370.201111 476.208832,369.283478 474.856964,368.076050 
	C476.090637,368.684784 477.395447,369.583252 478.735291,370.800262 
z"/>
<path fill="#6F6F6F" opacity="1.000000" stroke="none" 
	d="
M669.661011,417.806335 
	C668.422607,417.182831 667.172424,416.240997 665.858032,415.007599 
	C667.079041,415.640015 668.364136,416.564026 669.661011,417.806335 
z"/>
<path fill="#6F6F6F" opacity="1.000000" stroke="none" 
	d="
M687.323730,435.896729 
	C686.139526,435.109558 685.014893,434.017792 683.883728,432.617950 
	C685.045898,433.403961 686.214600,434.498047 687.323730,435.896729 
z"/>
<path fill="#6F6F6F" opacity="1.000000" stroke="none" 
	d="
M600.036377,390.637695 
	C598.923950,390.818878 597.697083,390.746613 596.245361,390.376068 
	C597.320984,390.179962 598.621460,390.282104 600.036377,390.637695 
z"/>
<path fill="#6F6F6F" opacity="1.000000" stroke="none" 
	d="
M530.325623,199.972733 
	C529.971802,198.964279 529.872070,197.839279 529.922729,196.312408 
	C530.242065,197.225739 530.410889,198.540970 530.325623,199.972733 
z"/>
<path fill="#6F6F6F" opacity="1.000000" stroke="none" 
	d="
M530.041138,192.761871 
	C529.509338,191.841202 529.181030,190.704620 528.986023,189.211258 
	C529.494446,190.084976 529.869507,191.315475 530.041138,192.761871 
z"/>
<path fill="#6F6F6F" opacity="1.000000" stroke="none" 
	d="
M435.069336,241.242645 
	C435.845490,240.348206 436.928223,239.544586 438.316406,238.767609 
	C437.539917,239.640671 436.457947,240.487076 435.069336,241.242645 
z"/>
<path fill="#6F6F6F" opacity="1.000000" stroke="none" 
	d="
M456.243195,233.977112 
	C457.141235,233.447784 458.250763,233.119629 459.710022,232.919281 
	C458.858093,233.424149 457.656372,233.801224 456.243195,233.977112 
z"/>
<path fill="#6F6F6F" opacity="1.000000" stroke="none" 
	d="
M543.062866,381.760132 
	C542.629822,381.337830 542.767395,381.108459 543.085693,380.751709 
	C544.477417,380.737549 545.786255,380.909546 547.258911,381.373779 
	C546.126953,381.742157 544.831299,381.818237 543.062866,381.760132 
z"/>
<path fill="#6F6F6F" opacity="1.000000" stroke="none" 
	d="
M515.078247,224.231979 
	C515.928650,223.359726 517.086731,222.601166 518.557983,221.880463 
	C517.709473,222.727432 516.547729,223.536545 515.078247,224.231979 
z"/>
<path fill="#6F6F6F" opacity="1.000000" stroke="none" 
	d="
M733.043091,554.760559 
	C732.519165,553.828247 732.205994,552.687622 732.010498,551.185303 
	C732.503418,552.066528 732.878601,553.309387 733.043091,554.760559 
z"/>
<path fill="#6F6F6F" opacity="1.000000" stroke="none" 
	d="
M526.068848,92.230759 
	C526.847839,91.337852 527.929565,90.557289 529.312195,89.798141 
	C528.532593,90.660728 527.452087,91.501907 526.068848,92.230759 
z"/>
<path fill="#6F6F6F" opacity="1.000000" stroke="none" 
	d="
M696.153931,446.927185 
	C695.321228,446.408630 694.583984,445.607086 693.862610,444.517212 
	C694.668762,445.033936 695.459106,445.839050 696.153931,446.927185 
z"/>
<path fill="#6F6F6F" opacity="1.000000" stroke="none" 
	d="
M703.255493,455.921997 
	C702.409485,455.458405 701.630493,454.704803 700.853271,453.665070 
	C701.677551,454.129944 702.500061,454.880951 703.255493,455.921997 
z"/>
<path fill="#6F6F6F" opacity="1.000000" stroke="none" 
	d="
M693.193237,442.924255 
	C692.357239,442.437531 691.607849,441.665283 690.864502,440.609863 
	C691.673645,441.097321 692.476746,441.868011 693.193237,442.924255 
z"/>
<path fill="#6F6F6F" opacity="1.000000" stroke="none" 
	d="
M473.789246,366.786377 
	C472.859131,366.518799 471.885803,365.945343 470.846863,365.083893 
	C471.769562,365.357422 472.757812,365.918945 473.789246,366.786377 
z"/>
<path fill="#6F6F6F" opacity="1.000000" stroke="none" 
	d="
M482.659180,373.851990 
	C481.765442,373.591278 480.840912,373.027863 479.845459,372.192993 
	C480.725830,372.464111 481.677155,373.006683 482.659180,373.851990 
z"/>
<path fill="#6F6F6F" opacity="1.000000" stroke="none" 
	d="
M451.208191,234.940521 
	C451.860779,234.442688 452.683167,234.152893 453.831299,233.996735 
	C453.230713,234.469772 452.304352,234.809174 451.208191,234.940521 
z"/>
<path fill="#5E5E5E" opacity="1.000000" stroke="none" 
	d="
M534.165161,85.052704 
	C534.350830,84.287766 534.536438,83.522827 534.722046,82.757889 
	C535.168396,83.102776 535.614807,83.447670 536.083374,84.115158 
	C536.105652,84.437744 536.213013,84.785477 535.769043,84.878754 
	C534.938477,84.998917 534.551819,85.025810 534.165161,85.052704 
z"/>
<path fill="#6F6F6F" opacity="1.000000" stroke="none" 
	d="
M706.286133,459.929321 
	C705.740540,459.733948 705.283020,459.271576 704.852478,458.549011 
	C705.377686,458.746613 705.875916,459.204468 706.286133,459.929321 
z"/>
<path fill="#6F6F6F" opacity="1.000000" stroke="none" 
	d="
M532.640991,36.895836 
	C532.051208,36.931801 531.451111,36.677933 530.794556,36.168610 
	C531.368896,36.144108 531.999817,36.375057 532.640991,36.895836 
z"/>
<path fill="#6F6F6F" opacity="1.000000" stroke="none" 
	d="
M541.045105,81.340347 
	C541.241089,80.761887 541.716980,80.266533 542.468750,79.811531 
	C542.271423,80.375740 541.798157,80.899597 541.045105,81.340347 
z"/>
<path fill="#6F6F6F" opacity="1.000000" stroke="none" 
	d="
M698.286987,449.931671 
	C697.736572,449.742676 697.270874,449.286041 696.825439,448.567322 
	C697.354431,448.758179 697.863037,449.211121 698.286987,449.931671 
z"/>
<path fill="#6F6F6F" opacity="1.000000" stroke="none" 
	d="
M708.340576,462.916016 
	C707.779663,462.706421 707.307922,462.221985 706.864746,461.466125 
	C707.405457,461.676819 707.917542,462.158997 708.340576,462.916016 
z"/>
<path fill="#6F6F6F" opacity="1.000000" stroke="none" 
	d="
M432.021973,243.180176 
	C432.240936,242.623276 432.720581,242.179916 433.459198,241.786743 
	C433.239655,242.322540 432.761169,242.808136 432.021973,243.180176 
z"/>
<path fill="#6F6F6F" opacity="1.000000" stroke="none" 
	d="
M429.018921,245.211349 
	C429.204651,244.652603 429.656067,244.186539 430.367310,243.759552 
	C430.179626,244.300415 429.732117,244.802216 429.018921,245.211349 
z"/>
<path fill="#6F6F6F" opacity="1.000000" stroke="none" 
	d="
M522.150269,218.689865 
	C522.155945,218.089859 522.453247,217.470932 523.023438,216.805511 
	C523.011536,217.396332 522.726746,218.033630 522.150269,218.689865 
z"/>
<path fill="#6F6F6F" opacity="1.000000" stroke="none" 
	d="
M525.150330,214.694397 
	C525.127869,214.094376 525.397522,213.479752 525.931030,212.807739 
	C525.944092,213.393478 525.693237,214.036621 525.150330,214.694397 
z"/>
<path fill="#6F6F6F" opacity="1.000000" stroke="none" 
	d="
M550.539856,381.626160 
	C550.833557,381.930389 550.951233,382.185730 551.179932,382.616333 
	C550.590271,382.784637 549.968323,382.741364 549.185913,382.413330 
	C549.445251,381.956909 549.865173,381.785248 550.539856,381.626160 
z"/>
<path fill="#6F6F6F" opacity="1.000000" stroke="none" 
	d="
M534.039917,85.248001 
	C534.551819,85.025810 534.938477,84.998917 535.616577,84.978020 
	C535.377930,85.488640 534.847839,85.993263 534.037964,86.413742 
	C533.659973,86.007622 533.712097,85.712196 534.039917,85.248001 
z"/>
<path fill="#6F6F6F" opacity="1.000000" stroke="none" 
	d="
M663.628052,412.860657 
	C663.072327,412.881256 662.499634,412.624207 661.859131,412.126160 
	C662.397888,412.117798 663.004517,412.350403 663.628052,412.860657 
z"/>
<path fill="#6F6F6F" opacity="1.000000" stroke="none" 
	d="
M538.046875,83.348015 
	C538.270752,82.763161 538.774170,82.278412 539.556335,81.845116 
	C539.332214,82.413757 538.829224,82.930946 538.046875,83.348015 
z"/>
<path fill="#FEFFFF" opacity="1.000000" stroke="none" 
	d="
M585.165405,387.421051 
	C586.749207,387.450409 588.623474,384.020874 589.919556,388.178772 
	C589.308472,388.564026 588.668823,388.588379 587.500916,388.384277 
	C586.370239,387.910919 585.767822,387.665985 585.165405,387.421051 
z"/>
<path fill="#6F6F6F" opacity="1.000000" stroke="none" 
	d="
M563.184082,385.434631 
	C563.890259,385.137817 564.751343,385.076202 565.763550,385.254974 
	C565.056091,385.553528 564.197571,385.611694 563.184082,385.434631 
z"/>
<path fill="#6F6F6F" opacity="1.000000" stroke="none" 
	d="
M584.941650,387.549866 
	C585.767822,387.665985 586.370239,387.910919 587.177124,388.403687 
	C586.343933,388.652130 585.306335,388.652740 584.053162,388.419312 
	C584.130981,388.016357 584.424377,387.847504 584.941650,387.549866 
z"/>
<path fill="#6F6F6F" opacity="1.000000" stroke="none" 
	d="
M557.230652,384.410553 
	C557.727661,384.163605 558.433716,384.182739 559.258911,384.420166 
	C558.731873,384.651154 558.085815,384.663910 557.230652,384.410553 
z"/>
<path fill="#6F6F6F" opacity="1.000000" stroke="none" 
	d="
M571.265503,386.489380 
	C571.740540,386.205658 572.443848,386.173218 573.290283,386.338654 
	C572.786865,386.604553 572.140320,386.672638 571.265503,386.489380 
z"/>
<path fill="#6F6F6F" opacity="1.000000" stroke="none" 
	d="
M578.135193,387.438171 
	C578.592224,387.172974 579.153809,387.123535 579.814026,387.297882 
	C579.355042,387.565735 578.797363,387.609802 578.135193,387.438171 
z"/>
</svg>