<svg version="1.1" id="Layer_1" xmlns="http://www.w3.org/2000/svg" xmlns:xlink="http://www.w3.org/1999/xlink" x="0px" y="0px"
	 width="100%" viewBox="0 0 967 888" enable-background="new 0 0 967 888" xml:space="preserve">
<path fill="#FEFFFF" opacity="1.000000" stroke="none" 
	d="
M585.000000,889.000000 
	C390.000000,889.000000 195.500000,889.000000 1.000000,889.000000 
	C1.000000,593.000000 1.000000,297.000000 1.000000,1.000000 
	C323.333344,1.000000 645.666687,1.000000 968.000000,1.000000 
	C968.000000,297.000000 968.000000,593.000000 968.000000,889.000000 
	C840.500000,889.000000 713.000000,889.000000 585.000000,889.000000 
M473.996338,746.703308 
	C472.174744,746.832092 470.348663,747.117432 468.532257,747.065308 
	C451.909760,746.589050 435.369659,745.477051 419.058838,741.828491 
	C412.615479,740.387207 405.376495,741.184204 399.540070,738.606506 
	C384.641998,732.026672 369.975372,724.724426 355.936646,716.483765 
	C349.255829,712.562134 344.059692,705.999084 338.472900,700.353699 
	C331.241852,693.046753 323.833313,685.837036 317.336792,677.901428 
	C309.051788,667.781006 301.086639,657.312500 293.955475,646.361145 
	C288.282349,637.648926 284.206818,627.910400 279.176575,618.762512 
	C269.180817,600.584351 250.094696,603.691956 238.880600,615.087097 
	C233.417969,620.637939 227.556183,625.246338 220.501266,628.562683 
	C215.395630,630.962769 210.572006,633.979187 205.690964,636.837524 
	C193.671341,643.875854 181.502182,650.320007 166.803711,648.123169 
	C165.991669,648.001831 165.139847,648.131714 164.307343,648.164856 
	C154.559540,648.553040 147.273621,658.277222 149.921204,666.245789 
	C153.156250,675.982422 154.157196,685.922485 151.129105,696.047241 
	C148.749329,704.004333 151.345108,711.533203 155.458359,717.964478 
	C169.867844,740.494690 184.582550,762.840759 199.693726,784.905945 
	C206.340088,794.610962 214.072128,803.595337 221.650940,812.621704 
	C223.381805,814.683105 226.384140,815.908752 229.028809,816.929504 
	C238.833572,820.713989 250.178467,822.599121 250.728378,836.586975 
	C258.941437,832.650635 260.093842,823.581360 253.836365,815.725952 
	C250.225998,811.193726 246.547638,806.707825 243.117752,802.040894 
	C230.932739,785.461304 216.830215,770.379883 206.237930,752.518127 
	C197.268524,737.393005 186.785355,723.168457 177.067047,708.482544 
	C174.640244,704.815247 173.553070,701.025513 174.546860,696.242432 
	C175.955338,689.463562 176.315140,682.433411 176.683563,675.487305 
	C176.843994,672.462585 178.121933,672.125488 180.638229,671.821777 
	C184.377960,671.370361 188.350632,670.922302 191.678802,669.331665 
	C203.972763,663.456055 216.058121,657.141846 228.191956,650.933960 
	C237.973114,645.929688 247.903748,641.167542 255.089798,632.336853 
	C257.491119,629.385986 259.614868,631.183899 260.925507,633.642944 
	C264.277832,639.932556 267.270844,646.416809 270.711578,652.655457 
	C274.470001,659.470154 278.165283,666.381287 282.630310,672.728210 
	C287.492188,679.639160 292.878754,686.253479 298.617035,692.460449 
	C310.916351,705.764526 322.470886,720.091003 336.394073,731.474792 
	C353.558228,745.508484 374.457916,753.911438 395.153625,761.707764 
	C402.718109,764.557495 411.433746,764.392090 419.639435,765.488647 
	C430.658234,766.960999 441.655884,768.796570 452.726318,769.636108 
	C476.929688,771.471497 500.724335,766.080750 524.770813,764.864014 
	C532.054321,764.495483 539.311768,763.542480 546.569397,762.749512 
	C557.272034,761.580322 568.175964,761.236877 578.603943,758.842346 
	C590.054688,756.212891 601.074890,751.691956 612.260925,747.930176 
	C626.279419,743.215820 640.447327,738.877625 654.223511,733.533569 
	C663.959167,729.756897 673.109192,724.488770 682.597168,720.050232 
	C693.407715,714.993042 704.659363,710.763000 715.079895,705.014587 
	C731.365234,696.030945 747.730530,687.010071 761.019592,673.515503 
	C766.477417,667.973267 771.905762,662.127014 778.294739,657.826111 
	C801.275940,642.355591 820.737000,623.160339 838.746399,602.369385 
	C845.480286,594.595520 852.492798,586.857788 857.888977,578.177673 
	C866.301392,564.645569 873.466675,550.336426 881.114075,536.331299 
	C884.697693,529.768433 888.062500,523.084351 891.726135,516.567505 
	C896.349976,508.342773 901.743347,500.502106 905.787781,492.011353 
	C912.223389,478.500671 917.274841,464.320618 923.908630,450.917084 
	C931.883850,434.803284 937.782288,418.157196 940.124756,400.357971 
	C941.661987,388.677338 942.653748,376.923096 943.793396,365.192444 
	C944.900452,353.796417 946.413757,342.404877 946.767883,330.980927 
	C947.095581,320.409668 946.984436,309.677277 945.516174,299.233826 
	C943.512634,284.983154 941.081665,270.622864 936.914795,256.891937 
	C932.390076,241.981552 925.551941,227.782364 919.932251,213.192307 
	C915.055908,200.532166 908.076172,189.325882 897.722534,180.484695 
	C888.121704,172.286301 878.125916,164.549988 868.537415,156.337753 
	C849.687012,140.193024 827.456726,133.701996 803.165894,133.294800 
	C793.700256,133.136124 784.221802,133.979797 774.745178,134.173431 
	C767.583435,134.319794 760.341248,133.511856 753.271667,134.322006 
	C746.604980,135.085983 739.964417,136.965942 733.589355,139.159927 
	C725.758118,141.855057 718.377686,145.885345 710.513306,148.453247 
	C692.656372,154.283997 676.460388,163.368912 660.262329,172.599457 
	C651.311707,177.699982 642.185791,182.627228 632.726990,186.668442 
	C620.116211,192.056305 606.372986,189.838058 599.813232,174.059265 
	C594.138062,160.408142 588.242737,146.847321 582.678345,133.151672 
	C574.768372,113.683037 572.377136,92.987579 569.849548,72.378349 
	C568.434875,60.843636 567.873535,49.206623 566.688660,37.640198 
	C566.217896,33.044800 565.571960,28.361347 564.144531,23.999855 
	C562.728882,19.674393 559.221313,17.557535 554.350525,18.035059 
	C549.824402,18.478790 547.450623,21.375029 546.404785,25.211658 
	C545.545044,28.365589 545.165161,31.811539 545.388184,35.072258 
	C546.510742,51.478920 547.581543,67.900497 549.283325,84.253067 
	C551.125732,101.957245 553.879333,119.600975 560.247986,136.317810 
	C566.454834,152.609619 573.157410,168.731903 580.210388,184.677368 
	C590.558044,208.071533 612.216309,216.814941 634.922668,209.696716 
	C647.001221,205.910217 658.199524,199.236328 669.670166,193.610870 
	C683.845215,186.659088 697.730164,179.096695 712.048340,172.462585 
	C721.530212,168.069290 731.716675,165.212341 741.277222,160.968201 
	C748.024536,157.972870 754.770813,156.724426 762.075317,156.815720 
	C775.687378,156.985825 789.314880,157.018127 802.917480,156.560150 
	C817.668640,156.063507 831.597351,159.492859 843.715942,167.245361 
	C855.550781,174.816284 865.949036,184.608704 877.154358,193.195709 
	C886.095947,200.047989 892.924438,208.437256 897.132935,218.877853 
	C902.979126,233.381592 908.729919,247.923935 914.489502,262.462463 
	C919.828064,275.938263 920.507568,290.302643 922.638245,304.416168 
	C924.848267,319.055328 923.687439,333.616882 922.539001,348.167114 
	C921.547302,360.731384 919.436890,373.204865 918.337341,385.763702 
	C917.169678,399.100128 914.985840,412.204285 909.896423,424.584869 
	C905.032471,436.417236 899.334351,447.903839 894.196838,459.627441 
	C885.646851,479.138397 878.498291,499.240570 867.076965,517.479858 
	C857.907166,532.123535 850.043518,547.579346 841.290588,562.493042 
	C838.286011,567.612427 834.681946,572.478149 830.763428,576.943542 
	C821.242004,587.794128 811.493286,598.452759 801.599304,608.965881 
	C796.476440,614.409363 791.342590,620.053345 785.353210,624.428833 
	C770.693970,635.137878 756.243469,645.959961 743.493164,659.019592 
	C738.204224,664.436890 732.042175,669.410767 725.430969,673.048279 
	C708.307068,682.469971 692.318237,693.896118 673.117981,699.693604 
	C660.185730,703.598572 648.392822,711.122437 635.703796,716.027588 
	C620.989807,721.715454 605.878174,726.385986 590.887329,731.341492 
	C584.277771,733.526428 577.606995,735.599731 570.845642,737.233948 
	C561.130737,739.582092 551.141663,739.051392 541.251709,739.701233 
	C519.076599,741.158447 497.000092,744.116272 473.996338,746.703308 
M124.326012,556.819153 
	C130.970398,550.073608 137.328583,543.012756 144.328110,536.658386 
	C154.162552,527.730469 164.609726,519.480896 174.546494,510.661407 
	C187.492737,499.170807 201.620300,489.602264 218.061035,484.000519 
	C243.656479,475.279572 270.119995,473.642456 296.829407,476.029327 
	C304.486847,476.713654 312.092133,478.897949 319.514771,481.092834 
	C332.880615,485.045197 345.916901,490.226257 359.418884,493.569092 
	C370.811523,496.389709 382.992737,496.196075 394.237701,499.398438 
	C407.875214,503.282227 419.888336,500.567444 431.659882,494.386627 
	C439.883087,490.068878 447.797302,485.153290 455.767761,480.368561 
	C458.452057,478.757141 461.235779,477.060425 463.364075,474.822540 
	C468.970886,468.927155 474.065430,462.543518 479.690002,456.666351 
	C488.057526,447.922943 497.287659,439.942871 505.104675,430.748627 
	C518.584534,414.893768 530.003357,397.782959 538.367371,378.362183 
	C550.138428,351.030487 553.749146,322.859924 549.486328,293.939697 
	C547.007874,277.125183 541.207336,260.863037 525.428223,250.816086 
	C524.351868,250.130692 523.395935,249.024551 522.769348,247.899429 
	C514.449097,232.958893 506.052979,218.057327 497.992523,202.976730 
	C494.165863,195.817230 490.190765,188.564560 487.700958,180.893829 
	C478.499817,152.546570 472.882751,123.334770 468.026672,93.975441 
	C465.677979,79.775436 465.249817,65.553894 467.673950,51.311924 
	C467.980011,49.513889 468.215302,47.698624 468.627014,45.924667 
	C470.378021,38.379730 467.981354,32.964085 462.130280,31.381126 
	C456.498505,29.857506 450.094879,33.443275 448.806305,40.491982 
	C446.724030,51.882172 444.600525,63.513733 444.757141,75.012535 
	C445.083801,98.999329 450.139130,122.503586 455.313354,145.841553 
	C458.903320,162.033783 462.111633,178.632584 468.449799,193.814240 
	C476.874084,213.992584 488.123322,232.997238 498.271667,252.447296 
	C502.316406,260.199310 507.607941,266.957001 514.864319,272.083191 
	C516.561646,273.282288 518.094421,275.027222 519.090332,276.854828 
	C525.005188,287.709198 528.110901,299.334991 528.100098,311.743225 
	C528.082825,331.560455 524.761780,350.546631 516.891479,369.013763 
	C508.721558,388.184021 497.174133,404.703156 482.997192,419.677246 
	C473.411774,429.801666 463.643433,439.782654 454.589996,450.369202 
	C449.573669,456.234955 443.993835,460.711487 437.020844,463.857666 
	C433.272369,465.548889 429.854156,468.021606 426.407379,470.322174 
	C418.012024,475.925873 409.472321,479.990692 398.879486,476.483459 
	C394.371277,474.990814 389.422668,474.724670 384.642731,474.174744 
	C366.544983,472.092560 349.014709,467.794708 332.066040,461.105133 
	C326.816315,459.033081 321.676056,456.190399 316.216339,455.226807 
	C288.832733,450.393890 261.404327,450.551239 234.017700,455.657501 
	C213.136337,459.550873 193.513260,466.514374 176.515961,479.551086 
	C165.323730,488.135376 154.384583,497.069702 143.627823,506.195831 
	C134.129700,514.254211 124.751602,522.499573 115.857384,531.210571 
	C107.792023,539.109863 100.379364,547.684082 92.804329,556.073914 
	C72.688278,578.353638 55.372566,602.304932 52.815216,633.439453 
	C51.718174,646.795410 52.106979,660.398254 53.216953,673.773010 
	C54.187675,685.469910 57.864738,696.931763 58.999645,708.628052 
	C60.642776,725.562073 64.946266,741.735291 71.476578,757.227783 
	C84.783852,788.797852 108.442543,812.659363 132.324646,836.136475 
	C143.211151,846.838318 154.897095,856.753174 166.535034,866.655273 
	C174.118271,873.107361 181.980194,879.431946 192.239090,881.302124 
	C196.449448,882.069641 200.318771,881.275513 204.659027,877.558716 
	C199.826126,875.143738 195.750549,873.138000 191.703049,871.077087 
	C186.463974,868.409485 182.280167,864.381165 182.874619,858.323547 
	C183.553940,851.401123 180.371979,846.896484 175.881927,842.724426 
	C158.725845,826.783508 140.268936,812.216370 124.768982,794.530518 
	C119.853889,788.922302 115.013489,783.215027 110.573883,777.230408 
	C100.001671,762.978943 90.835564,747.904907 87.039932,730.292419 
	C84.701668,719.442322 83.093399,708.436096 81.094780,697.511414 
	C77.510590,677.919861 73.050209,658.501709 75.611694,638.236145 
	C77.225410,625.468872 80.580627,613.524658 87.080864,602.463135 
	C97.023682,585.543396 109.956329,571.049744 124.326012,556.819153 
z"/>
<path fill="#6BC1FF" opacity="1.000000" stroke="none" 
	d="
M474.439880,746.583191 
	C497.000092,744.116272 519.076599,741.158447 541.251709,739.701233 
	C551.141663,739.051392 561.130737,739.582092 570.845642,737.233948 
	C577.606995,735.599731 584.277771,733.526428 590.887329,731.341492 
	C605.878174,726.385986 620.989807,721.715454 635.703796,716.027588 
	C648.392822,711.122437 660.185730,703.598572 673.117981,699.693604 
	C692.318237,693.896118 708.307068,682.469971 725.430969,673.048279 
	C732.042175,669.410767 738.204224,664.436890 743.493164,659.019592 
	C756.243469,645.959961 770.693970,635.137878 785.353210,624.428833 
	C791.342590,620.053345 796.476440,614.409363 801.599304,608.965881 
	C811.493286,598.452759 821.242004,587.794128 830.763428,576.943542 
	C834.681946,572.478149 838.286011,567.612427 841.290588,562.493042 
	C850.043518,547.579346 857.907166,532.123535 867.076965,517.479858 
	C878.498291,499.240570 885.646851,479.138397 894.196838,459.627441 
	C899.334351,447.903839 905.032471,436.417236 909.896423,424.584869 
	C914.985840,412.204285 917.169678,399.100128 918.337341,385.763702 
	C919.436890,373.204865 921.547302,360.731384 922.539001,348.167114 
	C923.687439,333.616882 924.848267,319.055328 922.638245,304.416168 
	C920.507568,290.302643 919.828064,275.938263 914.489502,262.462463 
	C908.729919,247.923935 902.979126,233.381592 897.132935,218.877853 
	C892.924438,208.437256 886.095947,200.047989 877.154358,193.195709 
	C865.949036,184.608704 855.550781,174.816284 843.715942,167.245361 
	C831.597351,159.492859 817.668640,156.063507 802.917480,156.560150 
	C789.314880,157.018127 775.687378,156.985825 762.075317,156.815720 
	C754.770813,156.724426 748.024536,157.972870 741.277222,160.968201 
	C731.716675,165.212341 721.530212,168.069290 712.048340,172.462585 
	C697.730164,179.096695 683.845215,186.659088 669.670166,193.610870 
	C658.199524,199.236328 647.001221,205.910217 634.922668,209.696716 
	C612.216309,216.814941 590.558044,208.071533 580.210388,184.677368 
	C573.157410,168.731903 566.454834,152.609619 560.247986,136.317810 
	C553.879333,119.600975 551.125732,101.957245 549.283325,84.253067 
	C547.581543,67.900497 546.510742,51.478920 545.388184,35.072258 
	C545.165161,31.811539 545.545044,28.365589 546.404785,25.211658 
	C547.450623,21.375029 549.824402,18.478790 554.350525,18.035059 
	C559.221313,17.557535 562.728882,19.674393 564.144531,23.999855 
	C565.571960,28.361347 566.217896,33.044800 566.688660,37.640198 
	C567.873535,49.206623 568.434875,60.843636 569.849548,72.378349 
	C572.377136,92.987579 574.768372,113.683037 582.678345,133.151672 
	C588.242737,146.847321 594.138062,160.408142 599.813232,174.059265 
	C606.372986,189.838058 620.116211,192.056305 632.726990,186.668442 
	C642.185791,182.627228 651.311707,177.699982 660.262329,172.599457 
	C676.460388,163.368912 692.656372,154.283997 710.513306,148.453247 
	C718.377686,145.885345 725.758118,141.855057 733.589355,139.159927 
	C739.964417,136.965942 746.604980,135.085983 753.271667,134.322006 
	C760.341248,133.511856 767.583435,134.319794 774.745178,134.173431 
	C784.221802,133.979797 793.700256,133.136124 803.165894,133.294800 
	C827.456726,133.701996 849.687012,140.193024 868.537415,156.337753 
	C878.125916,164.549988 888.121704,172.286301 897.722534,180.484695 
	C908.076172,189.325882 915.055908,200.532166 919.932251,213.192307 
	C925.551941,227.782364 932.390076,241.981552 936.914795,256.891937 
	C941.081665,270.622864 943.512634,284.983154 945.516174,299.233826 
	C946.984436,309.677277 947.095581,320.409668 946.767883,330.980927 
	C946.413757,342.404877 944.900452,353.796417 943.793396,365.192444 
	C942.653748,376.923096 941.661987,388.677338 940.124756,400.357971 
	C937.782288,418.157196 931.883850,434.803284 923.908630,450.917084 
	C917.274841,464.320618 912.223389,478.500671 905.787781,492.011353 
	C901.743347,500.502106 896.349976,508.342773 891.726135,516.567505 
	C888.062500,523.084351 884.697693,529.768433 881.114075,536.331299 
	C873.466675,550.336426 866.301392,564.645569 857.888977,578.177673 
	C852.492798,586.857788 845.480286,594.595520 838.746399,602.369385 
	C820.737000,623.160339 801.275940,642.355591 778.294739,657.826111 
	C771.905762,662.127014 766.477417,667.973267 761.019592,673.515503 
	C747.730530,687.010071 731.365234,696.030945 715.079895,705.014587 
	C704.659363,710.763000 693.407715,714.993042 682.597168,720.050232 
	C673.109192,724.488770 663.959167,729.756897 654.223511,733.533569 
	C640.447327,738.877625 626.279419,743.215820 612.260925,747.930176 
	C601.074890,751.691956 590.054688,756.212891 578.603943,758.842346 
	C568.175964,761.236877 557.272034,761.580322 546.569397,762.749512 
	C539.311768,763.542480 532.054321,764.495483 524.770813,764.864014 
	C500.724335,766.080750 476.929688,771.471497 452.726318,769.636108 
	C441.655884,768.796570 430.658234,766.960999 419.639435,765.488647 
	C411.433746,764.392090 402.718109,764.557495 395.153625,761.707764 
	C374.457916,753.911438 353.558228,745.508484 336.394073,731.474792 
	C322.470886,720.091003 310.916351,705.764526 298.617035,692.460449 
	C292.878754,686.253479 287.492188,679.639160 282.630310,672.728210 
	C278.165283,666.381287 274.470001,659.470154 270.711578,652.655457 
	C267.270844,646.416809 264.277832,639.932556 260.925507,633.642944 
	C259.614868,631.183899 257.491119,629.385986 255.089798,632.336853 
	C247.903748,641.167542 237.973114,645.929688 228.191956,650.933960 
	C216.058121,657.141846 203.972763,663.456055 191.678802,669.331665 
	C188.350632,670.922302 184.377960,671.370361 180.638229,671.821777 
	C178.121933,672.125488 176.843994,672.462585 176.683563,675.487305 
	C176.315140,682.433411 175.955338,689.463562 174.546860,696.242432 
	C173.553070,701.025513 174.640244,704.815247 177.067047,708.482544 
	C186.785355,723.168457 197.268524,737.393005 206.237930,752.518127 
	C216.830215,770.379883 230.932739,785.461304 243.117752,802.040894 
	C246.547638,806.707825 250.225998,811.193726 253.836365,815.725952 
	C260.093842,823.581360 258.941437,832.650635 250.728378,836.586975 
	C250.178467,822.599121 238.833572,820.713989 229.028809,816.929504 
	C226.384140,815.908752 223.381805,814.683105 221.650940,812.621704 
	C214.072128,803.595337 206.340088,794.610962 199.693726,784.905945 
	C184.582550,762.840759 169.867844,740.494690 155.458359,717.964478 
	C151.345108,711.533203 148.749329,704.004333 151.129105,696.047241 
	C154.157196,685.922485 153.156250,675.982422 149.921204,666.245789 
	C147.273621,658.277222 154.559540,648.553040 164.307343,648.164856 
	C165.139847,648.131714 165.991669,648.001831 166.803711,648.123169 
	C181.502182,650.320007 193.671341,643.875854 205.690964,636.837524 
	C210.572006,633.979187 215.395630,630.962769 220.501266,628.562683 
	C227.556183,625.246338 233.417969,620.637939 238.880600,615.087097 
	C250.094696,603.691956 269.180817,600.584351 279.176575,618.762512 
	C284.206818,627.910400 288.282349,637.648926 293.955475,646.361145 
	C301.086639,657.312500 309.051788,667.781006 317.336792,677.901428 
	C323.833313,685.837036 331.241852,693.046753 338.472900,700.353699 
	C344.059692,705.999084 349.255829,712.562134 355.936646,716.483765 
	C369.975372,724.724426 384.641998,732.026672 399.540070,738.606506 
	C405.376495,741.184204 412.615479,740.387207 419.058838,741.828491 
	C435.369659,745.477051 451.909760,746.589050 468.532257,747.065308 
	C470.348663,747.117432 472.174744,746.832092 474.439880,746.583191 
z"/>
<path fill="#6CC1FF" opacity="1.000000" stroke="none" 
	d="
M124.075493,557.070374 
	C109.956329,571.049744 97.023682,585.543396 87.080864,602.463135 
	C80.580627,613.524658 77.225410,625.468872 75.611694,638.236145 
	C73.050209,658.501709 77.510590,677.919861 81.094780,697.511414 
	C83.093399,708.436096 84.701668,719.442322 87.039932,730.292419 
	C90.835564,747.904907 100.001671,762.978943 110.573883,777.230408 
	C115.013489,783.215027 119.853889,788.922302 124.768982,794.530518 
	C140.268936,812.216370 158.725845,826.783508 175.881927,842.724426 
	C180.371979,846.896484 183.553940,851.401123 182.874619,858.323547 
	C182.280167,864.381165 186.463974,868.409485 191.703049,871.077087 
	C195.750549,873.138000 199.826126,875.143738 204.659027,877.558716 
	C200.318771,881.275513 196.449448,882.069641 192.239090,881.302124 
	C181.980194,879.431946 174.118271,873.107361 166.535034,866.655273 
	C154.897095,856.753174 143.211151,846.838318 132.324646,836.136475 
	C108.442543,812.659363 84.783852,788.797852 71.476578,757.227783 
	C64.946266,741.735291 60.642776,725.562073 58.999645,708.628052 
	C57.864738,696.931763 54.187675,685.469910 53.216953,673.773010 
	C52.106979,660.398254 51.718174,646.795410 52.815216,633.439453 
	C55.372566,602.304932 72.688278,578.353638 92.804329,556.073914 
	C100.379364,547.684082 107.792023,539.109863 115.857384,531.210571 
	C124.751602,522.499573 134.129700,514.254211 143.627823,506.195831 
	C154.384583,497.069702 165.323730,488.135376 176.515961,479.551086 
	C193.513260,466.514374 213.136337,459.550873 234.017700,455.657501 
	C261.404327,450.551239 288.832733,450.393890 316.216339,455.226807 
	C321.676056,456.190399 326.816315,459.033081 332.066040,461.105133 
	C349.014709,467.794708 366.544983,472.092560 384.642731,474.174744 
	C389.422668,474.724670 394.371277,474.990814 398.879486,476.483459 
	C409.472321,479.990692 418.012024,475.925873 426.407379,470.322174 
	C429.854156,468.021606 433.272369,465.548889 437.020844,463.857666 
	C443.993835,460.711487 449.573669,456.234955 454.589996,450.369202 
	C463.643433,439.782654 473.411774,429.801666 482.997192,419.677246 
	C497.174133,404.703156 508.721558,388.184021 516.891479,369.013763 
	C524.761780,350.546631 528.082825,331.560455 528.100098,311.743225 
	C528.110901,299.334991 525.005188,287.709198 519.090332,276.854828 
	C518.094421,275.027222 516.561646,273.282288 514.864319,272.083191 
	C507.607941,266.957001 502.316406,260.199310 498.271667,252.447296 
	C488.123322,232.997238 476.874084,213.992584 468.449799,193.814240 
	C462.111633,178.632584 458.903320,162.033783 455.313354,145.841553 
	C450.139130,122.503586 445.083801,98.999329 444.757141,75.012535 
	C444.600525,63.513733 446.724030,51.882172 448.806305,40.491982 
	C450.094879,33.443275 456.498505,29.857506 462.130280,31.381126 
	C467.981354,32.964085 470.378021,38.379730 468.627014,45.924667 
	C468.215302,47.698624 467.980011,49.513889 467.673950,51.311924 
	C465.249817,65.553894 465.677979,79.775436 468.026672,93.975441 
	C472.882751,123.334770 478.499817,152.546570 487.700958,180.893829 
	C490.190765,188.564560 494.165863,195.817230 497.992523,202.976730 
	C506.052979,218.057327 514.449097,232.958893 522.769348,247.899429 
	C523.395935,249.024551 524.351868,250.130692 525.428223,250.816086 
	C541.207336,260.863037 547.007874,277.125183 549.486328,293.939697 
	C553.749146,322.859924 550.138428,351.030487 538.367371,378.362183 
	C530.003357,397.782959 518.584534,414.893768 505.104675,430.748627 
	C497.287659,439.942871 488.057526,447.922943 479.690002,456.666351 
	C474.065430,462.543518 468.970886,468.927155 463.364075,474.822540 
	C461.235779,477.060425 458.452057,478.757141 455.767761,480.368561 
	C447.797302,485.153290 439.883087,490.068878 431.659882,494.386627 
	C419.888336,500.567444 407.875214,503.282227 394.237701,499.398438 
	C382.992737,496.196075 370.811523,496.389709 359.418884,493.569092 
	C345.916901,490.226257 332.880615,485.045197 319.514771,481.092834 
	C312.092133,478.897949 304.486847,476.713654 296.829407,476.029327 
	C270.119995,473.642456 243.656479,475.279572 218.061035,484.000519 
	C201.620300,489.602264 187.492737,499.170807 174.546494,510.661407 
	C164.609726,519.480896 154.162552,527.730469 144.328110,536.658386 
	C137.328583,543.012756 130.970398,550.073608 124.075493,557.070374 
z"/>
</svg>